SplineFontDB: 3.2
FontName: IRNazli
FullName: IRNazli
FamilyName: IRNazli
Weight: Book
Copyright: Copyright (c) 2022, Information Technology Organization of Iran (ito.gov.ir)
Version: 1.001
ItalicAngle: 0
UnderlinePosition: -100
UnderlineWidth: 60
Ascent: 1638
Descent: 410
InvalidEm: 0
sfntRevision: 0x00010042
LayerCount: 2
Layer: 0 1 "Back" 1
Layer: 1 1 "Fore" 0
XUID: [1021 420 722297922 2590836]
StyleMap: 0x0040
FSType: 0
OS2Version: 3
OS2_WeightWidthSlopeOnly: 0
OS2_UseTypoMetrics: 0
CreationTime: 1356417786
ModificationTime: 1662630575
PfmFamily: 17
TTFWeight: 400
TTFWidth: 5
LineGap: 100
VLineGap: 0
Panose: 2 0 5 6 0 0 0 2 0 2
OS2TypoAscent: 1662
OS2TypoAOffset: 0
OS2TypoDescent: -1228
OS2TypoDOffset: 0
OS2TypoLinegap: 1500
OS2WinAscent: 1662
OS2WinAOffset: 0
OS2WinDescent: 1228
OS2WinDOffset: 0
HheadAscent: 1662
HheadAOffset: 0
HheadDescent: -1228
HheadDOffset: 0
OS2SubXSize: 1434
OS2SubYSize: 1331
OS2SubXOff: 0
OS2SubYOff: 293
OS2SupXSize: 1434
OS2SupYSize: 1331
OS2SupXOff: 0
OS2SupYOff: 930
OS2StrikeYSize: 50
OS2StrikeYPos: 250
OS2CapHeight: 1680
OS2XHeight: 594
OS2FamilyClass: 2048
OS2Vendor: 'PARS'
OS2CodePages: 20000041.00000000
OS2UnicodeRanges: 00002003.00000000.00000000.00000000
Lookup: 1 1 0 "'isol' Isolated Forms in Arabic lookup 0" { "'isol' Isolated Forms in Arabic lookup 0 subtable"  } ['isol' ('arab' <'dflt' > ) ]
Lookup: 1 1 0 "'init' Initial Forms in Arabic lookup 1" { "'init' Initial Forms in Arabic lookup 1 subtable"  } ['init' ('arab' <'dflt' > ) ]
Lookup: 1 1 0 "'fina' Terminal Forms in Arabic lookup 2" { "'fina' Terminal Forms in Arabic lookup 2 subtable"  } ['fina' ('arab' <'dflt' > ) ]
Lookup: 1 1 0 "'medi' Medial Forms in Arabic lookup 3" { "'medi' Medial Forms in Arabic lookup 3 subtable"  } ['medi' ('arab' <'dflt' > ) ]
Lookup: 4 1 0 "'ccmp' Glyph Composition/Decomposition in Arabic lookup 4" { "'ccmp' Glyph Composition/Decomposition in Arabic lookup 4 subtable"  } ['ccmp' ('arab' <'dflt' > ) ]

StartChar: quotedbl
Encoding: 34 34 4
Width: 711
Flags: W
LayerCount: 2
Fore
SplineSet
484 751 m 1,0,1
 473 809 473 809 463 868 c 128,-1,2
 453 927 453 927 445 976.5 c 128,-1,3
 437 1026 437 1026 432.5 1060.5 c 128,-1,4
 428 1095 428 1095 428 1105 c 0,5,6
 428 1136 428 1136 450 1156 c 128,-1,7
 472 1176 472 1176 503 1176 c 0,8,9
 533 1176 533 1176 554.5 1156.5 c 128,-1,10
 576 1137 576 1137 576 1108 c 0,11,12
 576 1070 576 1070 564.5 995 c 128,-1,13
 553 920 553 920 533 820 c 2,14,-1
 520 751 l 1,15,-1
 484 751 l 1,0,1
190 751 m 1,16,17
 179 809 179 809 168.5 868 c 128,-1,18
 158 927 158 927 150.5 976.5 c 128,-1,19
 143 1026 143 1026 138.5 1060.5 c 128,-1,20
 134 1095 134 1095 134 1105 c 0,21,22
 134 1136 134 1136 155.5 1156 c 128,-1,23
 177 1176 177 1176 209 1176 c 0,24,25
 239 1176 239 1176 260.5 1156.5 c 128,-1,26
 282 1137 282 1137 282 1108 c 0,27,28
 282 1070 282 1070 270.5 995 c 128,-1,29
 259 920 259 920 239 820 c 2,30,-1
 226 751 l 1,31,-1
 190 751 l 1,16,17
EndSplineSet
EndChar

StartChar: quotesingle
Encoding: 39 39 5
Width: 430
Flags: W
LayerCount: 2
Fore
SplineSet
190 751 m 1,0,1
 179 809 179 809 168.5 868 c 128,-1,2
 158 927 158 927 150.5 976.5 c 128,-1,3
 143 1026 143 1026 138.5 1060.5 c 128,-1,4
 134 1095 134 1095 134 1105 c 0,5,6
 134 1136 134 1136 155.5 1156 c 128,-1,7
 177 1176 177 1176 209 1176 c 0,8,9
 239 1176 239 1176 260.5 1156.5 c 128,-1,10
 282 1137 282 1137 282 1108 c 0,11,12
 282 1070 282 1070 270.5 995 c 128,-1,13
 259 920 259 920 239 820 c 2,14,-1
 226 751 l 1,15,-1
 190 751 l 1,0,1
EndSplineSet
EndChar

StartChar: asterisk
Encoding: 42 42 6
Width: 1126
Flags: W
LayerCount: 2
Fore
SplineSet
568 347 m 1,0,-1
 574 687 l 1,1,-1
 355 467 l 1,2,-1
 250 467 l 1,3,-1
 527 746 l 1,4,-1
 203 746 l 1,5,-1
 223 839 l 1,6,-1
 547 839 l 1,7,-1
 277 1104 l 1,8,-1
 370 1104 l 1,9,-1
 579 899 l 1,10,-1
 585 1199 l 1,11,-1
 704 1239 l 1,12,-1
 699 912 l 1,13,-1
 905 1104 l 1,14,-1
 1013 1104 l 1,15,-1
 730 839 l 1,16,-1
 1065 839 l 1,17,-1
 1043 746 l 1,18,-1
 729 746 l 1,19,-1
 1002 467 l 1,20,-1
 910 467 l 1,21,-1
 696 687 l 1,22,-1
 688 386 l 1,23,-1
 568 347 l 1,0,-1
EndSplineSet
EndChar

StartChar: plus
Encoding: 43 43 7
Width: 1017
GlyphClass: 2
Flags: W
LayerCount: 2
Fore
SplineSet
881 476 m 1,0,-1
 570 476 l 1,1,-1
 570 168 l 1,2,-1
 457 168 l 1,3,-1
 457 476 l 1,4,-1
 148 476 l 1,5,-1
 148 594 l 1,6,-1
 457 594 l 1,7,-1
 457 905 l 1,8,-1
 570 905 l 1,9,-1
 570 594 l 1,10,-1
 881 594 l 1,11,-1
 881 476 l 1,0,-1
EndSplineSet
EndChar

StartChar: hyphen
Encoding: 45 45 8
Width: 1031
Flags: W
LayerCount: 2
Fore
SplineSet
881 476 m 1,0,-1
 148 476 l 1,1,-1
 148 594 l 1,2,-1
 881 594 l 1,3,-1
 881 476 l 1,0,-1
EndSplineSet
EndChar

StartChar: period
Encoding: 46 46 9
Width: 498
GlyphClass: 2
Flags: W
LayerCount: 2
Fore
SplineSet
405 100 m 0,0,1
 405 61 405 61 375.5 32 c 128,-1,2
 346 3 346 3 306 3 c 0,3,4
 267 3 267 3 237.5 32 c 128,-1,5
 208 61 208 61 208 100 c 0,6,7
 208 140 208 140 237.5 169.5 c 128,-1,8
 267 199 267 199 306 199 c 0,9,10
 346 199 346 199 375.5 169.5 c 128,-1,11
 405 140 405 140 405 100 c 0,0,1
EndSplineSet
EndChar

StartChar: slash
Encoding: 47 47 10
Width: 485
Flags: W
LayerCount: 2
Fore
SplineSet
398 1119 m 1,0,-1
 132 -93 l 1,1,-1
 43 -93 l 1,2,-1
 310 1119 l 1,3,-1
 398 1119 l 1,0,-1
EndSplineSet
EndChar

StartChar: less
Encoding: 60 60 11
Width: 982
Flags: W
LayerCount: 2
Fore
SplineSet
48 279 m 1,0,-1
 48 394 l 1,1,-1
 933 794 l 1,2,-1
 933 669 l 1,3,-1
 202 336 l 1,4,-1
 933 4 l 1,5,-1
 933 -121 l 1,6,-1
 48 279 l 1,0,-1
EndSplineSet
EndChar

StartChar: equal
Encoding: 61 61 12
Width: 767
Flags: W
LayerCount: 2
Fore
SplineSet
707 511 m 1,0,-1
 55 511 l 1,1,-1
 55 608 l 1,2,-1
 707 608 l 1,3,-1
 707 511 l 1,0,-1
707 285 m 1,4,-1
 55 285 l 1,5,-1
 55 381 l 1,6,-1
 707 381 l 1,7,-1
 707 285 l 1,4,-1
EndSplineSet
EndChar

StartChar: greater
Encoding: 62 62 13
Width: 982
Flags: W
LayerCount: 2
Fore
SplineSet
48 4 m 1,0,-1
 780 336 l 1,1,-1
 48 669 l 1,2,-1
 48 794 l 1,3,-1
 933 394 l 1,4,-1
 933 279 l 1,5,-1
 48 -121 l 1,6,-1
 48 4 l 1,0,-1
EndSplineSet
EndChar

StartChar: bracketleft
Encoding: 91 91 14
Width: 580
GlyphClass: 2
Flags: W
LayerCount: 2
Fore
SplineSet
520 -271 m 1,0,-1
 153 -271 l 1,1,-1
 153 1153 l 1,2,-1
 520 1153 l 1,3,-1
 520 1109 l 1,4,-1
 364 1109 l 2,5,6
 322 1109 322 1109 304 1091.5 c 128,-1,7
 286 1074 286 1074 286 1032 c 2,8,-1
 286 -138 l 2,9,10
 286 -228 286 -228 371 -228 c 2,11,-1
 520 -228 l 1,12,-1
 520 -271 l 1,0,-1
EndSplineSet
EndChar

StartChar: bracketright
Encoding: 93 93 15
Width: 580
GlyphClass: 2
Flags: W
LayerCount: 2
Fore
SplineSet
216 -228 m 2,0,1
 256 -228 256 -228 275 -210.5 c 128,-1,2
 294 -193 294 -193 294 -151 c 2,3,-1
 294 1018 l 2,4,5
 294 1109 294 1109 209 1109 c 2,6,-1
 59 1109 l 1,7,-1
 59 1153 l 1,8,-1
 427 1153 l 1,9,-1
 427 -271 l 1,10,-1
 59 -271 l 1,11,-1
 59 -228 l 1,12,-1
 216 -228 l 2,0,1
EndSplineSet
EndChar

StartChar: grave
Encoding: 96 96 16
Width: 580
Flags: W
LayerCount: 2
Fore
SplineSet
352 882 m 1,0,-1
 83 1051 l 2,1,2
 60 1068 60 1068 46.5 1086.5 c 128,-1,3
 33 1105 33 1105 33 1126 c 0,4,5
 33 1151 33 1151 49 1166 c 128,-1,6
 65 1181 65 1181 93 1181 c 0,7,8
 111 1181 111 1181 126.5 1172 c 128,-1,9
 142 1163 142 1163 166 1140 c 2,10,-1
 422 882 l 1,11,-1
 352 882 l 1,0,-1
EndSplineSet
EndChar

StartChar: braceleft
Encoding: 123 123 17
Width: 836
GlyphClass: 2
Flags: W
LayerCount: 2
Fore
SplineSet
609 -315 m 1,0,1
 566 -315 566 -315 534.5 -312.5 c 128,-1,2
 503 -310 503 -310 479 -305 c 128,-1,3
 455 -300 455 -300 436 -291.5 c 128,-1,4
 417 -283 417 -283 399 -271 c 0,5,6
 362 -247 362 -247 342 -196.5 c 128,-1,7
 322 -146 322 -146 322 -71 c 2,8,-1
 322 237 l 2,9,10
 322 282 322 282 315.5 313.5 c 128,-1,11
 309 345 309 345 292 367.5 c 128,-1,12
 275 390 275 390 246.5 405.5 c 128,-1,13
 218 421 218 421 174 435 c 1,14,15
 218 448 218 448 246.5 463.5 c 128,-1,16
 275 479 275 479 292 501 c 128,-1,17
 309 523 309 523 315.5 554.5 c 128,-1,18
 322 586 322 586 322 632 c 2,19,-1
 322 942 l 2,20,21
 322 1013 322 1013 336.5 1059 c 128,-1,22
 351 1105 351 1105 385 1132 c 128,-1,23
 419 1159 419 1159 474 1170.5 c 128,-1,24
 529 1182 529 1182 609 1184 c 1,25,-1
 609 1164 l 1,26,27
 564 1152 564 1152 533.5 1135.5 c 128,-1,28
 503 1119 503 1119 484.5 1094.5 c 128,-1,29
 466 1070 466 1070 458 1034.5 c 128,-1,30
 450 999 450 999 450 950 c 2,31,-1
 450 658 l 2,32,33
 450 604 450 604 443 567 c 128,-1,34
 436 530 436 530 417.5 504.5 c 128,-1,35
 399 479 399 479 367.5 462.5 c 128,-1,36
 336 446 336 446 287 433 c 1,37,38
 336 421 336 421 367.5 405 c 128,-1,39
 399 389 399 389 417.5 364 c 128,-1,40
 436 339 436 339 443 302 c 128,-1,41
 450 265 450 265 450 211 c 2,42,-1
 450 -82 l 2,43,44
 450 -131 450 -131 458 -166 c 128,-1,45
 466 -201 466 -201 484.5 -226 c 128,-1,46
 503 -251 503 -251 533.5 -267.5 c 128,-1,47
 564 -284 564 -284 609 -296 c 1,48,-1
 609 -315 l 1,0,1
EndSplineSet
EndChar

StartChar: bar
Encoding: 124 124 18
Width: 348
Flags: W
LayerCount: 2
Fore
SplineSet
116 1176 m 1,0,-1
 231 1176 l 1,1,-1
 231 -25 l 1,2,-1
 116 -25 l 1,3,-1
 116 1176 l 1,0,-1
EndSplineSet
EndChar

StartChar: asciitilde
Encoding: 126 126 19
Width: 942
Flags: W
LayerCount: 2
Fore
SplineSet
874 472 m 1,0,1
 844 430 844 430 818 401.5 c 128,-1,2
 792 373 792 373 766.5 356 c 128,-1,3
 741 339 741 339 715.5 331.5 c 128,-1,4
 690 324 690 324 660 324 c 256,5,6
 630 324 630 324 607 327 c 128,-1,7
 584 330 584 330 556 340 c 128,-1,8
 528 350 528 350 490.5 368.5 c 128,-1,9
 453 387 453 387 395 418 c 0,10,11
 372 430 372 430 345 436 c 128,-1,12
 318 442 318 442 292 442 c 0,13,14
 272 442 272 442 256 437.5 c 128,-1,15
 240 433 240 433 225 423 c 128,-1,16
 210 413 210 413 195.5 396 c 128,-1,17
 181 379 181 379 164 354 c 1,18,-1
 70 409 l 1,19,20
 100 451 100 451 125.5 479 c 128,-1,21
 151 507 151 507 176.5 524.5 c 128,-1,22
 202 542 202 542 228 549.5 c 128,-1,23
 254 557 254 557 284 557 c 0,24,25
 313 557 313 557 336 554 c 128,-1,26
 359 551 359 551 387 541 c 128,-1,27
 415 531 415 531 452.5 512.5 c 128,-1,28
 490 494 490 494 548 463 c 0,29,30
 571 450 571 450 597.5 444.5 c 128,-1,31
 624 439 624 439 651 439 c 0,32,33
 670 439 670 439 686.5 443 c 128,-1,34
 703 447 703 447 718 457.5 c 128,-1,35
 733 468 733 468 748 485 c 128,-1,36
 763 502 763 502 780 528 c 1,37,-1
 874 472 l 1,0,1
EndSplineSet
EndChar

StartChar: agrave
Encoding: 224 224 20
Width: 1075
Flags: W
LayerCount: 2
Fore
SplineSet
741 331 m 1,0,1
 720 266 720 266 690.5 213 c 128,-1,2
 661 160 661 160 626 114 c 0,3,4
 519 -19 519 -19 400 -19 c 0,5,6
 208 -19 208 -19 159 214 c 0,7,8
 133 334 133 334 157 451 c 128,-1,9
 181 568 181 568 252 683 c 0,10,11
 325 801 325 801 433 860 c 128,-1,12
 541 919 541 919 684 919 c 0,13,14
 712 919 712 919 746 918.5 c 128,-1,15
 780 918 780 918 815.5 916 c 128,-1,16
 851 914 851 914 886 912 c 128,-1,17
 921 910 921 910 952 908 c 1,18,-1
 946 646 l 1,19,-1
 946 647 l 1,20,-1
 950 254 l 2,21,22
 952 209 952 209 954.5 179.5 c 128,-1,23
 957 150 957 150 958 139 c 0,24,25
 961 114 961 114 985 114 c 0,26,27
 1053 114 1053 114 1214 346 c 1,28,-1
 1218 179 l 1,29,30
 1073 -19 1073 -19 925 -19 c 0,31,32
 785 -19 785 -19 753 126 c 0,33,34
 749 146 749 146 747 182 c 128,-1,35
 745 218 745 218 745 264 c 2,36,-1
 741 331 l 1,0,1
737 758 m 1,37,38
 688 775 688 775 647 783.5 c 128,-1,39
 606 792 606 792 561 792 c 0,40,41
 497 792 497 792 453.5 749.5 c 128,-1,42
 410 707 410 707 387 625 c 0,43,44
 362 522 362 522 357 425 c 128,-1,45
 352 328 352 328 368 248 c 0,46,47
 388 146 388 146 437 146 c 0,48,49
 493 146 493 146 589 280 c 0,50,51
 637 352 637 352 674 430 c 128,-1,52
 711 508 711 508 739 599 c 1,53,-1
 737 758 l 1,37,38
641 537 m 1,54,-1
 372 706 l 2,55,56
 349 723 349 723 335.5 741.5 c 128,-1,57
 322 760 322 760 322 781 c 0,58,59
 322 806 322 806 338 821 c 128,-1,60
 354 836 354 836 382 836 c 0,61,62
 400 836 400 836 415.5 827 c 128,-1,63
 431 818 431 818 455 795 c 2,64,-1
 711 537 l 1,65,-1
 641 537 l 1,54,-1
EndSplineSet
EndChar

StartChar: ocircumflex.001
Encoding: 65539 -1 26
Width: 1112
Flags: W
LayerCount: 2
Fore
SplineSet
416 -19 m 0,0,1
 301 -19 301 -19 205 70 c 0,2,3
 110 160 110 160 85 288 c 0,4,5
 32 528 32 528 170 726 c 0,6,7
 307 928 307 928 522 928 c 0,8,9
 643 928 643 928 742 842 c 1,10,11
 837 753 837 753 864 626 c 0,12,13
 890 499 890 499 869 388.5 c 128,-1,14
 848 278 848 278 781 179 c 0,15,16
 711 79 711 79 619.5 30 c 128,-1,17
 528 -19 528 -19 416 -19 c 0,0,1
483 98 m 0,18,19
 536 98 536 98 573.5 133 c 128,-1,20
 611 168 611 168 637 236 c 0,21,22
 665 310 665 310 668.5 393.5 c 128,-1,23
 672 477 672 477 652 574 c 0,24,25
 602 813 602 813 466 813 c 0,26,27
 365 813 365 813 313 670 c 0,28,29
 284 595 284 595 281 510.5 c 128,-1,30
 278 426 278 426 298 332 c 0,31,32
 324 213 324 213 370 155.5 c 128,-1,33
 416 98 416 98 483 98 c 0,18,19
EndSplineSet
EndChar

StartChar: dagger
Encoding: 8224 8224 30
Width: 932
Flags: W
LayerCount: 2
Fore
SplineSet
347 -231 m 1,0,-1
 567 622 l 1,1,-1
 248 592 l 1,2,-1
 297 700 l 1,3,-1
 576 668 l 1,4,-1
 607 1066 l 1,5,-1
 755 1093 l 1,6,-1
 621 668 l 1,7,-1
 941 700 l 1,8,-1
 895 592 l 1,9,-1
 612 622 l 1,10,-1
 496 -213 l 1,11,-1
 347 -231 l 1,0,-1
EndSplineSet
EndChar

StartChar: degree
Encoding: 176 176 31
Width: 409
Flags: W
LayerCount: 2
Fore
SplineSet
395 844 m 0,0,1
 344 844 344 844 307.5 880 c 128,-1,2
 271 916 271 916 271 968 c 0,3,4
 271 1021 271 1021 307.5 1057 c 128,-1,5
 344 1093 344 1093 395 1093 c 0,6,7
 447 1093 447 1093 483 1057 c 128,-1,8
 519 1021 519 1021 519 968 c 0,9,10
 519 916 519 916 483 880 c 128,-1,11
 447 844 447 844 395 844 c 0,0,1
395 888 m 256,12,13
 427 888 427 888 450.5 912 c 128,-1,14
 474 936 474 936 474 968 c 256,15,16
 474 1000 474 1000 450.5 1024 c 128,-1,17
 427 1048 427 1048 395 1048 c 256,18,19
 363 1048 363 1048 339 1024 c 128,-1,20
 315 1000 315 1000 315 968 c 256,21,22
 315 936 315 936 339 912 c 128,-1,23
 363 888 363 888 395 888 c 256,12,13
EndSplineSet
EndChar

StartChar: bullet
Encoding: 8226 8226 32
Width: 931
Flags: W
LayerCount: 2
Fore
SplineSet
817 662 m 256,0,1
 817 517 817 517 713.5 414 c 128,-1,2
 610 311 610 311 465 311 c 256,3,4
 320 311 320 311 217 414 c 128,-1,5
 114 517 114 517 114 662 c 256,6,7
 114 807 114 807 217 910 c 128,-1,8
 320 1013 320 1013 465 1013 c 256,9,10
 610 1013 610 1013 713.5 910 c 128,-1,11
 817 807 817 807 817 662 c 256,0,1
EndSplineSet
EndChar

StartChar: registered
Encoding: 174 174 33
Width: 897
Flags: W
LayerCount: 2
Fore
SplineSet
580 445 m 0,0,1
 448 445 448 445 354.5 538.5 c 128,-1,2
 261 632 261 632 261 764 c 256,3,4
 261 896 261 896 354.5 990 c 128,-1,5
 448 1084 448 1084 580 1084 c 0,6,7
 714 1084 714 1084 807 990 c 128,-1,8
 900 896 900 896 900 764 c 256,9,10
 900 632 900 632 806.5 538.5 c 128,-1,11
 713 445 713 445 580 445 c 0,0,1
580 484 m 0,12,13
 695 484 695 484 777.5 567 c 128,-1,14
 860 650 860 650 860 764 c 256,15,16
 860 878 860 878 777.5 961 c 128,-1,17
 695 1044 695 1044 580 1044 c 0,18,19
 466 1044 466 1044 383.5 961 c 128,-1,20
 301 878 301 878 301 764 c 256,21,22
 301 650 301 650 383.5 567 c 128,-1,23
 466 484 466 484 580 484 c 0,12,13
529 737 m 1,24,-1
 501 596 l 1,25,-1
 394 596 l 1,26,-1
 403 639 l 1,27,-1
 456 639 l 1,28,-1
 511 915 l 1,29,-1
 458 915 l 1,30,-1
 466 959 l 1,31,-1
 598 959 l 2,32,33
 751 959 751 959 751 875 c 0,34,35
 751 800 751 800 650 750 c 1,36,-1
 685 639 l 1,37,-1
 747 639 l 1,38,-1
 738 596 l 1,39,-1
 641 596 l 1,40,-1
 591 737 l 1,41,-1
 529 737 l 1,24,-1
538 782 m 1,42,-1
 574 782 l 2,43,44
 697 782 697 782 697 866 c 0,45,46
 697 915 697 915 607 915 c 2,47,-1
 564 915 l 1,48,-1
 538 782 l 1,42,-1
EndSplineSet
EndChar

StartChar: copyright
Encoding: 169 169 34
Width: 1244
Flags: W
LayerCount: 2
Fore
SplineSet
725 -27 m 0,0,1
 495 -27 495 -27 330.5 137 c 128,-1,2
 166 301 166 301 166 533 c 256,3,4
 166 765 166 765 330.5 929 c 128,-1,5
 495 1093 495 1093 725 1093 c 0,6,7
 958 1093 958 1093 1122 929 c 128,-1,8
 1286 765 1286 765 1286 533 c 256,9,10
 1286 301 1286 301 1122 137 c 128,-1,11
 958 -27 958 -27 725 -27 c 0,0,1
725 18 m 0,12,13
 939 18 939 18 1090 169 c 128,-1,14
 1241 320 1241 320 1241 533 c 256,15,16
 1241 746 1241 746 1090 897 c 128,-1,17
 939 1048 939 1048 725 1048 c 0,18,19
 513 1048 513 1048 362 897 c 128,-1,20
 211 746 211 746 211 533 c 256,21,22
 211 320 211 320 362 169 c 128,-1,23
 513 18 513 18 725 18 c 0,12,13
890 246 m 1,24,25
 785 213 785 213 704 213 c 0,26,27
 580 213 580 213 508 279.5 c 128,-1,28
 436 346 436 346 436 462 c 0,29,30
 436 625 436 625 541 734.5 c 128,-1,31
 646 844 646 844 805 844 c 0,32,33
 896 844 896 844 1003 814 c 1,34,-1
 967 675 l 1,35,-1
 915 684 l 1,36,-1
 923 766 l 1,37,38
 854 798 854 798 792 798 c 0,39,40
 688 798 688 798 616 700 c 128,-1,41
 544 602 544 602 544 462 c 0,42,43
 544 271 544 271 722 271 c 0,44,45
 823 271 823 271 902 307 c 1,46,-1
 890 246 l 1,24,25
EndSplineSet
EndChar

StartChar: trademark
Encoding: 8482 8482 35
Width: 1333
Flags: W
LayerCount: 2
Fore
SplineSet
440 1021 m 1,0,-1
 307 1021 l 1,1,-1
 288 923 l 1,2,-1
 225 923 l 1,3,-1
 254 1066 l 1,4,-1
 751 1066 l 1,5,-1
 723 923 l 1,6,-1
 661 923 l 1,7,-1
 679 1021 l 1,8,-1
 546 1021 l 1,9,-1
 456 569 l 1,10,-1
 554 569 l 1,11,-1
 545 524 l 1,12,-1
 243 524 l 1,13,-1
 253 569 l 1,14,-1
 350 569 l 1,15,-1
 440 1021 l 1,0,-1
1011 569 m 1,16,-1
 942 956 l 1,17,-1
 857 524 l 1,18,-1
 688 524 l 1,19,-1
 697 569 l 1,20,-1
 794 569 l 1,21,-1
 884 1021 l 1,22,-1
 787 1021 l 1,23,-1
 796 1066 l 1,24,-1
 1036 1066 l 1,25,-1
 1092 747 l 1,26,-1
 1265 1066 l 1,27,-1
 1481 1066 l 1,28,-1
 1473 1021 l 1,29,-1
 1375 1021 l 1,30,-1
 1285 569 l 1,31,-1
 1383 569 l 1,32,-1
 1373 524 l 1,33,-1
 1178 524 l 1,34,-1
 1270 985 l 1,35,-1
 1041 569 l 1,36,-1
 1011 569 l 1,16,-1
EndSplineSet
EndChar

StartChar: logicalnot
Encoding: 172 172 39
Width: 932
Flags: W
LayerCount: 2
Fore
SplineSet
177 510 m 1,0,-1
 193 590 l 1,1,-1
 975 590 l 1,2,-1
 906 248 l 1,3,-1
 814 248 l 1,4,-1
 866 510 l 1,5,-1
 177 510 l 1,0,-1
EndSplineSet
EndChar

StartChar: florin
Encoding: 402 402 40
Width: 679
Flags: W
LayerCount: 2
Fore
SplineSet
158 -231 m 1,0,-1
 210 -18 l 1,1,-1
 286 364 l 1,2,-1
 108 364 l 1,3,-1
 117 409 l 1,4,-1
 294 409 l 1,5,-1
 298 427 l 2,6,7
 330 586 330 586 463 692.5 c 128,-1,8
 596 799 596 799 761 799 c 0,9,10
 818 799 818 799 860 784 c 1,11,-1
 764 678 l 1,12,13
 712 729 712 729 643 729 c 0,14,15
 500 729 500 729 457 512 c 2,16,-1
 436 409 l 1,17,-1
 623 409 l 1,18,-1
 614 364 l 1,19,-1
 427 364 l 1,20,-1
 313 -213 l 1,21,-1
 158 -231 l 1,0,-1
EndSplineSet
EndChar

StartChar: ellipsis
Encoding: 8230 8230 41
Width: 1827
Flags: W
LayerCount: 2
Fore
SplineSet
758 113 m 0,0,1
 758 144 758 144 809.5 245.5 c 128,-1,2
 861 347 861 347 876 355 c 0,3,4
 907 369 907 369 964.5 307.5 c 128,-1,5
 1022 246 1022 246 1026 211 c 1,6,7
 1026 166 1026 166 977.5 79.5 c 128,-1,8
 929 -7 929 -7 908 -7 c 0,9,10
 899 -7 899 -7 851 26.5 c 128,-1,11
 803 60 803 60 778 79 c 0,12,13
 758 96 758 96 758 113 c 0,0,1
1308 113 m 0,14,15
 1308 144 1308 144 1359 245.5 c 128,-1,16
 1410 347 1410 347 1426 355 c 0,17,18
 1457 369 1457 369 1514.5 307.5 c 128,-1,19
 1572 246 1572 246 1575 211 c 0,20,21
 1575 166 1575 166 1527 79.5 c 128,-1,22
 1479 -7 1479 -7 1458 -7 c 0,23,24
 1449 -7 1449 -7 1401 26.5 c 128,-1,25
 1353 60 1353 60 1328 79 c 0,26,27
 1308 96 1308 96 1308 113 c 0,14,15
211 113 m 0,28,29
 211 144 211 144 262 245.5 c 128,-1,30
 313 347 313 347 329 355 c 0,31,32
 360 369 360 369 417.5 307.5 c 128,-1,33
 475 246 475 246 478 211 c 0,34,35
 478 166 478 166 430 79.5 c 128,-1,36
 382 -7 382 -7 361 -7 c 0,37,38
 352 -7 352 -7 304 26.5 c 128,-1,39
 256 60 256 60 231 79 c 0,40,41
 211 96 211 96 211 113 c 0,28,29
EndSplineSet
EndChar

StartChar: endash
Encoding: 8211 8211 42
Width: 434
Flags: W
LayerCount: 2
Fore
SplineSet
434 154 m 1,0,-1
 0 154 l 1,1,-1
 0 234 l 1,2,-1
 434 234 l 1,3,-1
 434 154 l 1,0,-1
EndSplineSet
EndChar

StartChar: emdash
Encoding: 8212 8212 43
Width: 1862
Flags: W
LayerCount: 2
Fore
SplineSet
1866 572 m 1,0,-1
 -4 572 l 1,1,-1
 -4 732 l 1,2,-1
 1866 732 l 1,3,-1
 1866 572 l 1,0,-1
EndSplineSet
EndChar

StartChar: quotedblleft
Encoding: 8220 8220 44
Width: 613
Flags: W
LayerCount: 2
Fore
SplineSet
340 993 m 0,0,1
 341 1058 341 1058 385 1121.5 c 128,-1,2
 429 1185 429 1185 483 1211 c 1,3,-1
 514 1153 l 1,4,5
 498 1144 498 1144 476 1120 c 128,-1,6
 454 1096 454 1096 444 1058 c 1,7,8
 510 1030 510 1030 507 975 c 0,9,10
 507 959 507 959 500.5 944.5 c 128,-1,11
 494 930 494 930 483.5 919 c 128,-1,12
 473 908 473 908 458 901.5 c 128,-1,13
 443 895 443 895 427 895 c 0,14,15
 406 895 406 895 390 903.5 c 128,-1,16
 374 912 374 912 363 925.5 c 128,-1,17
 352 939 352 939 346 957 c 128,-1,18
 340 975 340 975 340 993 c 0,0,1
121 993 m 0,19,20
 122 1058 122 1058 166 1121.5 c 128,-1,21
 210 1185 210 1185 265 1211 c 1,22,-1
 296 1153 l 1,23,24
 280 1144 280 1144 258 1120 c 128,-1,25
 236 1096 236 1096 226 1058 c 1,26,27
 292 1030 292 1030 289 975 c 0,28,29
 289 959 289 959 282.5 944.5 c 128,-1,30
 276 930 276 930 265 919 c 128,-1,31
 254 908 254 908 239 901.5 c 128,-1,32
 224 895 224 895 208 895 c 0,33,34
 188 895 188 895 171.5 903.5 c 128,-1,35
 155 912 155 912 144 925.5 c 128,-1,36
 133 939 133 939 127 957 c 128,-1,37
 121 975 121 975 121 993 c 0,19,20
EndSplineSet
EndChar

StartChar: quotedblright
Encoding: 8221 8221 45
Width: 597
Flags: W
LayerCount: 2
Fore
SplineSet
295 1113 m 0,0,1
 294 1048 294 1048 250 984.5 c 128,-1,2
 206 921 206 921 152 895 c 1,3,-1
 121 953 l 1,4,5
 137 962 137 962 159 986 c 128,-1,6
 181 1010 181 1010 191 1048 c 1,7,8
 125 1076 125 1076 128 1131 c 0,9,10
 128 1147 128 1147 134.5 1161.5 c 128,-1,11
 141 1176 141 1176 151.5 1187 c 128,-1,12
 162 1198 162 1198 176.5 1204.5 c 128,-1,13
 191 1211 191 1211 208 1211 c 0,14,15
 229 1211 229 1211 245 1202.5 c 128,-1,16
 261 1194 261 1194 272 1180.5 c 128,-1,17
 283 1167 283 1167 289 1149 c 128,-1,18
 295 1131 295 1131 295 1113 c 0,0,1
514 1113 m 0,19,20
 513 1048 513 1048 469 984.5 c 128,-1,21
 425 921 425 921 370 895 c 1,22,-1
 339 953 l 1,23,24
 355 962 355 962 377 986 c 128,-1,25
 399 1010 399 1010 409 1048 c 1,26,27
 343 1076 343 1076 346 1131 c 0,28,29
 346 1147 346 1147 352.5 1161.5 c 128,-1,30
 359 1176 359 1176 370 1187 c 128,-1,31
 381 1198 381 1198 395.5 1204.5 c 128,-1,32
 410 1211 410 1211 427 1211 c 0,33,34
 447 1211 447 1211 463 1202.5 c 128,-1,35
 479 1194 479 1194 490.5 1180.5 c 128,-1,36
 502 1167 502 1167 508 1149 c 128,-1,37
 514 1131 514 1131 514 1113 c 0,19,20
EndSplineSet
EndChar

StartChar: divide
Encoding: 247 247 46
Width: 1093
Flags: W
LayerCount: 2
Fore
SplineSet
624 674 m 1,0,-1
 466 674 l 1,1,-1
 466 855 l 1,2,-1
 624 855 l 1,3,-1
 624 674 l 1,0,-1
933 383 m 1,4,-1
 157 383 l 1,5,-1
 157 489 l 1,6,-1
 933 489 l 1,7,-1
 933 383 l 1,4,-1
624 17 m 1,8,-1
 466 17 l 1,9,-1
 466 198 l 1,10,-1
 624 198 l 1,11,-1
 624 17 l 1,8,-1
EndSplineSet
EndChar

StartChar: lozenge
Encoding: 9674 9674 47
Width: 1118
Flags: W
LayerCount: 2
Fore
SplineSet
1003 699 m 1,0,-1
 560 197 l 1,1,-1
 117 699 l 1,2,-1
 560 1202 l 1,3,-1
 1003 699 l 1,0,-1
848 699 m 1,4,-1
 560 1036 l 1,5,-1
 271 699 l 1,6,-1
 560 364 l 1,7,-1
 848 699 l 1,4,-1
EndSplineSet
EndChar

StartChar: fraction
Encoding: 8260 8260 48
Width: 742
Flags: W
LayerCount: 2
Fore
SplineSet
740 1101 m 1,0,-1
 101 -82 l 1,1,-1
 -9 -82 l 1,2,-1
 629 1101 l 1,3,-1
 740 1101 l 1,0,-1
EndSplineSet
EndChar

StartChar: guilsinglleft
Encoding: 8249 8249 49
Width: 1117
Flags: W
LayerCount: 2
Fore
SplineSet
955 58 m 1,0,-1
 150 444 l 1,1,-1
 150 534 l 1,2,-1
 955 918 l 1,3,-1
 955 784 l 1,4,-1
 331 489 l 1,5,-1
 955 192 l 1,6,-1
 955 58 l 1,0,-1
EndSplineSet
EndChar

StartChar: daggerdbl
Encoding: 8225 8225 52
Width: 932
Flags: W
LayerCount: 2
Fore
SplineSet
349 -231 m 1,0,-1
 481 185 l 1,1,-1
 161 154 l 1,2,-1
 211 261 l 1,3,-1
 490 229 l 1,4,-1
 567 616 l 1,5,-1
 247 586 l 1,6,-1
 297 693 l 1,7,-1
 575 661 l 1,8,-1
 608 1066 l 1,9,-1
 758 1093 l 1,10,-1
 620 661 l 1,11,-1
 940 693 l 1,12,-1
 889 586 l 1,13,-1
 611 616 l 1,14,-1
 535 229 l 1,15,-1
 855 261 l 1,16,-1
 804 154 l 1,17,-1
 525 185 l 1,18,-1
 499 -213 l 1,19,-1
 349 -231 l 1,0,-1
EndSplineSet
EndChar

StartChar: middot.001
Encoding: 8729 8729 53
Width: 620
Flags: W
LayerCount: 2
Fore
SplineSet
429 516 m 1,0,-1
 190 516 l 1,1,-1
 190 789 l 1,2,-1
 429 789 l 1,3,-1
 429 516 l 1,0,-1
EndSplineSet
EndChar

StartChar: quotesinglbase
Encoding: 8218 8218 54
Width: 418
Flags: W
LayerCount: 2
Fore
SplineSet
103 128 m 1,0,-1
 247 231 l 1,1,-1
 353 90 l 1,2,3
 345 -56 345 -56 262.5 -134.5 c 128,-1,4
 180 -213 180 -213 36 -213 c 1,5,-1
 76 -168 l 1,6,7
 189 -158 189 -158 211 -18 c 1,8,-1
 103 128 l 1,0,-1
EndSplineSet
EndChar

StartChar: quotedblbase
Encoding: 8222 8222 55
Width: 684
Flags: W
LayerCount: 2
Fore
SplineSet
91 92 m 1,0,-1
 204 178 l 1,1,-1
 292 64 l 1,2,3
 270 -213 270 -213 31 -213 c 1,4,-1
 60 -168 l 1,5,6
 166 -148 166 -148 179 -16 c 1,7,-1
 91 92 l 1,0,-1
401 92 m 1,8,-1
 516 178 l 1,9,-1
 602 64 l 1,10,11
 581 -213 581 -213 341 -213 c 1,12,-1
 372 -168 l 1,13,14
 476 -148 476 -148 490 -16 c 1,15,-1
 401 92 l 1,8,-1
EndSplineSet
EndChar

StartChar: perthousand
Encoding: 8240 8240 56
Width: 1571
Flags: W
LayerCount: 2
Fore
SplineSet
385 533 m 0,0,1
 304 533 304 533 254.5 584.5 c 128,-1,2
 205 636 205 636 205 722 c 0,3,4
 205 865 205 865 286.5 965.5 c 128,-1,5
 368 1066 368 1066 483 1066 c 0,6,7
 567 1066 567 1066 617.5 1014.5 c 128,-1,8
 668 963 668 963 668 877 c 0,9,10
 668 733 668 733 585.5 633 c 128,-1,11
 503 533 503 533 385 533 c 0,0,1
311 715 m 0,12,13
 311 578 311 578 398 578 c 0,14,15
 463 578 463 578 517 671.5 c 128,-1,16
 571 765 571 765 571 881 c 0,17,18
 571 1022 571 1022 483 1022 c 0,19,20
 416 1022 416 1022 363.5 928 c 128,-1,21
 311 834 311 834 311 715 c 0,12,13
850 0 m 0,22,23
 769 0 769 0 719.5 51.5 c 128,-1,24
 670 103 670 103 670 189 c 0,25,26
 670 331 670 331 751 432 c 128,-1,27
 832 533 832 533 947 533 c 0,28,29
 1031 533 1031 533 1081.5 481.5 c 128,-1,30
 1132 430 1132 430 1132 344 c 0,31,32
 1132 200 1132 200 1049.5 100 c 128,-1,33
 967 0 967 0 850 0 c 0,22,23
776 182 m 0,34,35
 776 44 776 44 862 44 c 0,36,37
 929 44 929 44 982 138 c 128,-1,38
 1035 232 1035 232 1035 348 c 0,39,40
 1035 490 1035 490 948 490 c 0,41,42
 880 490 880 490 828 395.5 c 128,-1,43
 776 301 776 301 776 182 c 0,34,35
131 -27 m 1,44,-1
 1111 1093 l 1,45,-1
 1206 1093 l 1,46,-1
 225 -27 l 1,47,-1
 131 -27 l 1,44,-1
1376 0 m 0,48,49
 1294 0 1294 0 1244.5 51.5 c 128,-1,50
 1195 103 1195 103 1195 189 c 0,51,52
 1195 331 1195 331 1276.5 432 c 128,-1,53
 1358 533 1358 533 1473 533 c 0,54,55
 1557 533 1557 533 1607.5 481.5 c 128,-1,56
 1658 430 1658 430 1658 344 c 0,57,58
 1658 200 1658 200 1575.5 100 c 128,-1,59
 1493 0 1493 0 1376 0 c 0,48,49
1301 183 m 0,60,61
 1301 44 1301 44 1389 44 c 0,62,63
 1453 44 1453 44 1507 138 c 128,-1,64
 1561 232 1561 232 1561 347 c 0,65,66
 1561 490 1561 490 1473 490 c 0,67,68
 1406 490 1406 490 1353.5 395.5 c 128,-1,69
 1301 301 1301 301 1301 183 c 0,60,61
EndSplineSet
EndChar

StartChar: multiply
Encoding: 215 215 60
Width: 856
Flags: W
LayerCount: 2
Fore
SplineSet
636 234 m 1,0,-1
 416 454 l 1,1,-1
 198 236 l 1,2,-1
 118 316 l 1,3,-1
 336 534 l 1,4,-1
 118 752 l 1,5,-1
 201 836 l 1,6,-1
 420 617 l 1,7,-1
 640 837 l 1,8,-1
 720 757 l 1,9,-1
 500 537 l 1,10,-1
 720 318 l 1,11,-1
 636 234 l 1,0,-1
EndSplineSet
EndChar

StartChar: macron
Encoding: 175 175 61
Width: 1118
Flags: W
LayerCount: 2
Fore
SplineSet
1134 1259 m 1,0,-1
 -16 1259 l 1,1,-1
 -16 1389 l 1,2,-1
 1134 1389 l 1,3,-1
 1134 1259 l 1,0,-1
EndSplineSet
EndChar

StartChar: periodcentered
Encoding: 183 183 62
Width: 724
Flags: W
LayerCount: 2
Fore
SplineSet
482 832 m 1,0,-1
 243 832 l 1,1,-1
 243 1117 l 1,2,-1
 482 1117 l 1,3,-1
 482 832 l 1,0,-1
EndSplineSet
EndChar

StartChar: H22073
Encoding: 9633 9633 63
Width: 1237
Flags: W
LayerCount: 2
Fore
SplineSet
146 944 m 1,0,-1
 1090 944 l 1,1,-1
 1090 0 l 1,2,-1
 146 0 l 1,3,-1
 146 944 l 1,0,-1
222 868 m 1,4,-1
 222 76 l 1,5,-1
 1014 76 l 1,6,-1
 1014 868 l 1,7,-1
 222 868 l 1,4,-1
EndSplineSet
EndChar

StartChar: H18543
Encoding: 9642 9642 64
Width: 1089
Flags: W
LayerCount: 2
Fore
SplineSet
886 894 m 1,0,-1
 886 200 l 1,1,-1
 192 200 l 1,2,-1
 192 894 l 1,3,-1
 886 894 l 1,0,-1
EndSplineSet
EndChar

StartChar: H18551
Encoding: 9643 9643 65
Width: 1089
Flags: W
LayerCount: 2
Fore
SplineSet
888 930 m 1,0,-1
 888 235 l 1,1,-1
 193 235 l 1,2,-1
 193 930 l 1,3,-1
 888 930 l 1,0,-1
774 816 m 1,4,-1
 307 816 l 1,5,-1
 307 349 l 1,6,-1
 774 349 l 1,7,-1
 774 816 l 1,4,-1
EndSplineSet
EndChar

StartChar: H18533
Encoding: 9679 9679 66
Width: 1339
Flags: W
LayerCount: 2
Fore
SplineSet
204 775 m 0,0,1
 204 976 204 976 345 1117 c 128,-1,2
 486 1258 486 1258 685 1258 c 0,3,4
 885 1258 885 1258 1026 1117 c 128,-1,5
 1167 976 1167 976 1167 775 c 0,6,7
 1167 577 1167 577 1026 436 c 128,-1,8
 885 295 885 295 685 295 c 0,9,10
 486 295 486 295 345 436 c 128,-1,11
 204 577 204 577 204 775 c 0,0,1
EndSplineSet
EndChar

StartChar: openbullet
Encoding: 9702 9702 67
Width: 1089
Flags: W
LayerCount: 2
Fore
SplineSet
544 1392 m 0,0,1
 700 1392 700 1392 810.5 1281.5 c 128,-1,2
 921 1171 921 1171 921 1015 c 256,3,4
 921 859 921 859 810.5 749 c 128,-1,5
 700 639 700 639 544 639 c 256,6,7
 388 639 388 639 278 749 c 128,-1,8
 168 859 168 859 168 1015 c 256,9,10
 168 1171 168 1171 277.5 1281.5 c 128,-1,11
 387 1392 387 1392 544 1392 c 0,0,1
544 1278 m 0,12,13
 435 1278 435 1278 358.5 1200.5 c 128,-1,14
 282 1123 282 1123 282 1015 c 0,15,16
 282 906 282 906 359 829.5 c 128,-1,17
 436 753 436 753 544 753 c 256,18,19
 652 753 652 753 729.5 829.5 c 128,-1,20
 807 906 807 906 807 1015 c 0,21,22
 807 1123 807 1123 730.5 1200.5 c 128,-1,23
 654 1278 654 1278 544 1278 c 0,12,13
EndSplineSet
EndChar

StartChar: uniFFFC
Encoding: 65532 65532 68
Width: 2048
Flags: W
LayerCount: 2
Fore
SplineSet
2048 1150 m 1,0,-1
 1948 1150 l 1,1,-1
 1948 1373 l 1,2,-1
 1725 1373 l 1,3,-1
 1725 1473 l 1,4,-1
 2048 1473 l 1,5,-1
 2048 1150 l 1,0,-1
1473 1373 m 1,6,-1
 1150 1373 l 1,7,-1
 1150 1473 l 1,8,-1
 1473 1473 l 1,9,-1
 1473 1373 l 1,6,-1
2048 575 m 1,10,-1
 1948 575 l 1,11,-1
 1948 898 l 1,12,-1
 2048 898 l 1,13,-1
 2048 575 l 1,10,-1
1782 611 m 2,14,15
 1782 370 1782 370 1571 370 c 0,16,17
 1485 370 1485 370 1433 415 c 1,18,-1
 1506 494 l 1,19,20
 1531 468 1531 468 1571 468 c 0,21,22
 1666 468 1666 468 1666 606 c 2,23,-1
 1666 1090 l 1,24,-1
 1782 1090 l 1,25,-1
 1782 611 l 2,14,15
898 1373 m 1,26,-1
 575 1373 l 1,27,-1
 575 1473 l 1,28,-1
 898 1473 l 1,29,-1
 898 1373 l 1,26,-1
2048 0 m 1,30,-1
 1725 0 l 1,31,-1
 1725 100 l 1,32,-1
 1948 100 l 1,33,-1
 1948 323 l 1,34,-1
 2048 323 l 1,35,-1
 2048 0 l 1,30,-1
1423 591 m 0,36,37
 1423 382 1423 382 1149 382 c 2,38,-1
 909 382 l 1,39,-1
 909 1090 l 1,40,-1
 1144 1090 l 2,41,42
 1393 1090 1393 1090 1393 904 c 0,43,44
 1393 813 1393 813 1304 759 c 1,45,46
 1423 713 1423 713 1423 591 c 0,36,37
323 1373 m 1,47,-1
 100 1373 l 1,48,-1
 100 1150 l 1,49,-1
 0 1150 l 1,50,-1
 0 1473 l 1,51,-1
 323 1473 l 1,52,-1
 323 1373 l 1,47,-1
1473 0 m 1,53,-1
 1150 0 l 1,54,-1
 1150 100 l 1,55,-1
 1473 100 l 1,56,-1
 1473 0 l 1,53,-1
854 735 m 0,57,58
 854 562 854 562 772 466 c 128,-1,59
 690 370 690 370 537 370 c 256,60,61
 384 370 384 370 303.5 466 c 128,-1,62
 223 562 223 562 223 735 c 0,63,64
 223 910 223 910 303.5 1006 c 128,-1,65
 384 1102 384 1102 537 1102 c 256,66,67
 690 1102 690 1102 772 1006 c 128,-1,68
 854 910 854 910 854 735 c 0,57,58
100 575 m 1,69,-1
 0 575 l 1,70,-1
 0 898 l 1,71,-1
 100 898 l 1,72,-1
 100 575 l 1,69,-1
898 0 m 1,73,-1
 575 0 l 1,74,-1
 575 100 l 1,75,-1
 898 100 l 1,76,-1
 898 0 l 1,73,-1
323 0 m 1,77,-1
 0 0 l 1,78,-1
 0 323 l 1,79,-1
 100 323 l 1,80,-1
 100 100 l 1,81,-1
 323 100 l 1,82,-1
 323 0 l 1,77,-1
1277 893 m 0,83,84
 1277 992 1277 992 1114 992 c 2,85,-1
 1025 992 l 1,86,-1
 1025 798 l 1,87,-1
 1126 798 l 2,88,89
 1277 798 1277 798 1277 893 c 0,83,84
1307 591 m 0,90,91
 1307 700 1307 700 1136 700 c 2,92,-1
 1025 700 l 1,93,-1
 1025 480 l 1,94,-1
 1149 480 l 2,95,96
 1307 480 1307 480 1307 591 c 0,90,91
738 735 m 0,97,98
 738 1004 738 1004 537 1004 c 0,99,100
 339 1004 339 1004 339 735 c 0,101,102
 339 468 339 468 537 468 c 0,103,104
 738 468 738 468 738 735 c 0,97,98
EndSplineSet
EndChar

StartChar: zerowidthnonjoiner
Encoding: 8204 8204 88
Width: 0
GlyphClass: 2
Flags: W
LayerCount: 2
Fore
SplineSet
36 1289 m 1,0,-1
 36 -275 l 1,1,-1
 -36 -275 l 1,2,-1
 -36 1289 l 1,3,-1
 36 1289 l 1,0,-1
EndSplineSet
EndChar

StartChar: zerowidthjoiner
Encoding: 8205 8205 89
Width: 0
GlyphClass: 2
Flags: W
LayerCount: 2
Fore
SplineSet
36 -275 m 1,0,-1
 -36 -275 l 1,1,-1
 -36 1114 l 1,2,-1
 -170 978 l 1,3,-1
 -219 1027 l 1,4,-1
 -48 1196 l 1,5,-1
 -219 1364 l 1,6,-1
 -170 1413 l 1,7,-1
 0 1242 l 1,8,-1
 170 1413 l 1,9,-1
 219 1364 l 1,10,-1
 48 1196 l 1,11,-1
 219 1027 l 1,12,-1
 170 978 l 1,13,-1
 36 1114 l 1,14,-1
 36 -275 l 1,0,-1
EndSplineSet
EndChar

StartChar: lefttorightmark
Encoding: 8206 8206 90
Width: 0
GlyphClass: 2
Flags: W
LayerCount: 2
Fore
SplineSet
430 1198 m 1,0,-1
 213 984 l 1,1,-1
 164 1033 l 1,2,-1
 301 1163 l 1,3,-1
 35 1163 l 1,4,-1
 35 -275 l 1,5,-1
 -36 -275 l 1,6,-1
 -36 1234 l 1,7,-1
 301 1234 l 1,8,-1
 164 1364 l 1,9,-1
 213 1413 l 1,10,-1
 430 1198 l 1,0,-1
EndSplineSet
EndChar

StartChar: righttoleftmark
Encoding: 8207 8207 91
Width: 0
GlyphClass: 2
Flags: W
LayerCount: 2
Fore
SplineSet
35 -275 m 1,0,-1
 -36 -275 l 1,1,-1
 -36 1163 l 1,2,-1
 -302 1163 l 1,3,-1
 -165 1033 l 1,4,-1
 -214 984 l 1,5,-1
 -431 1198 l 1,6,-1
 -214 1413 l 1,7,-1
 -165 1364 l 1,8,-1
 -302 1234 l 1,9,-1
 35 1234 l 1,10,-1
 35 -275 l 1,0,-1
EndSplineSet
EndChar

StartChar: afii57388.001
Encoding: 1644 1644 92
Width: 353
GlyphClass: 2
Flags: W
LayerCount: 2
Fore
SplineSet
210 654 m 0,0,1
 200 627 200 627 185 603 c 0,2,3
 180 597 180 597 173.5 593.5 c 128,-1,4
 167 590 167 590 162 590 c 128,-1,5
 157 590 157 590 154.5 593 c 128,-1,6
 152 596 152 596 155 603 c 0,7,8
 187 660 187 660 202.5 713.5 c 128,-1,9
 218 767 218 767 218 800 c 1,10,11
 194 806 194 806 179 816 c 128,-1,12
 164 826 164 826 155 837.5 c 128,-1,13
 146 849 146 849 143 859 c 128,-1,14
 140 869 140 869 140 874 c 0,15,16
 140 890 140 890 145.5 907 c 128,-1,17
 151 924 151 924 160.5 937.5 c 128,-1,18
 170 951 170 951 183.5 959.5 c 128,-1,19
 197 968 197 968 213 968 c 0,20,21
 272 968 272 968 272 874 c 0,22,23
 272 859 272 859 268 835 c 128,-1,24
 264 811 264 811 256 781.5 c 128,-1,25
 248 752 248 752 236.5 719.5 c 128,-1,26
 225 687 225 687 210 654 c 0,0,1
EndSplineSet
EndChar

StartChar: afii57409
Encoding: 1569 1569 93
Width: 670
GlyphClass: 2
Flags: W
AnchorPoint: "Anchor-1" 375 -315 basechar 0
AnchorPoint: "Anchor-0" 405 750 basechar 0
LayerCount: 2
Fore
SplineSet
634 247 m 1,0,1
 627 216 627 216 590 137 c 1,2,3
 369 113 369 113 158 -7 c 1,4,5
 160 19 160 19 169 66 c 1,6,7
 181 92 181 92 312 154 c 1,8,9
 206 210 206 210 206 269 c 0,10,11
 206 339 206 339 290.5 418 c 128,-1,12
 375 497 375 497 446 497 c 0,13,14
 481 497 481 497 516 474 c 128,-1,15
 551 451 551 451 563 419 c 0,16,17
 569 404 569 404 569 391 c 0,18,19
 569 364 569 364 544 364 c 0,20,21
 530 364 530 364 486.5 380 c 128,-1,22
 443 396 443 396 416 396 c 0,23,24
 387 396 387 396 343 375 c 0,25,26
 294 351 294 351 294 326 c 0,27,28
 294 303 294 303 326 271 c 0,29,30
 355 243 355 243 381 233 c 0,31,32
 414 220 414 220 455 220 c 0,33,34
 490 220 490 220 545 231 c 0,35,36
 616 245 616 245 634 247 c 1,0,1
EndSplineSet
EndChar

StartChar: afii57440
Encoding: 1600 1600 94
Width: 618
GlyphClass: 2
Flags: W
LayerCount: 2
Fore
SplineSet
642 0 m 1,0,-1
 -23 0 l 1,1,-1
 -23 148 l 1,2,-1
 642 148 l 1,3,-1
 642 0 l 1,0,-1
EndSplineSet
EndChar

StartChar: afii57453
Encoding: 1613 1613 95
Width: 0
GlyphClass: 4
Flags: W
AnchorPoint: "Anchor-3" 0 0 mark 0
AnchorPoint: "Anchor-1" 0 0 mark 0
LayerCount: 2
Fore
SplineSet
151 21 m 1,0,-1
 -177 -150 l 1,1,-1
 -154 -61 l 1,2,-1
 174 109 l 1,3,-1
 151 21 l 1,0,-1
161 172 m 1,4,-1
 -167 1 l 1,5,-1
 -144 90 l 1,6,-1
 184 260 l 1,7,-1
 161 172 l 1,4,-1
EndSplineSet
EndChar

StartChar: afii57381
Encoding: 1642 1642 96
Width: 894
GlyphClass: 2
Flags: W
LayerCount: 2
Fore
SplineSet
231 1024 m 0,0,1
 231 989 231 989 207.5 966 c 128,-1,2
 184 943 184 943 149 943 c 0,3,4
 115 943 115 943 92 966.5 c 128,-1,5
 69 990 69 990 69 1024 c 0,6,7
 69 1057 69 1057 92.5 1080.5 c 128,-1,8
 116 1104 116 1104 149 1104 c 0,9,10
 183 1104 183 1104 207 1081 c 128,-1,11
 231 1058 231 1058 231 1024 c 0,0,1
714 1196 m 1,12,-1
 252 -122 l 1,13,-1
 196 -102 l 1,14,-1
 661 1216 l 1,15,-1
 714 1196 l 1,12,-1
819 70 m 256,16,17
 819 36 819 36 796 12.5 c 128,-1,18
 773 -11 773 -11 739 -11 c 256,19,20
 705 -11 705 -11 681.5 12.5 c 128,-1,21
 658 36 658 36 658 70 c 256,22,23
 658 104 658 104 681.5 127.5 c 128,-1,24
 705 151 705 151 739 151 c 256,25,26
 773 151 773 151 796 127.5 c 128,-1,27
 819 104 819 104 819 70 c 256,16,17
EndSplineSet
EndChar

StartChar: afii57461
Encoding: 1643 1643 97
Width: 478
GlyphClass: 2
Flags: W
LayerCount: 2
Fore
SplineSet
478 531 m 1,0,-1
 75 -372 l 1,1,-1
 19 -352 l 1,2,-1
 425 551 l 1,3,-1
 478 531 l 1,0,-1
EndSplineSet
EndChar

StartChar: afii63167
Encoding: 1645 1645 98
Width: 1118
GlyphClass: 2
Flags: W
LayerCount: 2
Fore
SplineSet
694 729 m 1,0,-1
 1057 733 l 1,1,-1
 1057 610 l 1,2,-1
 702 612 l 1,3,-1
 971 352 l 1,4,-1
 883 264 l 1,5,-1
 616 539 l 1,6,-1
 623 168 l 1,7,-1
 498 168 l 1,8,-1
 502 539 l 1,9,-1
 236 264 l 1,10,-1
 147 352 l 1,11,-1
 422 614 l 1,12,-1
 63 610 l 1,13,-1
 63 733 l 1,14,-1
 420 729 l 1,15,-1
 170 975 l 1,16,-1
 258 1065 l 1,17,-1
 502 817 l 1,18,-1
 498 1176 l 1,19,-1
 623 1176 l 1,20,-1
 616 813 l 1,21,-1
 860 1065 l 1,22,-1
 948 975 l 1,23,-1
 694 729 l 1,0,-1
EndSplineSet
EndChar

StartChar: afii57459
Encoding: 65543 -1 99
Width: 551
GlyphClass: 2
Flags: W
LayerCount: 2
Fore
SplineSet
522 363 m 2,0,-1
 522 311 l 2,1,2
 522 185 522 185 484 130 c 0,3,4
 395 1 395 1 154 1 c 2,5,-1
 -70 1 l 1,6,-1
 -70 149 l 1,7,-1
 101 149 l 2,8,9
 429 149 429 149 458 256 c 0,10,11
 461 267 461 267 461 282 c 0,12,13
 461 312 461 312 450 331 c 1,14,15
 368 314 368 314 280 314 c 0,16,17
 101 314 101 314 100 463 c 0,18,19
 99 567 99 567 149 665 c 0,20,21
 208 784 208 784 303 784 c 0,22,23
 386 784 386 784 450 677 c 0,24,25
 522 556 522 556 522 363 c 2,0,-1
425 474 m 1,26,27
 425 534 425 534 382 584.5 c 128,-1,28
 339 635 339 635 280 635 c 0,29,30
 237 635 237 635 209 608 c 128,-1,31
 181 581 181 581 180 539 c 0,32,33
 179 459 179 459 303 457 c 0,34,35
 357 456 357 456 425 474 c 1,26,27
EndSplineSet
EndChar

StartChar: afii57543
Encoding: 65544 -1 100
Width: 630
Flags: W
LayerCount: 2
Fore
SplineSet
630 0 m 1,0,-1
 558 0 l 2,1,2
 381 0 381 0 321 116 c 1,3,4
 255 0 255 0 57 0 c 2,5,-1
 -70 0 l 1,6,-1
 -70 148 l 1,7,-1
 88 148 l 2,8,9
 275 148 275 148 292 293 c 0,10,11
 299 351 299 351 321 351 c 256,12,13
 343 351 343 351 349 291 c 0,14,15
 362 148 362 148 543 148 c 2,16,-1
 630 148 l 1,17,-1
 630 0 l 1,0,-1
EndSplineSet
EndChar

StartChar: afii57534
Encoding: 1749 1749 101
Width: 685
GlyphClass: 2
Flags: W
LayerCount: 2
Fore
SplineSet
640 270 m 0,0,1
 640 139 640 139 558 66 c 0,2,3
 480 -3 480 -3 349 -3 c 0,4,5
 268 -3 268 -3 213 46 c 0,6,7
 155 97 155 97 155 177 c 0,8,9
 155 266 155 266 231 398 c 0,10,11
 297 512 297 512 377 592 c 1,12,13
 640 455 640 455 640 270 c 0,0,1
567 218 m 0,14,15
 567 271 567 271 482 351 c 0,16,17
 406 422 406 422 347 444 c 1,18,19
 247 317 247 317 247 241 c 0,20,21
 247 199 247 199 289 171.5 c 128,-1,22
 331 144 331 144 382 144 c 0,23,24
 465 144 465 144 522 175 c 0,25,26
 567 199 567 199 567 218 c 0,14,15
EndSplineSet
EndChar

StartChar: afii64240
Encoding: 65546 -1 103
Width: 356
Flags: W
LayerCount: 2
Fore
SplineSet
271 101 m 1,0,-1
 167 -3 l 1,1,-1
 62 102 l 1,2,-1
 166 206 l 1,3,-1
 271 101 l 1,0,-1
EndSplineSet
EndChar

StartChar: afii64241
Encoding: 65547 -1 104
Width: 529
Flags: W
LayerCount: 2
Fore
SplineSet
468 101 m 1,0,-1
 369 3 l 1,1,-1
 270 102 l 1,2,-1
 368 201 l 1,3,-1
 468 101 l 1,0,-1
249 101 m 1,4,-1
 150 3 l 1,5,-1
 50 102 l 1,6,-1
 149 201 l 1,7,-1
 249 101 l 1,4,-1
EndSplineSet
EndChar

StartChar: afii63954
Encoding: 65548 -1 105
Width: 582
Flags: W
LayerCount: 2
Fore
SplineSet
403 291 m 1,0,-1
 310 198 l 1,1,-1
 215 292 l 1,2,-1
 309 385 l 1,3,-1
 403 291 l 1,0,-1
518 91 m 1,4,-1
 424 -2 l 1,5,-1
 330 92 l 1,6,-1
 423 185 l 1,7,-1
 518 91 l 1,4,-1
290 91 m 1,8,-1
 197 -2 l 1,9,-1
 102 92 l 1,10,-1
 196 185 l 1,11,-1
 290 91 l 1,8,-1
EndSplineSet
EndChar

StartChar: afii57382
Encoding: 65549 -1 106
Width: 495
Flags: W
LayerCount: 2
Fore
SplineSet
257 -392 m 1,0,-1
 163 -299 l 1,1,-1
 258 -205 l 1,2,-1
 351 -298 l 1,3,-1
 257 -392 l 1,0,-1
371 -192 m 1,4,-1
 278 -99 l 1,5,-1
 372 -5 l 1,6,-1
 466 -98 l 1,7,-1
 371 -192 l 1,4,-1
144 -192 m 1,8,-1
 50 -99 l 1,9,-1
 145 -5 l 1,10,-1
 238 -98 l 1,11,-1
 144 -192 l 1,8,-1
EndSplineSet
EndChar

StartChar: afii64242
Encoding: 65550 -1 107
Width: 372
Flags: W
LayerCount: 2
Fore
SplineSet
332 254 m 0,0,1
 332 0 332 0 79 0 c 2,2,-1
 -70 0 l 1,3,-1
 -70 148 l 1,4,-1
 61 148 l 2,5,6
 252 148 252 148 252 217 c 0,7,8
 252 265 252 265 165 376 c 1,9,-1
 217 502 l 2,10,11
 225 521 225 521 230 521 c 256,12,13
 235 521 235 521 251 498 c 0,14,15
 332 379 332 379 332 254 c 0,0,1
EndSplineSet
EndChar

StartChar: afii57373
Encoding: 65551 -1 112
Width: 400
Flags: W
LayerCount: 2
Fore
SplineSet
328 1377 m 2,0,-1
 312 1314 l 1,1,2
 173 1287 173 1287 25 1234 c 1,3,-1
 25 1281 l 1,4,5
 37 1289 37 1289 58 1300.5 c 128,-1,6
 79 1312 79 1312 108 1328 c 1,7,8
 27 1383 27 1383 27 1422 c 0,9,10
 27 1460 27 1460 80 1522 c 0,11,12
 138 1591 138 1591 191 1591 c 0,13,14
 260 1591 260 1591 290 1527 c 0,15,16
 295 1514 295 1514 295 1508 c 0,17,18
 295 1495 295 1495 280 1495 c 0,19,20
 274 1495 274 1495 265 1498 c 0,21,22
 230 1511 230 1511 182 1511 c 0,23,24
 171 1511 171 1511 157 1507 c 128,-1,25
 143 1503 143 1503 131 1496.5 c 128,-1,26
 119 1490 119 1490 111 1481.5 c 128,-1,27
 103 1473 103 1473 103 1464 c 0,28,29
 103 1449 103 1449 114 1434 c 128,-1,30
 125 1419 125 1419 143.5 1407 c 128,-1,31
 162 1395 162 1395 186 1387 c 128,-1,32
 210 1379 210 1379 237 1379 c 0,33,34
 252 1379 252 1379 270 1382 c 128,-1,35
 288 1385 288 1385 310 1390 c 0,36,37
 314 1392 314 1392 317.5 1392 c 128,-1,38
 321 1392 321 1392 323 1392 c 0,39,40
 329 1392 329 1392 329 1386 c 0,41,42
 329 1381 329 1381 328 1377 c 2,0,-1
EndSplineSet
EndChar

StartChar: afii57374
Encoding: 65552 -1 113
Width: 692
GlyphClass: 2
Flags: W
LayerCount: 2
Fore
SplineSet
692 0 m 1,0,-1
 653 0 l 2,1,2
 591 0 591 0 505 23 c 0,3,4
 411 47 411 47 368 80 c 1,5,6
 324 51 324 51 253 29 c 0,7,8
 161 0 161 0 67 0 c 2,9,-1
 -70 0 l 1,10,-1
 -70 148 l 1,11,-1
 34 148 l 2,12,13
 184 148 184 148 231 170 c 1,14,15
 203 191 203 191 181 235.5 c 128,-1,16
 159 280 159 280 159 316 c 0,17,18
 159 396 159 396 224 502 c 0,19,20
 300 626 300 626 395 626 c 0,21,22
 487 626 487 626 535 527 c 0,23,24
 572 451 572 451 573 348 c 0,25,26
 574 281 574 281 541 229 c 0,27,28
 523 200 523 200 486 172 c 1,29,30
 532 148 532 148 668 148 c 2,31,-1
 692 148 l 1,32,-1
 692 0 l 1,0,-1
499 329 m 0,33,34
 499 374 499 374 460 425.5 c 128,-1,35
 421 477 421 477 377 478 c 0,36,37
 335 479 335 479 287 434.5 c 128,-1,38
 239 390 239 390 238 348 c 0,39,40
 237 301 237 301 284 260 c 0,41,42
 325 224 325 224 375 213 c 1,43,44
 420 219 420 219 459.5 252.5 c 128,-1,45
 499 286 499 286 499 329 c 0,33,34
EndSplineSet
EndChar

StartChar: afii57375
Encoding: 1619 1619 114
Width: 668
GlyphClass: 2
Flags: W
LayerCount: 2
Fore
SplineSet
572 1152 m 0,0,1
 467 1065 467 1065 309 1065 c 0,2,3
 286 1065 286 1065 240.5 1070.5 c 128,-1,4
 195 1076 195 1076 172 1076 c 0,5,6
 155 1076 155 1076 127.5 1040.5 c 128,-1,7
 100 1005 100 1005 88 1005 c 0,8,9
 66 1005 66 1005 66 1036 c 0,10,11
 66 1056 66 1056 94 1119 c 0,12,13
 125 1187 125 1187 148 1187 c 0,14,15
 176 1187 176 1187 239 1176.5 c 128,-1,16
 302 1166 302 1166 337 1166 c 0,17,18
 478 1166 478 1166 546 1185 c 0,19,20
 583 1195 583 1195 595 1195 c 0,21,22
 605 1195 605 1195 605 1189 c 0,23,24
 605 1178 605 1178 572 1152 c 0,0,1
EndSplineSet
EndChar

StartChar: afii57391
Encoding: 59450 59450 115
Width: 1024
GlyphClass: 2
Flags: W
LayerCount: 2
Fore
SplineSet
1024 0 m 1,0,-1
 -70 0 l 1,1,-1
 -70 188 l 1,2,-1
 1024 188 l 1,3,-1
 1024 0 l 1,0,-1
EndSplineSet
EndChar

StartChar: afii57471
Encoding: 65553 -1 116
Width: 1511
Flags: W
LayerCount: 2
Fore
SplineSet
1511 0 m 1,0,-1
 1483 0 l 2,1,2
 1393 0 1393 0 1336 41 c 0,3,4
 1271 87 1271 87 1270 173 c 1,5,6
 1057 -24 1057 -24 613 -24 c 0,7,8
 155 -24 155 -24 155 254 c 0,9,10
 155 349 155 349 226 449 c 0,11,12
 239 468 239 468 254 468 c 0,13,14
 268 468 268 468 268 450 c 0,15,16
 268 442 268 442 263 430 c 0,17,18
 235 366 235 366 235 315 c 0,19,20
 235 124 235 124 651 124 c 0,21,22
 1136 124 1136 124 1295 335 c 0,23,24
 1327 377 1327 377 1344 377 c 0,25,26
 1356 377 1356 377 1356 353 c 0,27,28
 1356 336 1356 336 1349 302 c 128,-1,29
 1342 268 1342 268 1342 251 c 0,30,31
 1342 148 1342 148 1483 148 c 2,32,-1
 1511 148 l 1,33,-1
 1511 0 l 1,0,-1
EndSplineSet
EndChar

StartChar: afii52258
Encoding: 65554 -1 117
Width: 1489
GlyphClass: 2
Flags: W
LayerCount: 2
Fore
SplineSet
1489 0 m 1,0,-1
 1434 0 l 2,1,2
 1318 0 1318 0 1177 77 c 1,3,4
 1116 51 1116 51 1076 37 c 0,5,6
 892 -26 892 -26 606 -26 c 0,7,8
 410 -26 410 -26 312 12 c 0,9,10
 155 73 155 73 155 233 c 0,11,12
 155 362 155 362 225 464 c 0,13,14
 239 485 239 485 254 485 c 0,15,16
 264 485 264 485 265 468 c 0,17,18
 265 459 265 459 260 444 c 0,19,20
 231 364 231 364 231 321 c 0,21,22
 229 186 229 186 400 143 c 0,23,24
 484 122 484 122 677 122 c 0,25,26
 837 122 837 122 924 136 c 0,27,28
 974 144 974 144 1038 166 c 1,29,30
 973 227 973 227 972 328 c 0,31,32
 971 417 971 417 1039 517 c 0,33,34
 1112 625 1112 625 1196 626 c 0,35,36
 1288 627 1288 627 1337 533 c 0,37,38
 1376 459 1376 459 1376 357 c 0,39,40
 1376 240 1376 240 1294 173 c 1,41,42
 1340 148 1340 148 1458 148 c 2,43,-1
 1489 148 l 1,44,-1
 1489 0 l 1,0,-1
1307 329 m 0,45,46
 1307 368 1307 368 1264.5 422 c 128,-1,47
 1222 476 1222 476 1184 476 c 256,48,49
 1146 476 1146 476 1095 427.5 c 128,-1,50
 1044 379 1044 379 1043 341 c 0,51,52
 1041 264 1041 264 1186 205 c 1,53,54
 1307 255 1307 255 1307 329 c 0,45,46
EndSplineSet
EndChar

StartChar: afii62889
Encoding: 65555 -1 123
Width: 1263
Flags: W
LayerCount: 2
Fore
SplineSet
1263 0 m 1,0,-1
 1156 0 l 1,1,-1
 1156 -28 l 2,2,3
 1156 -197 1156 -197 1128 -255 c 0,4,5
 1064 -386 1064 -386 900 -456 c 0,6,7
 761 -515 761 -515 595 -515 c 0,8,9
 157 -515 157 -515 155 -183 c 0,10,11
 155 -107 155 -107 188 -6 c 0,12,13
 215 75 215 75 255 127 c 0,14,15
 274 151 274 151 288 152 c 0,16,17
 299 152 299 152 300 135 c 0,18,19
 301 120 301 120 292 101 c 0,20,21
 239 -14 239 -14 238 -108 c 0,22,23
 237 -235 237 -235 349 -303 c 0,24,25
 443 -361 443 -361 578 -361 c 0,26,27
 740 -361 740 -361 864 -325 c 0,28,29
 1043 -273 1043 -273 1083 -161 c 0,30,31
 1090 -141 1090 -141 1091 -105 c 0,32,33
 1092 -73 1092 -73 1086 -38 c 0,34,35
 1085 -22 1085 -22 1080 0 c 1,36,-1
 887 0 l 2,37,38
 721 0 721 0 721 147 c 0,39,40
 721 248 721 248 770 350 c 0,41,42
 830 474 830 474 921 474 c 0,43,44
 1019 474 1019 474 1085 354 c 0,45,46
 1135 262 1135 262 1149 148 c 1,47,-1
 1263 148 l 1,48,-1
 1263 0 l 1,0,-1
1053 147 m 1,49,50
 1053 203 1053 203 1003 265 c 0,51,52
 959 319 959 319 901 320 c 0,53,54
 861 321 861 321 833.5 293 c 128,-1,55
 806 265 806 265 805 225 c 0,56,57
 804 176 804 176 839 159 c 0,58,59
 865 146 865 146 943 146 c 2,60,-1
 1008 146 l 2,61,62
 1013 146 1013 146 1024 147 c 2,63,-1
 1053 147 l 1,49,50
EndSplineSet
EndChar

StartChar: afii62887
Encoding: 65556 -1 124
Width: 1363
Flags: W
LayerCount: 2
Fore
SplineSet
1338 288 m 0,0,1
 1338 146 1338 146 1243 86 c 0,2,3
 1179 46 1179 46 1012 16 c 0,4,5
 827 -17 827 -17 614 -17 c 0,6,7
 107 -17 107 -17 107 261 c 0,8,9
 107 354 107 354 178 456 c 0,10,11
 192 476 192 476 206 476 c 256,12,13
 220 476 220 476 220 458 c 0,14,15
 220 449 220 449 215 437 c 0,16,17
 187 373 187 373 187 322 c 0,18,19
 187 133 187 133 670 133 c 0,20,21
 905 133 905 133 1072 161 c 0,22,23
 1257 192 1257 192 1257 245 c 0,24,25
 1257 277 1257 277 1169 395 c 1,26,-1
 1232 516 l 2,27,28
 1243 537 1243 537 1256 516 c 0,29,30
 1338 386 1338 386 1338 288 c 0,0,1
EndSplineSet
EndChar

StartChar: afii62888
Encoding: 1697 1697 125
Width: 1416
GlyphClass: 2
Flags: W
LayerCount: 2
Fore
SplineSet
1377 363 m 2,0,-1
 1377 340 l 2,1,2
 1377 205 1377 205 1335 141 c 0,3,4
 1231 -17 1231 -17 624 -17 c 0,5,6
 386 -17 386 -17 270.5 49.5 c 128,-1,7
 155 116 155 116 155 250 c 0,8,9
 155 372 155 372 225 477 c 0,10,11
 240 499 240 499 253 499 c 0,12,13
 263 499 263 499 264 480 c 0,14,15
 263 475 263 475 257.5 456 c 128,-1,16
 252 437 252 437 241 395 c 0,17,18
 236 379 236 379 234.5 362.5 c 128,-1,19
 233 346 233 346 233 329 c 0,20,21
 233 196 233 196 413 153 c 0,22,23
 502 131 502 131 695 131 c 0,24,25
 1247 131 1247 131 1307 243 c 0,26,27
 1312 251 1312 251 1314.5 268 c 128,-1,28
 1317 285 1317 285 1317 298 c 0,29,30
 1317 316 1317 316 1312 331 c 1,31,32
 1261 323 1261 323 1217 318.5 c 128,-1,33
 1173 314 1173 314 1135 314 c 0,34,35
 1042 314 1042 314 998.5 352.5 c 128,-1,36
 955 391 955 391 955 469 c 0,37,38
 955 569 955 569 1003 665 c 0,39,40
 1063 784 1063 784 1157 784 c 0,41,42
 1203 784 1203 784 1243.5 751 c 128,-1,43
 1284 718 1284 718 1313.5 661 c 128,-1,44
 1343 604 1343 604 1360 527 c 128,-1,45
 1377 450 1377 450 1377 363 c 2,0,-1
1279 474 m 1,46,47
 1279 505 1279 505 1267 534 c 128,-1,48
 1255 563 1255 563 1235 585.5 c 128,-1,49
 1215 608 1215 608 1189 621.5 c 128,-1,50
 1163 635 1163 635 1135 635 c 0,51,52
 1034 635 1034 635 1034 537 c 0,53,54
 1034 457 1034 457 1164 457 c 0,55,56
 1211 457 1211 457 1279 474 c 1,46,47
EndSplineSet
Substitution2: "'medi' Medial Forms in Arabic lookup 3 subtable" afii57374
Substitution2: "'fina' Terminal Forms in Arabic lookup 2 subtable" afii52258
Substitution2: "'init' Initial Forms in Arabic lookup 1 subtable" afii57459
EndChar

StartChar: afii57567
Encoding: 1705 1705 132
Width: 1622
GlyphClass: 2
Flags: W
AnchorPoint: "Anchor-1" 630 -540 basechar 0
AnchorPoint: "Anchor-0" 600 1215 basechar 0
LayerCount: 2
Fore
SplineSet
1665 1185 m 1,0,1
 1660 1152 1660 1152 1615 1038 c 1,2,3
 1454 987 1454 987 1292 937 c 0,4,5
 1069 863 1069 863 999 821 c 1,6,7
 1150 670 1150 670 1204 601 c 0,8,9
 1309 467 1309 467 1319 351 c 0,10,11
 1328 251 1328 251 1293 166 c 0,12,13
 1223 -4 1223 -4 891 -4 c 2,14,-1
 624 -4 l 2,15,16
 155 -4 155 -4 155 262 c 0,17,18
 155 358 155 358 217 459 c 0,19,20
 233 485 233 485 248 485 c 0,21,22
 260 485 260 485 260 469 c 0,23,24
 260 459 260 459 255 447 c 0,25,26
 227 378 227 378 227 336 c 0,27,28
 227 266 227 266 296 216 c 0,29,30
 395 144 395 144 607 144 c 2,31,-1
 893 144 l 2,32,33
 1046 144 1046 144 1109 157 c 0,34,35
 1246 185 1246 185 1246 277 c 0,36,37
 1246 415 1246 415 1037 604 c 1,38,-1
 1018 576 l 1,39,40
 999 593 999 593 948 658.5 c 128,-1,41
 897 724 897 724 897 738 c 0,42,43
 897 773 897 773 911 835 c 0,44,45
 927 905 927 905 944 924 c 0,46,47
 956 938 956 938 1208 1032 c 0,48,49
 1486 1136 1486 1136 1665 1185 c 1,0,1
EndSplineSet
Substitution2: "'medi' Medial Forms in Arabic lookup 3 subtable" afii52306
Substitution2: "'fina' Terminal Forms in Arabic lookup 2 subtable" afii62964
Substitution2: "'init' Initial Forms in Arabic lookup 1 subtable" afii52305
EndChar

StartChar: afii62964
Encoding: 64399 64399 133
Width: 1735
GlyphClass: 2
Flags: W
AnchorPoint: "Anchor-1" 600 -540 basechar 0
AnchorPoint: "Anchor-0" 555 1095 basechar 0
LayerCount: 2
Fore
SplineSet
1735 0 m 1,0,-1
 1668 0 l 2,1,2
 1571 0 1571 0 1466 108 c 0,3,4
 1411 164 1411 164 1316 304 c 1,5,6
 1319 172 1319 172 1261 106 c 0,7,8
 1164 -5 1164 -5 883 -5 c 2,9,-1
 624 -5 l 2,10,11
 155 -5 155 -5 155 261 c 0,12,13
 155 357 155 357 217 458 c 0,14,15
 233 484 233 484 248 484 c 0,16,17
 260 484 260 484 260 468 c 0,18,19
 260 458 260 458 255 446 c 0,20,21
 227 377 227 377 227 335 c 0,22,23
 227 265 227 265 296 215 c 0,24,25
 395 143 395 143 607 143 c 2,26,-1
 858 143 l 2,27,28
 1073 143 1073 143 1154 170 c 0,29,30
 1249 202 1249 202 1249 291 c 0,31,32
 1249 368 1249 368 1160 477 c 0,33,34
 1108 541 1108 541 993 649 c 0,35,36
 904 733 904 733 904 742 c 0,37,38
 904 869 904 869 946 927 c 0,39,40
 955 940 955 940 1212 1034 c 0,41,42
 1480 1132 1480 1132 1660 1186 c 1,43,44
 1660 1158 1660 1158 1623 1043 c 1,45,46
 1412 978 1412 978 996 823 c 1,47,48
 1180 655 1180 655 1433 326 c 0,49,50
 1524 207 1524 207 1582 174 c 0,51,52
 1627 148 1627 148 1708 148 c 2,53,-1
 1735 148 l 1,54,-1
 1735 0 l 1,0,-1
EndSplineSet
EndChar

StartChar: afii52305
Encoding: 64400 64400 134
Width: 765
GlyphClass: 2
Flags: W
AnchorPoint: "Anchor-1" 255 -495 basechar 0
AnchorPoint: "Anchor-0" 315 1170 basechar 0
LayerCount: 2
Fore
SplineSet
819 1184 m 1,0,1
 814 1151 814 1151 770 1037 c 1,2,3
 609 987 609 987 447 936 c 0,4,5
 226 864 226 864 153 820 c 1,6,7
 305 669 305 669 359 600 c 0,8,9
 462 468 462 468 473 350 c 0,10,11
 482 255 482 255 445 165 c 0,12,13
 378 0 378 0 43 0 c 2,14,-1
 -70 0 l 1,15,-1
 -70 148 l 1,16,-1
 46 148 l 2,17,18
 197 148 197 148 263 162 c 0,19,20
 401 191 401 191 401 285 c 0,21,22
 401 413 401 413 191 603 c 1,23,-1
 173 575 l 1,24,25
 153 591 153 591 102 657 c 128,-1,26
 51 723 51 723 51 737 c 0,27,28
 51 772 51 772 65 834 c 0,29,30
 81 903 81 903 99 923 c 0,31,32
 111 937 111 937 363 1031 c 0,33,34
 643 1136 643 1136 819 1184 c 1,0,1
EndSplineSet
EndChar

StartChar: afii52306
Encoding: 64401 64401 135
Width: 880
GlyphClass: 2
Flags: W
AnchorPoint: "Anchor-1" 360 -450 basechar 0
AnchorPoint: "Anchor-0" 360 1260 basechar 0
LayerCount: 2
Fore
SplineSet
880 0 m 1,0,-1
 814 0 l 2,1,2
 715 0 715 0 611 108 c 0,3,4
 560 161 560 161 462 304 c 1,5,6
 472 0 472 0 119 0 c 2,7,-1
 -70 0 l 1,8,-1
 -70 148 l 1,9,-1
 137 148 l 2,10,11
 395 148 395 148 395 291 c 0,12,13
 395 367 395 367 305 477 c 0,14,15
 248 547 248 547 139 648 c 0,16,17
 49 732 49 732 49 741 c 0,18,19
 49 868 49 868 92 927 c 0,20,21
 102 940 102 940 343 1029 c 0,22,23
 598 1123 598 1123 802 1185 c 1,24,25
 802 1157 802 1157 769 1043 c 1,26,27
 526 963 526 963 143 818 c 1,28,29
 321 661 321 661 579 326 c 0,30,31
 670 208 670 208 727 174 c 0,32,33
 771 148 771 148 854 148 c 2,34,-1
 880 148 l 1,35,-1
 880 0 l 1,0,-1
EndSplineSet
EndChar

StartChar: afii57509
Encoding: 1711 1711 136
Width: 1625
GlyphClass: 2
Flags: W
AnchorPoint: "Anchor-1" 630 -510 basechar 0
AnchorPoint: "Anchor-0" 600 1170 basechar 0
LayerCount: 2
Fore
SplineSet
1641 1229 m 1,0,-1
 1615 1134 l 1,1,-1
 988 933 l 1,2,-1
 1015 1025 l 1,3,-1
 1641 1229 l 1,0,-1
1668 1038 m 1,4,5
 1663 1005 1663 1005 1628 897 c 1,6,7
 1396 839 1396 839 1063 725 c 1,8,9
 1300 499 1300 499 1321 349 c 0,10,11
 1336 243 1336 243 1296 158 c 0,12,13
 1252 66 1252 66 1156 30 c 0,14,15
 1066 -4 1066 -4 891 -4 c 2,16,-1
 624 -4 l 2,17,18
 155 -4 155 -4 155 262 c 0,19,20
 155 358 155 358 217 459 c 0,21,22
 233 485 233 485 248 485 c 0,23,24
 260 485 260 485 260 469 c 0,25,26
 260 459 260 459 255 447 c 0,27,28
 227 378 227 378 227 336 c 0,29,30
 227 266 227 266 296 216 c 0,31,32
 395 144 395 144 607 144 c 2,33,-1
 893 144 l 2,34,35
 1047 144 1047 144 1113 157 c 0,36,37
 1255 185 1255 185 1255 275 c 0,38,39
 1255 377 1255 377 1055 569 c 1,40,-1
 1038 537 l 1,41,42
 1016 555 1016 555 968 614 c 0,43,44
 917 676 917 676 917 690 c 0,45,46
 917 755 917 755 965 808 c 0,47,48
 976 820 976 820 1220 901 c 0,49,50
 1479 987 1479 987 1668 1038 c 1,4,5
EndSplineSet
Substitution2: "'medi' Medial Forms in Arabic lookup 3 subtable" afii62966
Substitution2: "'fina' Terminal Forms in Arabic lookup 2 subtable" afii62967
Substitution2: "'init' Initial Forms in Arabic lookup 1 subtable" afii62965
EndChar

StartChar: afii62967
Encoding: 64403 64403 137
Width: 1735
GlyphClass: 2
Flags: W
AnchorPoint: "Anchor-1" 585 -585 basechar 0
AnchorPoint: "Anchor-0" 570 1155 basechar 0
LayerCount: 2
Fore
SplineSet
1629 1232 m 1,0,-1
 1602 1137 l 1,1,-1
 976 936 l 1,2,-1
 1002 1029 l 1,3,-1
 1629 1232 l 1,0,-1
1735 0 m 1,4,-1
 1686 0 l 2,5,6
 1584 0 1584 0 1482 90 c 0,7,8
 1410 154 1410 154 1313 290 c 1,9,10
 1317 118 1317 118 1184 47 c 0,11,12
 1084 -5 1084 -5 891 -5 c 2,13,-1
 624 -5 l 2,14,15
 155 -5 155 -5 155 261 c 0,16,17
 155 357 155 357 217 458 c 0,18,19
 233 484 233 484 248 484 c 0,20,21
 260 484 260 484 260 468 c 0,22,23
 260 458 260 458 255 446 c 0,24,25
 227 377 227 377 227 335 c 0,26,27
 227 265 227 265 296 215 c 0,28,29
 395 143 395 143 607 143 c 2,30,-1
 858 143 l 2,31,32
 1249 143 1249 143 1249 291 c 0,33,34
 1249 355 1249 355 1081 525.5 c 128,-1,35
 913 696 913 696 913 693 c 1,36,37
 913 775 913 775 953 816 c 0,38,39
 969 833 969 833 1657 1041 c 1,40,41
 1654 1016 1654 1016 1615 903 c 1,42,43
 1447 859 1447 859 1046 732 c 1,44,45
 1252 518 1252 518 1395 351 c 0,46,47
 1483 248 1483 248 1530 212 c 0,48,49
 1613 148 1613 148 1708 148 c 2,50,-1
 1735 148 l 1,51,-1
 1735 0 l 1,4,-1
EndSplineSet
EndChar

StartChar: afii62965
Encoding: 64404 64404 138
Width: 765
GlyphClass: 2
Flags: W
AnchorPoint: "Anchor-1" 270 -450 basechar 0
AnchorPoint: "Anchor-0" 330 1260 basechar 0
LayerCount: 2
Fore
SplineSet
769 1228 m 1,0,-1
 743 1133 l 1,1,-1
 116 932 l 1,2,-1
 143 1024 l 1,3,-1
 769 1228 l 1,0,-1
796 1037 m 1,4,5
 791 1004 791 1004 756 896 c 1,6,7
 524 838 524 838 191 724 c 1,8,9
 428 498 428 498 449 348 c 0,10,11
 463 245 463 245 425 159 c 0,12,13
 382 66 382 66 289 31 c 0,14,15
 206 0 206 0 29 0 c 2,16,-1
 -70 0 l 1,17,-1
 -70 148 l 1,18,-1
 18 148 l 2,19,20
 383 148 383 148 383 274 c 0,21,22
 383 376 383 376 183 568 c 1,23,-1
 166 536 l 1,24,25
 144 554 144 554 96 613 c 0,26,27
 45 675 45 675 45 689 c 0,28,29
 45 754 45 754 93 807 c 0,30,31
 104 819 104 819 348 900 c 0,32,33
 607 986 607 986 796 1037 c 1,4,5
EndSplineSet
EndChar

StartChar: afii62966
Encoding: 64405 64405 139
Width: 866
GlyphClass: 2
Flags: W
AnchorPoint: "Anchor-1" 330 -555 basechar 0
AnchorPoint: "Anchor-0" 315 1305 basechar 0
LayerCount: 2
Fore
SplineSet
761 1232 m 1,0,-1
 735 1137 l 1,1,-1
 108 936 l 1,2,-1
 135 1029 l 1,3,-1
 761 1232 l 1,0,-1
866 0 m 1,4,-1
 818 0 l 2,5,6
 717 0 717 0 615 90 c 0,7,8
 543 154 543 154 446 290 c 1,9,10
 429 0 429 0 46 0 c 2,11,-1
 -70 0 l 1,12,-1
 -70 148 l 1,13,-1
 26 148 l 2,14,15
 381 148 381 148 381 291 c 0,16,17
 381 355 381 355 213 525.5 c 128,-1,18
 45 696 45 696 45 693 c 1,19,20
 45 775 45 775 85 816 c 0,21,22
 101 832 101 832 789 1041 c 1,23,24
 787 1016 787 1016 747 903 c 1,25,26
 579 859 579 859 179 732 c 1,27,28
 380 523 380 523 528 351 c 0,29,30
 615 250 615 250 663 213 c 0,31,32
 747 148 747 148 840 148 c 2,33,-1
 866 148 l 1,34,-1
 866 0 l 1,4,-1
EndSplineSet
EndChar

StartChar: afii57555
Encoding: 1740 1740 140
Width: 1360
GlyphClass: 2
Flags: W
AnchorPoint: "Anchor-1" 660 -840 basechar 0
AnchorPoint: "Anchor-0" 615 765 basechar 0
LayerCount: 2
Fore
SplineSet
1319 469 m 0,0,1
 1324 444 1324 444 1324 436 c 0,2,3
 1324 427 1324 427 1318 427 c 0,4,5
 1311 427 1311 427 1290 439 c 0,6,7
 1231 472 1231 472 1140 472 c 0,8,9
 1015 472 1015 472 906 365 c 0,10,11
 817 276 817 276 817 224 c 0,12,13
 817 161 817 161 995 130 c 0,14,15
 1189 94 1189 94 1223 36 c 0,16,17
 1230 23 1230 23 1230 -3 c 0,18,19
 1230 -109 1230 -109 1163 -215 c 0,20,21
 1119 -287 1119 -287 971 -345 c 0,22,23
 880 -381 880 -381 775.5 -399.5 c 128,-1,24
 671 -418 671 -418 552 -418 c 0,25,26
 466 -418 466 -418 393 -393.5 c 128,-1,27
 320 -369 320 -369 267 -324 c 128,-1,28
 214 -279 214 -279 184.5 -216.5 c 128,-1,29
 155 -154 155 -154 155 -78 c 0,30,31
 155 100 155 100 272 255 c 0,32,33
 295 284 295 284 313 284 c 0,34,35
 323 284 323 284 323 271 c 0,36,37
 323 259 323 259 312 239 c 0,38,39
 237 101 237 101 237 -18 c 0,40,41
 237 -71 237 -71 260.5 -117 c 128,-1,42
 284 -163 284 -163 326.5 -197 c 128,-1,43
 369 -231 369 -231 430 -250.5 c 128,-1,44
 491 -270 491 -270 566 -270 c 0,45,46
 718 -270 718 -270 895 -231 c 0,47,48
 1145 -176 1145 -176 1145 -74 c 0,49,50
 1145 -36 1145 -36 900 11 c 0,51,52
 806 30 806 30 776 48 c 0,53,54
 729 77 729 77 729 143 c 0,55,56
 729 269 729 269 859 436 c 0,57,58
 998 617 998 617 1136 617 c 0,59,60
 1285 617 1285 617 1319 469 c 0,0,1
EndSplineSet
Substitution2: "'medi' Medial Forms in Arabic lookup 3 subtable" afii62832
Substitution2: "'fina' Terminal Forms in Arabic lookup 2 subtable" afii52364
Substitution2: "'init' Initial Forms in Arabic lookup 1 subtable" uniFBFE
EndChar

StartChar: afii52364
Encoding: 64509 64509 141
Width: 1277
GlyphClass: 2
Flags: W
AnchorPoint: "Anchor-1" 555 -1080 basechar 0
AnchorPoint: "Anchor-0" 600 480 basechar 0
LayerCount: 2
Fore
SplineSet
1277 0 m 1,0,-1
 1012 0 l 2,1,2
 960 0 960 0 908 -17 c 0,3,4
 839 -41 839 -41 839 -82 c 0,5,6
 839 -97 839 -97 1023.5 -133.5 c 128,-1,7
 1208 -170 1208 -170 1208 -214 c 0,8,9
 1208 -365 1208 -365 1121 -439 c 0,10,11
 974 -565 974 -565 603 -565 c 0,12,13
 155 -565 155 -565 155 -234 c 0,14,15
 155 -160 155 -160 187 -68 c 128,-1,16
 219 24 219 24 265 84 c 0,17,18
 283 107 283 107 298 109 c 0,19,20
 313 110 313 110 313 93 c 0,21,22
 313 78 313 78 301 55 c 0,23,24
 243 -55 243 -55 243 -173 c 0,25,26
 243 -270 243 -270 316 -333 c 0,27,28
 410 -415 410 -415 608 -415 c 0,29,30
 761 -415 761 -415 892 -399 c 0,31,32
 1124 -370 1124 -370 1124 -300 c 0,33,34
 1124 -271 1124 -271 1023 -254 c 0,35,36
 863 -227 863 -227 837 -220 c 0,37,38
 736 -192 736 -192 736 -134 c 0,39,40
 736 -88 736 -88 785 -19 c 0,41,42
 826 39 826 39 871 75 c 0,43,44
 961 148 961 148 1127 148 c 2,45,-1
 1277 148 l 1,46,-1
 1277 0 l 1,0,-1
EndSplineSet
EndChar

StartChar: afii62945
Encoding: 65557 -1 147
Width: 1419
GlyphClass: 3
Flags: W
LayerCount: 2
Fore
SplineSet
1415 285 m 0,0,1
 1415 1 1415 1 1216 1 c 0,2,3
 1020 1 1020 1 965 185 c 1,4,5
 909 1 909 1 754 1 c 2,6,-1
 737 1 l 2,7,8
 555 1 555 1 521 214 c 1,9,10
 439 116 439 116 425 116 c 2,11,-1
 382 116 l 2,12,13
 316 116 316 116 247 139 c 0,14,15
 155 169 155 169 155 222 c 0,16,17
 155 336 155 336 218 416 c 0,18,19
 263 473 263 473 492 564 c 1,20,-1
 493 652 l 1,21,-1
 580 749 l 1,22,23
 588 721 588 721 588 638 c 2,24,-1
 588 536 l 2,25,26
 588 443 588 443 596 365 c 0,27,28
 607 260 607 260 626 219 c 0,29,30
 660 149 660 149 743 149 c 2,31,-1
 756 149 l 2,32,33
 828 149 828 149 871.5 197 c 128,-1,34
 915 245 915 245 915 317 c 2,35,-1
 915 522 l 2,36,37
 915 643 915 643 904 779 c 1,38,-1
 1013 870 l 1,39,-1
 1013 405 l 2,40,41
 1013 301 1013 301 1058 231 c 0,42,43
 1111 149 1111 149 1209 149 c 0,44,45
 1320 149 1320 149 1320 264 c 0,46,47
 1320 401 1320 401 1242 817 c 1,48,-1
 1344 916 l 1,49,50
 1415 533 1415 533 1415 285 c 0,0,1
513 262 m 1,51,-1
 497 465 l 1,52,53
 430 445 430 445 351 410 c 0,54,55
 236 358 236 358 236 324 c 256,56,57
 236 290 236 290 322 269 c 0,58,59
 385 254 385 254 435 254 c 0,60,61
 477 254 477 254 513 262 c 1,51,-1
EndSplineSet
EndChar

StartChar: afii64184
Encoding: 65010 65010 148
Width: 1460
GlyphClass: 3
Flags: W
AnchorPoint: "Anchor-3" 1305 -420 baselig 0
AnchorPoint: "Anchor-2" 1320 1020 baselig 0
AnchorPoint: "Anchor-3" 855 -465 baselig 1
AnchorPoint: "Anchor-2" 960 930 baselig 1
AnchorPoint: "Anchor-3" 390 -510 baselig 2
AnchorPoint: "Anchor-2" 375 780 baselig 2
LayerCount: 2
Fore
SplineSet
979 1214 m 0,0,1
 979 1121 979 1121 937 1121 c 1,2,3
 939 1139 939 1139 939 1156 c 0,4,5
 939 1224 939 1224 912 1271 c 1,6,7
 932 1314 932 1314 965 1314 c 1,8,9
 979 1268 979 1268 979 1214 c 0,0,1
1112 1026 m 0,10,11
 1112 986 1112 986 1087 956.5 c 128,-1,12
 1062 927 1062 927 1023 927 c 0,13,14
 981 927 981 927 958 969 c 1,15,16
 919 894 919 894 868 894 c 0,17,18
 838 894 838 894 818 918.5 c 128,-1,19
 798 943 798 943 798 973 c 0,20,21
 798 995 798 995 811 1023 c 0,22,23
 827 1056 827 1056 846 1056 c 0,24,25
 855 1056 855 1056 855 1043 c 0,26,27
 855 1037 855 1037 853 1024.5 c 128,-1,28
 851 1012 851 1012 851 1006 c 0,29,30
 851 974 851 974 884 974 c 0,31,32
 918 974 918 974 931 1004 c 0,33,34
 933 1011 933 1011 945 1061 c 0,35,36
 950 1081 950 1081 965 1081 c 0,37,38
 974 1081 974 1081 976 1068 c 0,39,40
 986 996 986 996 1023 996 c 256,41,42
 1060 996 1060 996 1060 1035 c 0,43,44
 1060 1051 1060 1051 1054 1072 c 1,45,-1
 1094 1105 l 1,46,47
 1112 1075 1112 1075 1112 1026 c 0,10,11
1415 285 m 0,48,49
 1415 1 1415 1 1216 1 c 0,50,51
 1020 1 1020 1 965 185 c 1,52,53
 909 1 909 1 754 1 c 2,54,-1
 737 1 l 2,55,56
 555 1 555 1 521 214 c 1,57,58
 439 116 439 116 425 116 c 2,59,-1
 382 116 l 2,60,61
 316 116 316 116 247 139 c 0,62,63
 155 169 155 169 155 222 c 0,64,65
 155 336 155 336 218 416 c 0,66,67
 263 473 263 473 492 564 c 1,68,-1
 493 652 l 1,69,-1
 580 749 l 1,70,71
 588 721 588 721 588 638 c 2,72,-1
 588 536 l 2,73,74
 588 443 588 443 596 365 c 0,75,76
 607 260 607 260 626 219 c 0,77,78
 660 149 660 149 743 149 c 2,79,-1
 756 149 l 2,80,81
 828 149 828 149 871.5 197 c 128,-1,82
 915 245 915 245 915 317 c 2,83,-1
 915 522 l 2,84,85
 915 643 915 643 904 779 c 1,86,-1
 1013 870 l 1,87,-1
 1013 405 l 2,88,89
 1013 301 1013 301 1058 231 c 0,90,91
 1111 149 1111 149 1209 149 c 0,92,93
 1320 149 1320 149 1320 264 c 0,94,95
 1320 401 1320 401 1242 817 c 1,96,-1
 1344 916 l 1,97,98
 1415 533 1415 533 1415 285 c 0,48,49
513 262 m 1,99,-1
 497 465 l 1,100,101
 430 445 430 445 351 410 c 0,102,103
 236 358 236 358 236 324 c 256,104,105
 236 290 236 290 322 269 c 0,106,107
 385 254 385 254 435 254 c 0,108,109
 477 254 477 254 513 262 c 1,99,-1
EndSplineSet
Ligature2: "'rlig' Required Ligatures in Arabic lookup 5 subtable" afii62817 afii62818 uniFC63 afii62828
Ligature2: "'rlig' Required Ligatures in Arabic lookup 5 subtable" afii62817 afii62818 afii57457 uni0670 afii62828
EndChar

StartChar: afii57415.001
Encoding: 1575 1575 162
Width: 343
GlyphClass: 2
Flags: W
AnchorPoint: "Anchor-1" 225 -435 basechar 0
AnchorPoint: "Anchor-0" 225 1305 basechar 0
LayerCount: 2
Fore
SplineSet
299 159 m 0,0,1
 299 81 299 81 267 16 c 0,2,3
 248 -23 248 -23 241 -23 c 0,4,5
 233 -23 233 -23 233 26 c 0,6,7
 233 248 233 248 155 1110 c 1,8,-1
 261 1209 l 2,9,10
 275 1222 275 1222 280 1223 c 0,11,12
 285 1223 285 1223 286 1201 c 0,13,14
 299 951 299 951 299 159 c 0,0,1
EndSplineSet
Substitution2: "'fina' Terminal Forms in Arabic lookup 2 subtable" afii62760
EndChar

StartChar: afii62760.001
Encoding: 65558 -1 163
Width: 480
GlyphClass: 2
Flags: W
LayerCount: 2
Fore
SplineSet
480 0 m 1,0,-1
 420 0 l 2,1,2
 358 0 358 0 313.5 20.5 c 128,-1,3
 269 41 269 41 240 84.5 c 128,-1,4
 211 128 211 128 197.5 196.5 c 128,-1,5
 184 265 184 265 184 362 c 2,6,-1
 185 606 l 2,7,8
 185 780 185 780 155 1104 c 1,9,-1
 234 1188 l 2,10,11
 244 1198 244 1198 251 1198 c 0,12,13
 257 1198 257 1198 262 1174 c 128,-1,14
 267 1150 267 1150 271 1109.5 c 128,-1,15
 275 1069 275 1069 278 1016 c 128,-1,16
 281 963 281 963 283 905.5 c 128,-1,17
 285 848 285 848 286 789.5 c 128,-1,18
 287 731 287 731 287 680 c 2,19,-1
 287 307 l 2,20,21
 287 148 287 148 440 148 c 2,22,-1
 480 148 l 1,23,-1
 480 0 l 1,0,-1
EndSplineSet
EndChar

StartChar: afii57421
Encoding: 1581 1581 182
Width: 1061
GlyphClass: 2
Flags: W
AnchorPoint: "Anchor-1" 540 -1035 basechar 0
AnchorPoint: "Anchor-0" 600 795 basechar 0
LayerCount: 2
Fore
SplineSet
1096 -423 m 0,0,1
 999 -511 999 -511 895 -542 c 0,2,3
 850 -556 850 -556 791.5 -563 c 128,-1,4
 733 -570 733 -570 661 -570 c 0,5,6
 540 -570 540 -570 446 -543.5 c 128,-1,7
 352 -517 352 -517 287.5 -466.5 c 128,-1,8
 223 -416 223 -416 189 -344 c 128,-1,9
 155 -272 155 -272 155 -181 c 0,10,11
 155 190 155 190 643 384 c 1,12,13
 435 419 435 419 349 419 c 0,14,15
 276 419 276 419 218 367 c 0,16,17
 166 320 166 320 166 317 c 0,18,19
 166 316 166 316 167 316 c 1,20,21
 155 316 155 316 155 336 c 0,22,23
 155 367 155 367 168 400 c 128,-1,24
 181 433 181 433 202 464 c 0,25,26
 266 561 266 561 381 561 c 0,27,28
 423 561 423 561 488.5 553 c 128,-1,29
 554 545 554 545 647 529 c 0,30,31
 834 497 834 497 930 497 c 2,32,-1
 1024 497 l 2,33,34
 1060 497 1060 497 1060 488 c 0,35,36
 1060 483 1060 483 1052 459 c 2,37,-1
 1017 360 l 1,38,39
 929 359 929 359 803 336 c 0,40,41
 576 296 576 296 406 167 c 0,42,43
 239 39 239 39 239 -111 c 0,44,45
 239 -280 239 -280 408 -365 c 0,46,47
 539 -432 539 -432 726 -432 c 0,48,49
 923 -432 923 -432 1076 -391 c 0,50,51
 1089 -387 1089 -387 1101 -387 c 0,52,53
 1116 -387 1116 -387 1116 -395 c 0,54,55
 1116 -405 1116 -405 1096 -423 c 0,0,1
EndSplineSet
Substitution2: "'medi' Medial Forms in Arabic lookup 3 subtable" afii62775
Substitution2: "'fina' Terminal Forms in Arabic lookup 2 subtable" afii62776
Substitution2: "'init' Initial Forms in Arabic lookup 1 subtable" afii62774
EndChar

StartChar: afii62776
Encoding: 65186 65186 183
Width: 1145
GlyphClass: 2
Flags: W
AnchorPoint: "Anchor-1" 480 -1080 basechar 0
AnchorPoint: "Anchor-0" 630 855 basechar 0
LayerCount: 2
Fore
SplineSet
1145 0 m 1,0,-1
 1048 0 l 2,1,2
 791 0 791 0 791 231 c 0,3,4
 791 279 791 279 803 335 c 1,5,6
 602 295 602 295 443 192 c 0,7,8
 239 60 239 60 239 -112 c 0,9,10
 239 -281 239 -281 408 -366 c 0,11,12
 539 -433 539 -433 726 -433 c 0,13,14
 923 -433 923 -433 1076 -392 c 0,15,16
 1089 -388 1089 -388 1101 -388 c 0,17,18
 1116 -388 1116 -388 1116 -396 c 0,19,20
 1116 -406 1116 -406 1096 -424 c 0,21,22
 999 -512 999 -512 895 -543 c 0,23,24
 850 -557 850 -557 791.5 -564 c 128,-1,25
 733 -571 733 -571 661 -571 c 0,26,27
 540 -571 540 -571 446 -544.5 c 128,-1,28
 352 -518 352 -518 287.5 -467.5 c 128,-1,29
 223 -417 223 -417 189 -345 c 128,-1,30
 155 -273 155 -273 155 -182 c 0,31,32
 155 189 155 189 643 383 c 1,33,34
 435 418 435 418 349 418 c 0,35,36
 276 418 276 418 218 366 c 0,37,38
 166 319 166 319 166 316 c 0,39,40
 166 315 166 315 167 315 c 1,41,42
 155 315 155 315 155 335 c 0,43,44
 155 366 155 366 168 399 c 128,-1,45
 181 432 181 432 202 463 c 0,46,47
 266 560 266 560 381 560 c 0,48,49
 423 560 423 560 488.5 552 c 128,-1,50
 554 544 554 544 647 528 c 0,51,52
 834 496 834 496 930 496 c 2,53,-1
 1024 496 l 2,54,55
 1060 496 1060 496 1060 487 c 0,56,57
 1060 482 1060 482 1052 458 c 2,58,-1
 1017 360 l 1,59,60
 961 357 961 357 855 345 c 1,61,62
 853 331 853 331 852 318 c 128,-1,63
 851 305 851 305 851 294 c 0,64,65
 851 148 851 148 1054 148 c 2,66,-1
 1145 148 l 1,67,-1
 1145 0 l 1,0,-1
EndSplineSet
EndChar

StartChar: afii62774
Encoding: 65187 65187 184
Width: 1038
GlyphClass: 2
Flags: W
AnchorPoint: "Anchor-1" 360 -570 basechar 0
AnchorPoint: "Anchor-0" 630 825 basechar 0
LayerCount: 2
Fore
SplineSet
1025 372 m 2,0,-1
 969 272 l 1,1,2
 826 274 826 274 769 253 c 0,3,4
 691 224 691 224 538.5 148 c 128,-1,5
 386 72 386 72 305 43 c 0,6,7
 184 0 184 0 65 0 c 2,8,-1
 -70 0 l 1,9,-1
 -70 148 l 1,10,-1
 70 148 l 2,11,12
 242 148 242 148 383 207 c 2,13,-1
 681 337 l 1,14,15
 610 353 610 353 454 411 c 0,16,17
 325 459 325 459 287 459 c 0,18,19
 213 459 213 459 136 394 c 0,20,21
 121 381 121 381 109 381 c 0,22,23
 96 381 96 381 96 398 c 0,24,25
 96 405 96 405 100 417 c 0,26,27
 163 602 163 602 315 602 c 0,28,29
 369 602 369 602 462 560 c 0,30,31
 617 490 617 490 694 464 c 0,32,33
 825 420 825 420 1006 408 c 0,34,35
 1038 406 1038 406 1038 400 c 0,36,37
 1038 395 1038 395 1025 372 c 2,0,-1
EndSplineSet
EndChar

StartChar: afii62775
Encoding: 65188 65188 185
Width: 1119
GlyphClass: 2
Flags: W
AnchorPoint: "Anchor-1" 375 -585 basechar 0
AnchorPoint: "Anchor-0" 570 930 basechar 0
LayerCount: 2
Fore
SplineSet
1119 0 m 1,0,-1
 1024 0 l 2,1,2
 772 0 772 0 772 250 c 0,3,4
 772 279 772 279 775 316 c 1,5,6
 690 275 690 275 533 178 c 0,7,8
 388 88 388 88 310 54 c 0,9,10
 186 0 186 0 65 0 c 2,11,-1
 -70 0 l 1,12,-1
 -70 148 l 1,13,-1
 70 148 l 2,14,15
 227 148 227 148 387 228 c 0,16,17
 480 277 480 277 668 374 c 1,18,19
 626 383 626 383 444 430 c 0,20,21
 313 464 313 464 287 464 c 0,22,23
 218 464 218 464 136 394 c 0,24,25
 121 381 121 381 109 381 c 0,26,27
 96 381 96 381 96 398 c 0,28,29
 96 405 96 405 100 417 c 0,30,31
 164 607 164 607 315 607 c 0,32,33
 371 607 371 607 463 576 c 0,34,35
 601 529 601 529 694 508 c 0,36,37
 817 480 817 480 1003 484 c 0,38,39
 1032 485 1032 485 1036 480 c 256,40,41
 1040 475 1040 475 1031 452 c 2,42,-1
 988 341 l 1,43,44
 868 342 868 342 839 327 c 1,45,46
 839 241 839 241 859 209 c 0,47,48
 897 148 897 148 1029 148 c 2,49,-1
 1119 148 l 1,50,-1
 1119 0 l 1,0,-1
EndSplineSet
EndChar

StartChar: afii57423
Encoding: 1583 1583 190
Width: 808
GlyphClass: 2
Flags: W
AnchorPoint: "Anchor-1" 345 -435 basechar 0
AnchorPoint: "Anchor-0" 465 1005 basechar 0
LayerCount: 2
Fore
SplineSet
773 268 m 0,0,1
 773 1 773 1 419 1 c 0,2,3
 287 1 287 1 226 37 c 0,4,5
 147 83 147 83 147 204 c 0,6,7
 147 261 147 261 178 320 c 0,8,9
 192 347 192 347 204 347 c 0,10,11
 219 347 219 347 215 314 c 0,12,13
 212 290 212 290 212 274 c 0,14,15
 212 194 212 194 284 166 c 0,16,17
 329 149 329 149 426 149 c 0,18,19
 706 149 706 149 706 236 c 0,20,21
 706 373 706 373 379 610 c 1,22,-1
 417 740 l 2,23,24
 423 759 423 759 428 759 c 0,25,26
 434 759 434 759 453 744 c 0,27,28
 773 487 773 487 773 268 c 0,0,1
EndSplineSet
Substitution2: "'fina' Terminal Forms in Arabic lookup 2 subtable" afii62780
PairPos2: "'kern' Horizontal Kerning in Arabic lookup 0 subtable" afii57410 dx=0 dy=0 dh=0 dv=0 dx=0 dy=0 dh=-100 dv=0
PairPos2: "'kern' Horizontal Kerning in Arabic lookup 0 subtable" afii62965 dx=0 dy=0 dh=0 dv=0 dx=0 dy=0 dh=-100 dv=0
PairPos2: "'kern' Horizontal Kerning in Arabic lookup 0 subtable" afii57509 dx=0 dy=0 dh=0 dv=0 dx=0 dy=0 dh=-100 dv=0
PairPos2: "'kern' Horizontal Kerning in Arabic lookup 0 subtable" afii52305 dx=0 dy=0 dh=0 dv=0 dx=0 dy=0 dh=-100 dv=0
PairPos2: "'kern' Horizontal Kerning in Arabic lookup 0 subtable" afii57567 dx=0 dy=0 dh=0 dv=0 dx=0 dy=0 dh=-100 dv=0
EndChar

StartChar: afii62780
Encoding: 65194 65194 191
Width: 921
GlyphClass: 2
Flags: W
AnchorPoint: "Anchor-1" 315 -465 basechar 0
AnchorPoint: "Anchor-0" 465 975 basechar 0
LayerCount: 2
Fore
SplineSet
921 0 m 1,0,-1
 890 0 l 2,1,2
 818 0 818 0 768 46 c 0,3,4
 737 74 737 74 693 148 c 1,5,6
 647 67 647 67 586 33 c 0,7,8
 511 -8 511 -8 374 -8 c 0,9,10
 105 -8 105 -8 105 185 c 0,11,12
 105 250 105 250 145 319 c 0,13,14
 158 342 158 342 171 342 c 0,15,16
 183 342 183 342 183 322 c 0,17,18
 183 311 183 311 180 289.5 c 128,-1,19
 177 268 177 268 177 257 c 0,20,21
 177 142 177 142 372 142 c 0,22,23
 647 142 647 142 647 249 c 0,24,25
 647 307 647 307 488 666 c 1,26,-1
 545 765 l 2,27,28
 556 784 556 784 560 785 c 0,29,30
 566 781 566 781 575 760 c 0,31,32
 641 604 641 604 750 304 c 0,33,34
 807 148 807 148 911 148 c 2,35,-1
 921 148 l 1,36,-1
 921 0 l 1,0,-1
EndSplineSet
PairPos2: "'kern' Horizontal Kerning in Arabic lookup 0 subtable" afii57410 dx=0 dy=0 dh=0 dv=0 dx=0 dy=0 dh=-100 dv=0
PairPos2: "'kern' Horizontal Kerning in Arabic lookup 0 subtable" afii62965 dx=0 dy=0 dh=0 dv=0 dx=0 dy=0 dh=-100 dv=0
PairPos2: "'kern' Horizontal Kerning in Arabic lookup 0 subtable" afii57509 dx=0 dy=0 dh=0 dv=0 dx=0 dy=0 dh=-100 dv=0
PairPos2: "'kern' Horizontal Kerning in Arabic lookup 0 subtable" afii52305 dx=0 dy=0 dh=0 dv=0 dx=0 dy=0 dh=-100 dv=0
PairPos2: "'kern' Horizontal Kerning in Arabic lookup 0 subtable" afii57567 dx=0 dy=0 dh=0 dv=0 dx=0 dy=0 dh=-100 dv=0
EndChar

StartChar: afii57425
Encoding: 1585 1585 194
Width: 663
GlyphClass: 2
Flags: W
AnchorPoint: "Anchor-1" 195 -1005 basechar 0
AnchorPoint: "Anchor-0" 480 555 basechar 0
LayerCount: 2
Fore
SplineSet
645 -11 m 0,0,1
 645 -198 645 -198 526 -364 c 0,2,3
 424 -506 424 -506 356 -506 c 0,4,5
 210 -506 210 -506 104 -491 c 0,6,7
 69 -486 69 -486 69 -474 c 256,8,9
 69 -462 69 -462 105 -455 c 0,10,11
 255 -424 255 -424 407 -296 c 0,12,13
 569 -159 569 -159 569 -33 c 0,14,15
 569 51 569 51 435 181 c 1,16,-1
 493 302 l 2,17,18
 501 318 501 318 505 319 c 0,19,20
 511 317 511 317 522 303 c 0,21,22
 567 248 567 248 605 154 c 0,23,24
 645 55 645 55 645 -11 c 0,0,1
EndSplineSet
Substitution2: "'fina' Terminal Forms in Arabic lookup 2 subtable" afii62782
PairPos2: "'kern' Horizontal Kerning in Arabic lookup 1 subtable" afii57470 dx=0 dy=0 dh=0 dv=0 dx=0 dy=0 dh=-100 dv=0
PairPos2: "'kern' Horizontal Kerning in Arabic lookup 1 subtable" afii62840 dx=0 dy=0 dh=0 dv=0 dx=0 dy=0 dh=-200 dv=0
PairPos2: "'kern' Horizontal Kerning in Arabic lookup 1 subtable" afii62838 dx=0 dy=0 dh=0 dv=0 dx=0 dy=0 dh=-200 dv=0
PairPos2: "'kern' Horizontal Kerning in Arabic lookup 1 subtable" afii62836 dx=0 dy=0 dh=0 dv=0 dx=0 dy=0 dh=-200 dv=0
PairPos2: "'kern' Horizontal Kerning in Arabic lookup 1 subtable" afii62834 dx=0 dy=0 dh=0 dv=0 dx=0 dy=0 dh=-200 dv=0
PairPos2: "'kern' Horizontal Kerning in Arabic lookup 0 subtable" afii57410 dx=0 dy=0 dh=0 dv=0 dx=0 dy=0 dh=-280 dv=0
PairPos2: "'kern' Horizontal Kerning in Arabic lookup 0 subtable" afii57441 dx=0 dy=0 dh=0 dv=0 dx=0 dy=0 dh=-200 dv=0
PairPos2: "'kern' Horizontal Kerning in Arabic lookup 0 subtable" afii57434 dx=0 dy=0 dh=0 dv=0 dx=0 dy=0 dh=150 dv=0
PairPos2: "'kern' Horizontal Kerning in Arabic lookup 0 subtable" afii57433 dx=0 dy=0 dh=0 dv=0 dx=0 dy=0 dh=150 dv=0
PairPos2: "'kern' Horizontal Kerning in Arabic lookup 0 subtable" afii57422 dx=0 dy=0 dh=0 dv=0 dx=0 dy=0 dh=100 dv=0
PairPos2: "'kern' Horizontal Kerning in Arabic lookup 0 subtable" afii57421 dx=0 dy=0 dh=0 dv=0 dx=0 dy=0 dh=100 dv=0
PairPos2: "'kern' Horizontal Kerning in Arabic lookup 0 subtable" afii57420 dx=0 dy=0 dh=0 dv=0 dx=0 dy=0 dh=100 dv=0
PairPos2: "'kern' Horizontal Kerning in Arabic lookup 0 subtable" afii57419 dx=0 dy=0 dh=0 dv=0 dx=0 dy=0 dh=-200 dv=0
PairPos2: "'kern' Horizontal Kerning in Arabic lookup 0 subtable" afii57418 dx=0 dy=0 dh=0 dv=0 dx=0 dy=0 dh=-200 dv=0
PairPos2: "'kern' Horizontal Kerning in Arabic lookup 0 subtable" afii62761 dx=0 dy=0 dh=0 dv=0 dx=0 dy=0 dh=-100 dv=0
PairPos2: "'kern' Horizontal Kerning in Arabic lookup 0 subtable" afii57416 dx=0 dy=0 dh=0 dv=0 dx=0 dy=0 dh=-200 dv=0
PairPos2: "'kern' Horizontal Kerning in Arabic lookup 0 subtable" afii62965 dx=0 dy=0 dh=0 dv=0 dx=0 dy=0 dh=-280 dv=0
PairPos2: "'kern' Horizontal Kerning in Arabic lookup 0 subtable" afii57509 dx=0 dy=0 dh=0 dv=0 dx=0 dy=0 dh=-280 dv=0
PairPos2: "'kern' Horizontal Kerning in Arabic lookup 0 subtable" afii52305 dx=0 dy=0 dh=0 dv=0 dx=0 dy=0 dh=-280 dv=0
PairPos2: "'kern' Horizontal Kerning in Arabic lookup 0 subtable" afii57567 dx=0 dy=0 dh=0 dv=0 dx=0 dy=0 dh=-280 dv=0
PairPos2: "'kern' Horizontal Kerning in Arabic lookup 0 subtable" afii57507 dx=0 dy=0 dh=0 dv=0 dx=0 dy=0 dh=100 dv=0
PairPos2: "'kern' Horizontal Kerning in Arabic lookup 0 subtable" afii57505 dx=0 dy=0 dh=0 dv=0 dx=0 dy=0 dh=-200 dv=0
PairPos2: "'kern' Horizontal Kerning in Arabic lookup 0 subtable" afii57506 dx=0 dy=0 dh=0 dv=0 dx=0 dy=0 dh=-200 dv=0
EndChar

StartChar: afii62782
Encoding: 65198 65198 195
Width: 770
GlyphClass: 2
Flags: W
AnchorPoint: "Anchor-1" 270 -960 basechar 0
AnchorPoint: "Anchor-0" 435 570 basechar 0
LayerCount: 2
Fore
SplineSet
770 0 m 1,0,-1
 742 0 l 2,1,2
 672 0 672 0 636 24 c 1,3,4
 638 4 638 4 638 -16 c 0,5,6
 638 -196 638 -196 521 -363 c 0,7,8
 420 -507 420 -507 356 -507 c 0,9,10
 210 -507 210 -507 104 -492 c 0,11,12
 69 -487 69 -487 69 -475 c 256,13,14
 69 -463 69 -463 105 -456 c 0,15,16
 255 -425 255 -425 407 -297 c 0,17,18
 569 -160 569 -160 569 -34 c 0,19,20
 569 50 569 50 435 180 c 1,21,-1
 494 300 l 2,22,23
 501 315 501 315 506 316 c 0,24,25
 512 314 512 314 523 299 c 0,26,27
 583 219 583 219 614 195 c 0,28,29
 673 148 673 148 756 148 c 2,30,-1
 770 148 l 1,31,-1
 770 0 l 1,0,-1
EndSplineSet
PairPos2: "'kern' Horizontal Kerning in Arabic lookup 1 subtable" afii57470 dx=0 dy=0 dh=0 dv=0 dx=0 dy=0 dh=-100 dv=0
PairPos2: "'kern' Horizontal Kerning in Arabic lookup 1 subtable" afii62840 dx=0 dy=0 dh=0 dv=0 dx=0 dy=0 dh=-200 dv=0
PairPos2: "'kern' Horizontal Kerning in Arabic lookup 1 subtable" afii62838 dx=0 dy=0 dh=0 dv=0 dx=0 dy=0 dh=-200 dv=0
PairPos2: "'kern' Horizontal Kerning in Arabic lookup 1 subtable" afii62836 dx=0 dy=0 dh=0 dv=0 dx=0 dy=0 dh=-200 dv=0
PairPos2: "'kern' Horizontal Kerning in Arabic lookup 1 subtable" afii62834 dx=0 dy=0 dh=0 dv=0 dx=0 dy=0 dh=-200 dv=0
PairPos2: "'kern' Horizontal Kerning in Arabic lookup 0 subtable" afii57410 dx=0 dy=0 dh=0 dv=0 dx=0 dy=0 dh=-280 dv=0
PairPos2: "'kern' Horizontal Kerning in Arabic lookup 0 subtable" afii57434 dx=0 dy=0 dh=0 dv=0 dx=0 dy=0 dh=150 dv=0
PairPos2: "'kern' Horizontal Kerning in Arabic lookup 0 subtable" afii57433 dx=0 dy=0 dh=0 dv=0 dx=0 dy=0 dh=150 dv=0
PairPos2: "'kern' Horizontal Kerning in Arabic lookup 0 subtable" afii57422 dx=0 dy=0 dh=0 dv=0 dx=0 dy=0 dh=100 dv=0
PairPos2: "'kern' Horizontal Kerning in Arabic lookup 0 subtable" afii57421 dx=0 dy=0 dh=0 dv=0 dx=0 dy=0 dh=100 dv=0
PairPos2: "'kern' Horizontal Kerning in Arabic lookup 0 subtable" afii57420 dx=0 dy=0 dh=0 dv=0 dx=0 dy=0 dh=100 dv=0
PairPos2: "'kern' Horizontal Kerning in Arabic lookup 0 subtable" afii62761 dx=0 dy=0 dh=0 dv=0 dx=0 dy=0 dh=-100 dv=0
PairPos2: "'kern' Horizontal Kerning in Arabic lookup 0 subtable" afii62965 dx=0 dy=0 dh=0 dv=0 dx=0 dy=0 dh=-280 dv=0
PairPos2: "'kern' Horizontal Kerning in Arabic lookup 0 subtable" afii57509 dx=0 dy=0 dh=0 dv=0 dx=0 dy=0 dh=-280 dv=0
PairPos2: "'kern' Horizontal Kerning in Arabic lookup 0 subtable" afii52305 dx=0 dy=0 dh=0 dv=0 dx=0 dy=0 dh=-280 dv=0
PairPos2: "'kern' Horizontal Kerning in Arabic lookup 0 subtable" afii57567 dx=0 dy=0 dh=0 dv=0 dx=0 dy=0 dh=-280 dv=0
PairPos2: "'kern' Horizontal Kerning in Arabic lookup 0 subtable" afii57507 dx=0 dy=0 dh=0 dv=0 dx=0 dy=0 dh=100 dv=0
EndChar

StartChar: afii57427
Encoding: 1587 1587 198
Width: 1776
GlyphClass: 2
Flags: W
AnchorPoint: "Anchor-1" 885 -915 basechar 0
AnchorPoint: "Anchor-0" 1305 810 basechar 0
LayerCount: 2
Fore
SplineSet
1739 269 m 0,0,1
 1739 -2 1739 -2 1511 -2 c 0,2,3
 1385 -2 1385 -2 1339 110 c 1,4,5
 1276 -5 1276 -5 1156 -5 c 0,6,7
 1112 -5 1112 -5 1061 11 c 1,8,9
 1057 -104 1057 -104 1047 -233 c 1,10,11
 996 -376 996 -376 827 -454 c 0,12,13
 683 -521 683 -521 513 -521 c 0,14,15
 345 -521 345 -521 237 -437 c 0,16,17
 119 -345 119 -345 119 -182 c 0,18,19
 119 -95 119 -95 162 4 c 0,20,21
 193 75 193 75 226 115 c 0,22,23
 242 134 242 134 255 134 c 0,24,25
 267 134 267 134 267 120 c 0,26,27
 267 111 267 111 261 99 c 0,28,29
 204 -18 204 -18 204 -115 c 0,30,31
 204 -210 204 -210 267 -279 c 0,32,33
 350 -370 350 -370 518 -370 c 0,34,35
 708 -370 708 -370 849 -302 c 0,36,37
 965 -246 965 -246 995 -180 c 0,38,39
 1005 -159 1005 -159 998 -95 c 0,40,41
 991 -32 991 -32 979 0 c 0,42,43
 955 61 955 61 855 190 c 1,44,-1
 911 296 l 2,45,46
 923 319 923 319 929 319 c 0,47,48
 934 319 934 319 947 300 c 0,49,50
 1000 220 1000 220 1020 201 c 0,51,52
 1074 148 1074 148 1150 148 c 0,53,54
 1235 148 1235 148 1273 194 c 0,55,56
 1298 225 1298 225 1313 303 c 0,57,58
 1320 341 1320 341 1337 341 c 0,59,60
 1352 341 1352 341 1356 307 c 0,61,62
 1368 214 1368 214 1411.5 179 c 128,-1,63
 1455 144 1455 144 1552 144 c 0,64,65
 1591 144 1591 144 1622.5 166 c 128,-1,66
 1654 188 1654 188 1654 226 c 0,67,68
 1654 281 1654 281 1580 364 c 1,69,-1
 1645 475 l 2,70,71
 1656 493 1656 493 1660 493 c 0,72,73
 1666 490 1666 490 1676 475 c 0,74,75
 1739 378 1739 378 1739 269 c 0,0,1
EndSplineSet
Substitution2: "'medi' Medial Forms in Arabic lookup 3 subtable" afii62785
Substitution2: "'fina' Terminal Forms in Arabic lookup 2 subtable" afii62786
Substitution2: "'init' Initial Forms in Arabic lookup 1 subtable" afii62784
EndChar

StartChar: afii62786
Encoding: 65202 65202 199
Width: 1901
GlyphClass: 2
Flags: W
AnchorPoint: "Anchor-1" 1125 -855 basechar 0
AnchorPoint: "Anchor-0" 1335 690 basechar 0
LayerCount: 2
Fore
SplineSet
1901 0 m 1,0,-1
 1857 0 l 2,1,2
 1728 0 1728 0 1675 105 c 1,3,4
 1629 -5 1629 -5 1505 -5 c 0,5,6
 1389 -5 1389 -5 1343 109 c 1,7,8
 1280 -6 1280 -6 1162 -6 c 0,9,10
 1118 -6 1118 -6 1067 10 c 1,11,12
 1063 -105 1063 -105 1053 -234 c 1,13,14
 1002 -377 1002 -377 833 -455 c 0,15,16
 689 -522 689 -522 519 -522 c 0,17,18
 351 -522 351 -522 243 -438 c 0,19,20
 125 -346 125 -346 125 -183 c 0,21,22
 125 -96 125 -96 168 3 c 0,23,24
 199 74 199 74 232 114 c 0,25,26
 248 133 248 133 261 133 c 0,27,28
 273 133 273 133 273 119 c 0,29,30
 273 110 273 110 267 98 c 0,31,32
 210 -19 210 -19 210 -116 c 0,33,34
 210 -211 210 -211 273 -280 c 0,35,36
 356 -371 356 -371 524 -371 c 0,37,38
 714 -371 714 -371 855 -303 c 0,39,40
 971 -247 971 -247 1001 -181 c 0,41,42
 1011 -160 1011 -160 1004 -96 c 0,43,44
 997 -33 997 -33 985 -1 c 0,45,46
 961 60 961 60 861 189 c 1,47,-1
 917 295 l 2,48,49
 929 318 929 318 935 318 c 0,50,51
 940 318 940 318 953 299 c 0,52,53
 1006 219 1006 219 1026 200 c 0,54,55
 1080 147 1080 147 1156 147 c 0,56,57
 1241 147 1241 147 1279 193 c 0,58,59
 1304 223 1304 223 1319 302 c 0,60,61
 1326 338 1326 338 1342 338 c 256,62,63
 1358 338 1358 338 1362 306 c 0,64,65
 1383 145 1383 145 1501 145 c 0,66,67
 1643 145 1643 145 1659 297 c 0,68,69
 1663 335 1663 335 1679 335 c 0,70,71
 1697 335 1697 335 1702 298 c 0,72,73
 1722 148 1722 148 1853 148 c 2,74,-1
 1901 148 l 1,75,-1
 1901 0 l 1,0,-1
EndSplineSet
EndChar

StartChar: afii62784
Encoding: 65203 65203 200
Width: 1041
GlyphClass: 2
Flags: W
AnchorPoint: "Anchor-1" 450 -540 basechar 0
AnchorPoint: "Anchor-0" 540 840 basechar 0
LayerCount: 2
Fore
SplineSet
1035 273 m 0,0,1
 1035 159 1035 159 982 85 c 0,2,3
 922 0 922 0 813 0 c 0,4,5
 685 0 685 0 629 105 c 1,6,7
 558 0 558 0 449 0 c 0,8,9
 309 0 309 0 262 105 c 1,10,11
 189 0 189 0 63 0 c 2,12,-1
 -70 0 l 1,13,-1
 -70 148 l 1,14,-1
 76 148 l 2,15,16
 215 148 215 148 240 298 c 0,17,18
 246 335 246 335 264 335 c 0,19,20
 280 335 280 335 284 297 c 0,21,22
 299 148 299 148 445 148 c 0,23,24
 531 148 531 148 567 192 c 0,25,26
 592 223 592 223 603 297 c 0,27,28
 608 333 608 333 624 333 c 0,29,30
 641 333 641 333 646 298 c 0,31,32
 666 148 666 148 800 148 c 0,33,34
 946 148 946 148 946 217 c 0,35,36
 946 272 946 272 874 363 c 1,37,-1
 932 472 l 2,38,39
 946 498 946 498 952 498 c 256,40,41
 958 498 958 498 974 469 c 0,42,43
 1035 358 1035 358 1035 273 c 0,0,1
EndSplineSet
EndChar

StartChar: afii62785
Encoding: 65204 65204 201
Width: 1180
GlyphClass: 2
Flags: W
AnchorPoint: "Anchor-1" 570 -675 basechar 0
AnchorPoint: "Anchor-0" 570 720 basechar 0
LayerCount: 2
Fore
SplineSet
1180 0 m 1,0,-1
 1136 0 l 2,1,2
 1007 0 1007 0 955 105 c 1,3,4
 909 0 909 0 785 0 c 0,5,6
 677 0 677 0 619 105 c 1,7,8
 565 0 565 0 449 0 c 0,9,10
 309 0 309 0 262 105 c 1,11,12
 189 0 189 0 63 0 c 2,13,-1
 -70 0 l 1,14,-1
 -70 148 l 1,15,-1
 76 148 l 2,16,17
 215 148 215 148 240 298 c 0,18,19
 246 335 246 335 264 335 c 0,20,21
 280 335 280 335 284 297 c 0,22,23
 299 148 299 148 445 148 c 0,24,25
 587 148 587 148 603 297 c 0,26,27
 607 335 607 335 623 335 c 0,28,29
 641 335 641 335 646 298 c 0,30,31
 666 148 666 148 780 148 c 0,32,33
 922 148 922 148 938 297 c 0,34,35
 942 335 942 335 958 335 c 0,36,37
 976 335 976 335 981 298 c 0,38,39
 1000 148 1000 148 1133 148 c 2,40,-1
 1180 148 l 1,41,-1
 1180 0 l 1,0,-1
EndSplineSet
EndChar

StartChar: afii57429
Encoding: 1589 1589 206
Width: 1865
GlyphClass: 2
Flags: W
AnchorPoint: "Anchor-1" 1065 -810 basechar 0
AnchorPoint: "Anchor-0" 1095 705 basechar 0
LayerCount: 2
Fore
SplineSet
1836 333 m 0,0,1
 1836 148 1836 148 1628 60 c 0,2,3
 1475 -5 1475 -5 1262 -5 c 0,4,5
 1141 -5 1141 -5 1051 24 c 1,6,7
 1047 -97 1047 -97 1037 -233 c 1,8,9
 986 -376 986 -376 817 -454 c 0,10,11
 673 -521 673 -521 503 -521 c 0,12,13
 335 -521 335 -521 227 -437 c 0,14,15
 109 -345 109 -345 109 -182 c 0,16,17
 109 -95 109 -95 152 4 c 0,18,19
 183 75 183 75 216 115 c 0,20,21
 232 134 232 134 245 134 c 0,22,23
 257 134 257 134 257 120 c 0,24,25
 257 111 257 111 251 99 c 0,26,27
 194 -18 194 -18 194 -115 c 0,28,29
 194 -210 194 -210 257 -279 c 0,30,31
 340 -370 340 -370 508 -370 c 0,32,33
 698 -370 698 -370 839 -302 c 0,34,35
 955 -246 955 -246 985 -180 c 0,36,37
 995 -157 995 -157 990 -99 c 256,38,39
 985 -41 985 -41 969 0 c 0,40,41
 944 64 944 64 845 190 c 1,42,-1
 901 296 l 2,43,44
 913 319 913 319 920 319 c 0,45,46
 926 319 926 319 937 300 c 0,47,48
 988 212 988 212 1067 160 c 1,49,50
 1407 531 1407 531 1624 531 c 0,51,52
 1712 531 1712 531 1774 475.5 c 128,-1,53
 1836 420 1836 420 1836 333 c 0,0,1
1743 259 m 0,54,55
 1743 316 1743 316 1679 356 c 0,56,57
 1624 391 1624 391 1563 391 c 0,58,59
 1385 391 1385 391 1148 148 c 1,60,61
 1202 145 1202 145 1258 145 c 0,62,63
 1390 145 1390 145 1525 164 c 0,64,65
 1743 194 1743 194 1743 259 c 0,54,55
EndSplineSet
Substitution2: "'medi' Medial Forms in Arabic lookup 3 subtable" afii62791
Substitution2: "'fina' Terminal Forms in Arabic lookup 2 subtable" afii62792
Substitution2: "'init' Initial Forms in Arabic lookup 1 subtable" afii62790
EndChar

StartChar: afii62792
Encoding: 65210 65210 207
Width: 1914
GlyphClass: 2
Flags: W
AnchorPoint: "Anchor-1" 1155 -810 basechar 0
AnchorPoint: "Anchor-0" 1155 645 basechar 0
LayerCount: 2
Fore
SplineSet
1914 0 m 1,0,-1
 1840 0 l 2,1,2
 1677 0 1677 0 1560 36 c 1,3,4
 1428 -6 1428 -6 1259 -6 c 0,5,6
 1138 -6 1138 -6 1048 23 c 1,7,8
 1044 -98 1044 -98 1034 -234 c 1,9,10
 983 -377 983 -377 814 -455 c 0,11,12
 670 -522 670 -522 500 -522 c 0,13,14
 332 -522 332 -522 224 -438 c 0,15,16
 106 -346 106 -346 106 -183 c 0,17,18
 106 -96 106 -96 149 3 c 0,19,20
 180 74 180 74 213 114 c 0,21,22
 229 133 229 133 242 133 c 0,23,24
 254 133 254 133 254 119 c 0,25,26
 254 110 254 110 248 98 c 0,27,28
 191 -19 191 -19 191 -116 c 0,29,30
 191 -211 191 -211 254 -280 c 0,31,32
 337 -371 337 -371 505 -371 c 0,33,34
 695 -371 695 -371 836 -303 c 0,35,36
 952 -247 952 -247 982 -181 c 0,37,38
 992 -158 992 -158 987 -100 c 256,39,40
 982 -42 982 -42 966 -1 c 0,41,42
 941 63 941 63 842 189 c 1,43,-1
 898 295 l 2,44,45
 910 318 910 318 917 318 c 0,46,47
 923 318 923 318 934 299 c 0,48,49
 985 211 985 211 1064 159 c 1,50,51
 1404 530 1404 530 1621 530 c 0,52,53
 1709 530 1709 530 1771 474.5 c 128,-1,54
 1833 419 1833 419 1833 332 c 0,55,56
 1833 221 1833 221 1748 139 c 1,57,58
 1771 139 1771 139 1817.5 143.5 c 128,-1,59
 1864 148 1864 148 1887 148 c 2,60,-1
 1914 148 l 1,61,-1
 1914 0 l 1,0,-1
1740 258 m 0,62,63
 1740 315 1740 315 1676 355 c 0,64,65
 1621 390 1621 390 1560 390 c 0,66,67
 1382 390 1382 390 1145 147 c 1,68,69
 1199 144 1199 144 1255 144 c 0,70,71
 1387 144 1387 144 1522 163 c 0,72,73
 1740 193 1740 193 1740 258 c 0,62,63
EndSplineSet
EndChar

StartChar: afii62790
Encoding: 65211 65211 208
Width: 1143
GlyphClass: 2
Flags: W
AnchorPoint: "Anchor-1" 420 -630 basechar 0
AnchorPoint: "Anchor-0" 420 885 basechar 0
LayerCount: 2
Fore
SplineSet
1142 339 m 0,0,1
 1142 147 1142 147 917 61 c 0,2,3
 761 1 761 1 533 1 c 0,4,5
 402 1 402 1 347 15 c 0,6,7
 254 39 254 39 215 117 c 1,8,9
 145 0 145 0 27 0 c 2,10,-1
 -70 0 l 1,11,-1
 -70 148 l 1,12,-1
 26 148 l 2,13,14
 171 148 171 148 197 295 c 0,15,16
 203 331 203 331 221 331 c 256,17,18
 239 331 239 331 243 295 c 0,19,20
 258 160 258 160 366 154 c 1,21,22
 722 537 722 537 930 537 c 0,23,24
 1018 537 1018 537 1080 481.5 c 128,-1,25
 1142 426 1142 426 1142 339 c 0,0,1
1049 265 m 0,26,27
 1049 322 1049 322 985 362 c 0,28,29
 930 397 930 397 869 397 c 0,30,31
 689 397 689 397 455 154 c 1,32,33
 509 151 509 151 564 151 c 0,34,35
 692 151 692 151 831 171 c 0,36,37
 1049 202 1049 202 1049 265 c 0,26,27
EndSplineSet
EndChar

StartChar: afii62791
Encoding: 65212 65212 209
Width: 1224
GlyphClass: 2
Flags: W
AnchorPoint: "Anchor-1" 375 -645 basechar 0
AnchorPoint: "Anchor-0" 420 810 basechar 0
LayerCount: 2
Fore
SplineSet
1224 0 m 1,0,-1
 1149 0 l 2,1,2
 1017 0 1017 0 869 43 c 1,3,4
 737 1 737 1 533 1 c 0,5,6
 402 1 402 1 347 15 c 0,7,8
 254 39 254 39 215 117 c 1,9,10
 145 0 145 0 27 0 c 2,11,-1
 -70 0 l 1,12,-1
 -70 148 l 1,13,-1
 26 148 l 2,14,15
 171 148 171 148 197 295 c 0,16,17
 203 331 203 331 221 331 c 256,18,19
 239 331 239 331 243 295 c 0,20,21
 258 160 258 160 366 154 c 1,22,23
 722 537 722 537 930 537 c 0,24,25
 1018 537 1018 537 1080 481.5 c 128,-1,26
 1142 426 1142 426 1142 339 c 0,27,28
 1142 221 1142 221 1057 137 c 1,29,30
 1080 137 1080 137 1126.5 142.5 c 128,-1,31
 1173 148 1173 148 1196 148 c 2,32,-1
 1224 148 l 1,33,-1
 1224 0 l 1,0,-1
1049 265 m 0,34,35
 1049 322 1049 322 985 362 c 0,36,37
 930 397 930 397 869 397 c 0,38,39
 689 397 689 397 455 154 c 1,40,41
 509 151 509 151 564 151 c 0,42,43
 692 151 692 151 831 171 c 0,44,45
 1049 202 1049 202 1049 265 c 0,34,35
EndSplineSet
EndChar

StartChar: afii57431
Encoding: 1591 1591 214
Width: 1313
GlyphClass: 2
Flags: W
AnchorPoint: "Anchor-1" 615 -540 basechar 0
AnchorPoint: "Anchor-0" 1020 1140 basechar 0
LayerCount: 2
Fore
SplineSet
1280 348 m 0,0,1
 1280 130 1280 130 1018 52 c 0,2,3
 851 2 851 2 510 2 c 0,4,5
 366 2 366 2 306 18 c 0,6,7
 173 53 173 53 120 174 c 0,8,9
 111 194 111 194 111 200 c 0,10,11
 111 205 111 205 116 205 c 0,12,13
 122 205 122 205 143 195 c 0,14,15
 236 151 236 151 387 151 c 0,16,17
 447 151 447 151 467 174 c 0,18,19
 483 192 483 192 482 244 c 0,20,21
 481 343 481 343 476 535 c 0,22,23
 463 870 463 870 431 1102 c 1,24,-1
 522 1194 l 2,25,26
 535 1207 535 1207 539 1208 c 0,27,28
 544 1208 544 1208 552 1179 c 0,29,30
 571 1107 571 1107 607 1022 c 0,31,32
 616 1000 616 1000 614 996 c 0,33,34
 609 994 609 994 594 994 c 2,35,-1
 554 994 l 1,36,37
 573 649 573 649 573 585 c 2,38,-1
 573 447 l 2,39,40
 573 371 573 371 538 229 c 1,41,42
 550 229 550 229 635 309 c 0,43,44
 741 409 741 409 819 458 c 0,45,46
 945 538 945 538 1056 538 c 0,47,48
 1151 538 1151 538 1212 492 c 0,49,50
 1280 440 1280 440 1280 348 c 0,0,1
1191 265 m 0,51,52
 1191 327 1191 327 1118 370 c 0,53,54
 1055 407 1055 407 989 407 c 0,55,56
 848 407 848 407 550 159 c 1,57,58
 633 150 633 150 719 150 c 0,59,60
 832 150 832 150 979 173 c 0,61,62
 1191 206 1191 206 1191 265 c 0,51,52
EndSplineSet
Substitution2: "'medi' Medial Forms in Arabic lookup 3 subtable" afii62797
Substitution2: "'fina' Terminal Forms in Arabic lookup 2 subtable" afii62798
Substitution2: "'init' Initial Forms in Arabic lookup 1 subtable" afii62796
EndChar

StartChar: afii62798
Encoding: 65218 65218 215
Width: 1409
GlyphClass: 2
Flags: W
AnchorPoint: "Anchor-1" 645 -555 basechar 0
AnchorPoint: "Anchor-0" 975 1065 basechar 0
LayerCount: 2
Fore
SplineSet
1409 -1 m 1,0,-1
 1383 -1 l 2,1,2
 1206 -1 1206 -1 1061 40 c 1,3,4
 897 1 897 1 557 1 c 0,5,6
 413 1 413 1 353 17 c 0,7,8
 220 52 220 52 167 173 c 0,9,10
 158 193 158 193 158 199 c 0,11,12
 158 204 158 204 163 204 c 0,13,14
 169 204 169 204 190 194 c 0,15,16
 283 150 283 150 434 150 c 0,17,18
 490 150 490 150 510 169 c 128,-1,19
 530 188 530 188 529 243 c 0,20,21
 528 342 528 342 523 534 c 0,22,23
 510 869 510 869 478 1101 c 1,24,-1
 569 1193 l 2,25,26
 582 1206 582 1206 586 1207 c 0,27,28
 591 1207 591 1207 599 1178 c 0,29,30
 618 1106 618 1106 654 1021 c 0,31,32
 663 999 663 999 661 995 c 0,33,34
 656 993 656 993 641 993 c 2,35,-1
 601 993 l 1,36,37
 620 648 620 648 620 584 c 2,38,-1
 620 446 l 2,39,40
 620 370 620 370 585 228 c 1,41,42
 597 228 597 228 682 308 c 0,43,44
 788 408 788 408 866 457 c 0,45,46
 992 537 992 537 1103 537 c 0,47,48
 1198 537 1198 537 1259 491 c 0,49,50
 1327 439 1327 439 1327 347 c 0,51,52
 1327 214 1327 214 1235 136 c 1,53,54
 1260 136 1260 136 1309 142 c 128,-1,55
 1358 148 1358 148 1383 148 c 2,56,-1
 1409 148 l 1,57,-1
 1409 -1 l 1,0,-1
1238 264 m 0,58,59
 1238 326 1238 326 1165 369 c 0,60,61
 1102 406 1102 406 1036 406 c 0,62,63
 895 406 895 406 597 158 c 1,64,65
 680 149 680 149 766 149 c 0,66,67
 879 149 879 149 1026 172 c 0,68,69
 1238 205 1238 205 1238 264 c 0,58,59
EndSplineSet
EndChar

StartChar: afii62796
Encoding: 65219 65219 216
Width: 1028
GlyphClass: 2
Flags: W
AnchorPoint: "Anchor-1" 375 -600 basechar 0
AnchorPoint: "Anchor-0" 690 1050 basechar 0
LayerCount: 2
Fore
SplineSet
1001 347 m 0,0,1
 1001 136 1001 136 771 57 c 0,2,3
 604 0 604 0 231 0 c 2,4,-1
 -70 0 l 1,5,-1
 -70 148 l 1,6,-1
 108 148 l 2,7,8
 169 148 169 148 189 173 c 0,9,10
 204 192 204 192 203 252 c 0,11,12
 202 349 202 349 197 539 c 0,13,14
 184 869 184 869 152 1101 c 1,15,-1
 243 1193 l 2,16,17
 256 1206 256 1206 260 1207 c 0,18,19
 265 1207 265 1207 273 1178 c 0,20,21
 292 1106 292 1106 328 1021 c 0,22,23
 337 999 337 999 335 995 c 0,24,25
 330 993 330 993 315 993 c 2,26,-1
 275 993 l 1,27,28
 294 648 294 648 294 584 c 2,29,-1
 294 446 l 2,30,31
 294 370 294 370 259 228 c 1,32,33
 271 228 271 228 356 308 c 0,34,35
 462 408 462 408 540 457 c 0,36,37
 666 537 666 537 777 537 c 0,38,39
 872 537 872 537 933 491 c 0,40,41
 1001 439 1001 439 1001 347 c 0,0,1
912 264 m 0,42,43
 912 326 912 326 839 369 c 0,44,45
 776 406 776 406 710 406 c 0,46,47
 569 406 569 406 271 158 c 1,48,49
 354 149 354 149 440 149 c 0,50,51
 553 149 553 149 700 172 c 0,52,53
 912 205 912 205 912 264 c 0,42,43
EndSplineSet
EndChar

StartChar: afii62797
Encoding: 65220 65220 217
Width: 1083
GlyphClass: 2
Flags: W
AnchorPoint: "Anchor-1" 510 -585 basechar 0
AnchorPoint: "Anchor-0" 675 1035 basechar 0
LayerCount: 2
Fore
SplineSet
1083 -1 m 1,0,-1
 1057 -1 l 2,1,2
 880 -1 880 -1 735 40 c 1,3,4
 567 0 567 0 231 0 c 2,5,-1
 -70 0 l 1,6,-1
 -70 148 l 1,7,-1
 108 148 l 2,8,9
 169 148 169 148 189 174 c 0,10,11
 204 194 204 194 203 252 c 0,12,13
 202 349 202 349 197 539 c 0,14,15
 184 869 184 869 152 1101 c 1,16,-1
 243 1193 l 2,17,18
 256 1206 256 1206 260 1207 c 0,19,20
 265 1207 265 1207 273 1178 c 0,21,22
 292 1106 292 1106 328 1021 c 0,23,24
 337 999 337 999 335 995 c 0,25,26
 330 993 330 993 315 993 c 2,27,-1
 275 993 l 1,28,29
 294 648 294 648 294 584 c 2,30,-1
 294 446 l 2,31,32
 294 370 294 370 259 228 c 1,33,34
 271 228 271 228 356 308 c 0,35,36
 462 408 462 408 540 457 c 0,37,38
 666 537 666 537 777 537 c 0,39,40
 872 537 872 537 933 491 c 0,41,42
 1001 439 1001 439 1001 347 c 0,43,44
 1001 214 1001 214 909 136 c 1,45,46
 934 136 934 136 983 142 c 128,-1,47
 1032 148 1032 148 1057 148 c 2,48,-1
 1083 148 l 1,49,-1
 1083 -1 l 1,0,-1
912 264 m 0,50,51
 912 326 912 326 839 369 c 0,52,53
 776 406 776 406 710 406 c 0,54,55
 569 406 569 406 271 158 c 1,56,57
 354 149 354 149 440 149 c 0,58,59
 553 149 553 149 700 172 c 0,60,61
 912 205 912 205 912 264 c 0,50,51
EndSplineSet
EndChar

StartChar: afii57433
Encoding: 1593 1593 222
Width: 895
GlyphClass: 2
Flags: W
AnchorPoint: "Anchor-1" 540 -1020 basechar 0
AnchorPoint: "Anchor-0" 585 1035 basechar 0
LayerCount: 2
Fore
SplineSet
995 -436 m 0,0,1
 869 -568 869 -568 588 -568 c 0,2,3
 396 -568 396 -568 272 -481 c 0,4,5
 130 -382 130 -382 130 -198 c 0,6,7
 130 79 130 79 424 248 c 1,8,9
 266 316 266 316 266 440 c 0,10,11
 266 540 266 540 359 646 c 0,12,13
 458 758 458 758 567 758 c 0,14,15
 690 758 690 758 760 642 c 0,16,17
 776 616 776 616 776 606 c 0,18,19
 776 599 776 599 767 599 c 0,20,21
 757 599 757 599 732 608 c 0,22,23
 686 625 686 625 574 625 c 0,24,25
 519 625 519 625 443 592 c 0,26,27
 354 554 354 554 354 507 c 0,28,29
 354 449 354 449 438 394 c 0,30,31
 516 343 516 343 578 343 c 0,32,33
 625 343 625 343 849 416 c 0,34,35
 880 426 880 426 884 426 c 0,36,37
 889 426 889 426 889 420 c 0,38,39
 889 413 889 413 881 389 c 2,40,-1
 844 277 l 1,41,42
 216 143 216 143 216 -127 c 0,43,44
 216 -292 216 -292 386 -369 c 0,45,46
 511 -425 511 -425 699 -425 c 0,47,48
 876 -425 876 -425 976 -394 c 0,49,50
 1015 -382 1015 -382 1025 -382 c 0,51,52
 1033 -382 1033 -382 1033 -387 c 0,53,54
 1033 -396 1033 -396 995 -436 c 0,0,1
EndSplineSet
Substitution2: "'medi' Medial Forms in Arabic lookup 3 subtable" afii62803
Substitution2: "'fina' Terminal Forms in Arabic lookup 2 subtable" afii62804
Substitution2: "'init' Initial Forms in Arabic lookup 1 subtable" afii62802
EndChar

StartChar: afii62804
Encoding: 65226 65226 223
Width: 1013
GlyphClass: 2
Flags: W
AnchorPoint: "Anchor-1" 480 -990 basechar 0
AnchorPoint: "Anchor-0" 555 780 basechar 0
LayerCount: 2
Fore
SplineSet
1013 0 m 1,0,-1
 987 0 l 2,1,2
 693 0 693 0 510 225 c 1,3,4
 193 48 193 48 193 -135 c 0,5,6
 193 -431 193 -431 671 -431 c 0,7,8
 841 -431 841 -431 966 -392 c 0,9,10
 992 -384 992 -384 1004 -384 c 0,11,12
 1013 -384 1013 -384 1013 -389 c 0,13,14
 1013 -400 1013 -400 974 -439 c 0,15,16
 841 -570 841 -570 581 -570 c 0,17,18
 376 -570 376 -570 253 -491 c 0,19,20
 107 -397 107 -397 107 -204 c 0,21,22
 107 -30 107 -30 234 114 c 0,23,24
 302 191 302 191 443 286 c 1,25,26
 365 381 365 381 324 392 c 0,27,28
 280 404 280 404 280 418 c 0,29,30
 280 427 280 427 292 450 c 0,31,32
 355 570 355 570 516 570 c 0,33,34
 741 570 741 570 741 436 c 0,35,36
 741 370 741 370 611 279 c 1,37,38
 670 218 670 218 780 181 c 0,39,40
 879 148 879 148 974 148 c 2,41,-1
 1013 148 l 1,42,-1
 1013 0 l 1,0,-1
EndSplineSet
EndChar

StartChar: afii62802
Encoding: 65227 65227 224
Width: 744
GlyphClass: 2
Flags: W
AnchorPoint: "Anchor-1" 285 -555 basechar 0
AnchorPoint: "Anchor-0" 405 960 basechar 0
LayerCount: 2
Fore
SplineSet
701 249 m 2,0,-1
 661 130 l 1,1,-1
 312 38 l 2,2,3
 165 0 165 0 43 0 c 2,4,-1
 -70 0 l 1,5,-1
 -70 148 l 1,6,-1
 81 148 l 2,7,8
 111 148 111 148 178 158 c 1,9,10
 66 246 66 246 66 332 c 0,11,12
 66 408 66 408 159 525 c 0,13,14
 267 660 267 660 388 660 c 0,15,16
 513 660 513 660 595 540 c 0,17,18
 622 500 622 500 622 489 c 0,19,20
 622 481 622 481 609 481 c 0,21,22
 593 481 593 481 551 492 c 0,23,24
 455 517 455 517 389 517 c 0,25,26
 333 517 333 517 260 482 c 0,27,28
 176 442 176 442 176 392 c 0,29,30
 176 351 176 351 242 287 c 0,31,32
 323 209 323 209 421 209 c 0,33,34
 452 209 452 209 686 273 c 0,35,36
 704 278 704 278 706 278 c 0,37,38
 707 275 707 275 709 272 c 0,39,40
 705 262 705 262 701 249 c 2,0,-1
EndSplineSet
EndChar

StartChar: afii62803
Encoding: 65228 65228 225
Width: 719
GlyphClass: 2
Flags: W
AnchorPoint: "Anchor-1" 300 -585 basechar 0
AnchorPoint: "Anchor-0" 390 810 basechar 0
LayerCount: 2
Fore
SplineSet
719 0 m 1,0,-1
 665 0 l 2,1,2
 474 0 474 0 375 126 c 1,3,4
 260 0 260 0 78 0 c 2,5,-1
 -70 0 l 1,6,-1
 -70 148 l 1,7,-1
 100 148 l 2,8,9
 229 148 229 148 291 200 c 1,10,11
 280 232 280 232 244 275 c 0,12,13
 205 320 205 320 176 328 c 0,14,15
 135 339 135 339 135 355 c 0,16,17
 135 364 135 364 144 385 c 0,18,19
 195 505 195 505 363 505 c 0,20,21
 576 505 576 505 576 372 c 0,22,23
 576 313 576 313 459 211 c 1,24,25
 487 182 487 182 552 163 c 0,26,27
 604 148 604 148 643 148 c 2,28,-1
 719 148 l 1,29,-1
 719 0 l 1,0,-1
EndSplineSet
EndChar

StartChar: afii57443
Encoding: 1603 1603 238
Width: 1149
GlyphClass: 2
Flags: W
AnchorPoint: "Anchor-1" 480 -495 basechar 0
AnchorPoint: "Anchor-0" 585 1095 basechar 0
LayerCount: 2
Fore
SplineSet
1104 1008 m 0,0,1
 1107 1000 1107 1000 1109 994.5 c 128,-1,2
 1111 989 1111 989 1111 986 c 0,3,4
 1111 982 1111 982 1106 981 c 128,-1,5
 1101 980 1101 980 1086 980 c 2,6,-1
 1043 980 l 1,7,8
 1065 581 1065 581 1070 314 c 0,9,10
 1070 196 1070 196 1016 121.5 c 128,-1,11
 962 47 962 47 838 16 c 0,12,13
 776 0 776 0 629 -4 c 1,14,15
 113 0 113 0 113 239 c 0,16,17
 113 294 113 294 127 347.5 c 128,-1,18
 141 401 141 401 176 459 c 0,19,20
 193 485 193 485 207 485 c 0,21,22
 219 485 219 485 219 469 c 0,23,24
 219 462 219 462 214 447 c 0,25,26
 186 381 186 381 186 336 c 0,27,28
 186 270 186 270 244 224 c 128,-1,29
 302 178 302 178 407 157 c 0,30,31
 439 150 439 150 501 147 c 128,-1,32
 563 144 563 144 655 144 c 0,33,34
 743 144 743 144 804 152 c 128,-1,35
 865 160 865 160 902.5 176.5 c 128,-1,36
 940 193 940 193 956.5 218 c 128,-1,37
 973 243 973 243 973 277 c 0,38,39
 967 537 967 537 954 738 c 128,-1,40
 941 939 941 939 921 1090 c 1,41,-1
 1010 1172 l 2,42,43
 1018 1179 1018 1179 1023.5 1182.5 c 128,-1,44
 1029 1186 1029 1186 1031 1188 c 0,45,46
 1034 1186 1034 1186 1040 1170.5 c 128,-1,47
 1046 1155 1046 1155 1055.5 1130.5 c 128,-1,48
 1065 1106 1065 1106 1077 1074 c 128,-1,49
 1089 1042 1089 1042 1104 1008 c 0,0,1
745 564 m 2,50,-1
 729 501 l 1,51,52
 591 474 591 474 442 421 c 1,53,-1
 442 468 l 1,54,55
 464 482 464 482 485 493.5 c 128,-1,56
 506 505 506 505 526 515 c 1,57,58
 445 570 445 570 445 608 c 0,59,60
 445 645 445 645 498 709 c 0,61,62
 555 778 555 778 609 778 c 0,63,64
 676 778 676 778 707 714 c 0,65,66
 712 701 712 701 712 695 c 0,67,68
 712 682 712 682 698 682 c 0,69,70
 692 682 692 682 683 685 c 0,71,72
 650 697 650 697 600 697 c 0,73,74
 588 697 588 697 574.5 693 c 128,-1,75
 561 689 561 689 549 683 c 128,-1,76
 537 677 537 677 529 668.5 c 128,-1,77
 521 660 521 660 521 651 c 0,78,79
 521 636 521 636 532 621 c 128,-1,80
 543 606 543 606 561.5 594 c 128,-1,81
 580 582 580 582 604 574 c 128,-1,82
 628 566 628 566 655 566 c 0,83,84
 685 566 685 566 720 575 c 2,85,-1
 741 580 l 2,86,87
 748 580 748 580 747 573 c 0,88,89
 747 572 747 572 745 564 c 2,50,-1
EndSplineSet
Substitution2: "'medi' Medial Forms in Arabic lookup 3 subtable" afii52306
Substitution2: "'fina' Terminal Forms in Arabic lookup 2 subtable" afii62816
Substitution2: "'init' Initial Forms in Arabic lookup 1 subtable" afii52305
EndChar

StartChar: afii62816
Encoding: 65242 65242 239
Width: 1165
GlyphClass: 2
Flags: W
AnchorPoint: "Anchor-1" 465 -525 basechar 0
AnchorPoint: "Anchor-0" 510 1065 basechar 0
LayerCount: 2
Fore
SplineSet
1165 0 m 1,0,-1
 1139 0 l 2,1,2
 973 0 973 0 910 122 c 1,3,4
 902 97 902 97 883 74.5 c 128,-1,5
 864 52 864 52 837.5 35.5 c 128,-1,6
 811 19 811 19 779.5 9.5 c 128,-1,7
 748 0 748 0 711 -2 c 2,8,-1
 533 -5 l 1,9,-1
 494 -5 l 2,10,11
 25 -5 25 -5 25 261 c 0,12,13
 25 357 25 357 87 458 c 0,14,15
 104 484 104 484 118 484 c 0,16,17
 130 484 130 484 130 468 c 0,18,19
 130 459 130 459 125 446 c 0,20,21
 97 378 97 378 97 335 c 0,22,23
 97 291 97 291 123.5 255.5 c 128,-1,24
 150 220 150 220 199 195 c 128,-1,25
 248 170 248 170 318.5 156.5 c 128,-1,26
 389 143 389 143 717 148 c 0,27,28
 876 148 876 148 876 281 c 2,29,-1
 876 724 l 2,30,31
 876 852 876 852 873 948 c 128,-1,32
 870 1044 870 1044 865 1112 c 1,33,-1
 974 1204 l 1,34,-1
 974 343 l 2,35,36
 974 148 974 148 1140 148 c 2,37,-1
 1165 148 l 1,38,-1
 1165 0 l 1,0,-1
676 563 m 2,39,-1
 660 500 l 1,40,41
 520 473 520 473 373 420 c 1,42,-1
 373 467 l 1,43,44
 417 494 417 494 457 514 c 1,45,46
 376 569 376 569 376 607 c 256,47,48
 376 645 376 645 429 708 c 0,49,50
 487 777 487 777 540 777 c 0,51,52
 606 777 606 777 638 713 c 0,53,54
 647 694 647 694 641 685 c 0,55,56
 634 677 634 677 614 684 c 0,57,58
 581 696 581 696 531 696 c 0,59,60
 510 696 510 696 483 684 c 0,61,62
 452 669 452 669 452 650 c 0,63,64
 452 625 452 625 485 598 c 0,65,66
 525 565 525 565 586 565 c 0,67,68
 617 565 617 565 651 574 c 2,69,-1
 662 577 l 2,70,71
 668 578 668 578 672 579 c 0,72,73
 676 578 676 578 677 577 c 0,74,75
 679 573 679 573 676 563 c 2,39,-1
EndSplineSet
EndChar

StartChar: afii57444
Encoding: 1604 1604 242
Width: 1102
GlyphClass: 2
Flags: W
AnchorPoint: "Anchor-1" 525 -975 basechar 0
AnchorPoint: "Anchor-0" 660 1155 basechar 0
LayerCount: 2
Fore
SplineSet
1094 1008 m 0,0,1
 1097 1000 1097 1000 1099 994.5 c 128,-1,2
 1101 989 1101 989 1101 986 c 0,3,4
 1101 982 1101 982 1096 981 c 128,-1,5
 1091 980 1091 980 1076 980 c 2,6,-1
 1033 980 l 1,7,8
 1048 705 1048 705 1055 495 c 128,-1,9
 1062 285 1062 285 1062 134 c 0,10,11
 1062 29 1062 29 1059 -46 c 0,12,13
 1036 -499 1036 -499 530 -499 c 0,14,15
 442 -499 442 -499 372.5 -479 c 128,-1,16
 303 -459 303 -459 254.5 -420 c 128,-1,17
 206 -381 206 -381 180.5 -324 c 128,-1,18
 155 -267 155 -267 155 -193 c 0,19,20
 155 -33 155 -33 243 91 c 0,21,22
 253 106 253 106 266 106 c 0,23,24
 282 106 282 106 282 87 c 0,25,26
 282 78 282 78 278 69 c 0,27,28
 236 -36 236 -36 236 -107 c 0,29,30
 236 -165 236 -165 257.5 -210.5 c 128,-1,31
 279 -256 279 -256 317.5 -287.5 c 128,-1,32
 356 -319 356 -319 410 -336 c 128,-1,33
 464 -353 464 -353 529 -353 c 0,34,35
 714 -353 714 -353 848 -284 c 0,36,37
 967 -222 967 -222 967 -158 c 0,38,39
 967 258 967 258 953 570 c 128,-1,40
 939 882 939 882 911 1090 c 1,41,-1
 1000 1172 l 2,42,43
 1016 1186 1016 1186 1021 1188 c 0,44,45
 1024 1186 1024 1186 1030 1170.5 c 128,-1,46
 1036 1155 1036 1155 1045 1130.5 c 128,-1,47
 1054 1106 1054 1106 1066.5 1074 c 128,-1,48
 1079 1042 1079 1042 1094 1008 c 0,0,1
EndSplineSet
Substitution2: "'medi' Medial Forms in Arabic lookup 3 subtable" afii62818
Substitution2: "'fina' Terminal Forms in Arabic lookup 2 subtable" afii62819
Substitution2: "'init' Initial Forms in Arabic lookup 1 subtable" afii62817
EndChar

StartChar: afii62817
Encoding: 65247 65247 243
Width: 328
GlyphClass: 2
Flags: W
AnchorPoint: "Anchor-1" 105 -525 basechar 0
AnchorPoint: "Anchor-0" 195 1350 basechar 0
LayerCount: 2
Fore
SplineSet
320 1016 m 0,0,1
 328 994 328 994 328 988 c 0,2,3
 328 984 328 984 324.5 983 c 128,-1,4
 321 982 321 982 307 982 c 2,5,-1
 266 982 l 1,6,7
 275 796 275 796 275 505 c 0,8,9
 275 498 275 498 275 479 c 128,-1,10
 275 460 275 460 275 435.5 c 128,-1,11
 275 411 275 411 274.5 383 c 128,-1,12
 274 355 274 355 274 330 c 128,-1,13
 274 305 274 305 274 285.5 c 128,-1,14
 274 266 274 266 274 258 c 0,15,16
 273 199 273 199 257.5 151 c 128,-1,17
 242 103 242 103 213 69.5 c 128,-1,18
 184 36 184 36 142.5 18 c 128,-1,19
 101 0 101 0 49 0 c 2,20,-1
 -70 0 l 1,21,-1
 -70 148 l 1,22,-1
 42 148 l 2,23,24
 188 148 188 148 188 256 c 2,25,-1
 188 263 l 1,26,27
 180 463 180 463 169.5 670.5 c 128,-1,28
 159 878 159 878 145 1098 c 1,29,-1
 230 1179 l 2,30,31
 248 1197 248 1197 254 1199 c 0,32,33
 256 1197 256 1197 261.5 1180.5 c 128,-1,34
 267 1164 267 1164 275.5 1139 c 128,-1,35
 284 1114 284 1114 295 1082 c 128,-1,36
 306 1050 306 1050 320 1016 c 0,0,1
EndSplineSet
EndChar

StartChar: afii62818
Encoding: 65248 65248 244
Width: 473
GlyphClass: 2
Flags: W
AnchorPoint: "Anchor-1" 225 -510 basechar 0
AnchorPoint: "Anchor-0" 180 1350 basechar 0
LayerCount: 2
Fore
SplineSet
473 0 m 1,0,-1
 447 0 l 2,1,2
 281 0 281 0 218 122 c 1,3,4
 201 68 201 68 140 32 c 0,5,6
 84 0 84 0 23 0 c 2,7,-1
 -70 0 l 1,8,-1
 -70 148 l 1,9,-1
 25 148 l 2,10,11
 184 148 184 148 184 281 c 2,12,-1
 184 724 l 2,13,14
 184 977 184 977 173 1112 c 1,15,-1
 282 1204 l 1,16,-1
 282 343 l 2,17,18
 282 148 282 148 448 148 c 2,19,-1
 473 148 l 1,20,-1
 473 0 l 1,0,-1
EndSplineSet
EndChar

StartChar: afii57445
Encoding: 1605 1605 245
Width: 861
GlyphClass: 2
Flags: W
AnchorPoint: "Anchor-1" 450 -855 basechar 0
AnchorPoint: "Anchor-0" 555 795 basechar 0
LayerCount: 2
Fore
SplineSet
817 254 m 0,0,1
 817 240 817 240 804.5 210.5 c 128,-1,2
 792 181 792 181 775 151.5 c 128,-1,3
 758 122 758 122 739 100 c 128,-1,4
 720 78 720 78 707 78 c 0,5,6
 697 78 697 78 674 81 c 128,-1,7
 651 84 651 84 621.5 88 c 128,-1,8
 592 92 592 92 559 97.5 c 128,-1,9
 526 103 526 103 494.5 107 c 128,-1,10
 463 111 463 111 437.5 114 c 128,-1,11
 412 117 412 117 397 117 c 0,12,13
 295 117 295 117 250 96 c 1,14,15
 283 -236 283 -236 283 -389 c 0,16,17
 283 -424 283 -424 270 -465.5 c 128,-1,18
 257 -507 257 -507 232 -556 c 0,19,20
 221 -577 221 -577 216 -579 c 0,21,22
 211 -579 211 -579 210 -560 c 0,23,24
 199 -405 199 -405 185.5 -251 c 128,-1,25
 172 -97 172 -97 155 60 c 0,26,27
 155 62 155 62 154.5 63.5 c 128,-1,28
 154 65 154 65 154 67 c 0,29,30
 154 82 154 82 164 104 c 128,-1,31
 174 126 174 126 189 148 c 128,-1,32
 204 170 204 170 221 189 c 128,-1,33
 238 208 238 208 252 218 c 0,34,35
 293 247 293 247 348 247 c 1,36,37
 334 303 334 303 334 334 c 0,38,39
 334 398 334 398 383 469 c 0,40,41
 440 552 440 552 513 552 c 0,42,43
 599 552 599 552 708 446 c 256,44,45
 817 340 817 340 817 254 c 0,0,1
715 211 m 1,46,47
 701 245 701 245 674.5 280.5 c 128,-1,48
 648 316 648 316 616 345 c 128,-1,49
 584 374 584 374 549.5 392 c 128,-1,50
 515 410 515 410 486 410 c 0,51,52
 398 410 398 410 398 344 c 0,53,54
 398 309 398 309 418 247 c 1,55,56
 545 247 545 247 715 211 c 1,46,47
EndSplineSet
Substitution2: "'medi' Medial Forms in Arabic lookup 3 subtable" afii62821
Substitution2: "'fina' Terminal Forms in Arabic lookup 2 subtable" afii62822
Substitution2: "'init' Initial Forms in Arabic lookup 1 subtable" afii62820
EndChar

StartChar: afii62822
Encoding: 65250 65250 246
Width: 1031
GlyphClass: 2
Flags: W
AnchorPoint: "Anchor-1" 570 -780 basechar 0
AnchorPoint: "Anchor-0" 570 735 basechar 0
LayerCount: 2
Fore
SplineSet
1031 0 m 1,0,-1
 996 0 l 2,1,2
 878 0 878 0 817 52 c 1,3,4
 825 23 825 23 825 -18 c 0,5,6
 825 -218 825 -218 692 -218 c 0,7,8
 582 -218 582 -218 518 -98 c 0,9,10
 465 2 465 2 465 120 c 0,11,12
 465 146 465 146 468 170 c 1,13,14
 448 173 448 173 429 173 c 0,15,16
 304 173 304 173 247 108 c 1,17,18
 267 -48 267 -48 277 -163.5 c 128,-1,19
 287 -279 287 -279 287 -355 c 0,20,21
 287 -430 287 -430 248 -533 c 0,22,23
 235 -570 235 -570 227 -570 c 256,24,25
 219 -570 219 -570 215 -521 c 2,26,-1
 155 73 l 2,27,28
 155 75 155 75 154.5 76.5 c 128,-1,29
 154 78 154 78 154 80 c 0,30,31
 154 97 154 97 166.5 123 c 128,-1,32
 179 149 179 149 197.5 176 c 128,-1,33
 216 203 216 203 237.5 227 c 128,-1,34
 259 251 259 251 278 265 c 0,35,36
 289 273 289 273 314 281.5 c 128,-1,37
 339 290 339 290 368 297.5 c 128,-1,38
 397 305 397 305 427 309.5 c 128,-1,39
 457 314 457 314 479 314 c 0,40,41
 484 314 484 314 489 314 c 128,-1,42
 494 314 494 314 499 313 c 1,43,-1
 518 395 l 2,44,45
 524 420 524 420 530 420 c 0,46,47
 535 419 535 419 550 406 c 0,48,49
 704 269 704 269 773 222 c 0,50,51
 884 148 884 148 982 148 c 2,52,-1
 1031 148 l 1,53,-1
 1031 0 l 1,0,-1
767 8 m 0,54,55
 767 61 767 61 688 133 c 0,56,57
 678 141 678 141 642.5 172.5 c 128,-1,58
 607 204 607 204 544 258 c 1,59,60
 542 239 542 239 540.5 220.5 c 128,-1,61
 539 202 539 202 539 185 c 0,62,63
 539 133 539 133 550 88.5 c 128,-1,64
 561 44 561 44 581 11 c 128,-1,65
 601 -22 601 -22 629 -41 c 128,-1,66
 657 -60 657 -60 692 -60 c 0,67,68
 767 -60 767 -60 767 8 c 0,54,55
EndSplineSet
EndChar

StartChar: afii62820
Encoding: 65251 65251 247
Width: 662
GlyphClass: 2
Flags: W
AnchorPoint: "Anchor-1" 240 -600 basechar 0
AnchorPoint: "Anchor-0" 315 780 basechar 0
LayerCount: 2
Fore
SplineSet
661 254 m 0,0,1
 662 244 662 244 662 234.5 c 128,-1,2
 662 225 662 225 662 216 c 0,3,4
 662 163 662 163 649 121.5 c 128,-1,5
 636 80 636 80 617 52 c 128,-1,6
 598 24 598 24 576.5 9.5 c 128,-1,7
 555 -5 555 -5 537 -5 c 0,8,9
 435 -5 435 -5 247 126 c 1,10,11
 188 57 188 57 166 39 c 0,12,13
 116 0 116 0 43 0 c 2,14,-1
 -70 0 l 1,15,-1
 -70 148 l 1,16,-1
 65 148 l 2,17,18
 103 148 103 148 131 161 c 128,-1,19
 159 174 159 174 187 204 c 128,-1,20
 215 234 215 234 248.5 282 c 128,-1,21
 282 330 282 330 331 399 c 0,22,23
 394 487 394 487 460 487 c 0,24,25
 554 487 554 487 612 393 c 0,26,27
 655 325 655 325 661 254 c 0,0,1
585 160 m 0,28,29
 585 189 585 189 572 223 c 128,-1,30
 559 257 559 257 538.5 286.5 c 128,-1,31
 518 316 518 316 492 336 c 128,-1,32
 466 356 466 356 440 356 c 0,33,34
 382 356 382 356 306 239 c 1,35,36
 320 223 320 223 353 203.5 c 128,-1,37
 386 184 386 184 423.5 167 c 128,-1,38
 461 150 461 150 497.5 138.5 c 128,-1,39
 534 127 534 127 555 127 c 0,40,41
 585 127 585 127 585 160 c 0,28,29
EndSplineSet
EndChar

StartChar: afii57446
Encoding: 1606 1606 248
Width: 1153
GlyphClass: 2
Flags: W
AnchorPoint: "Anchor-1" 525 -1005 basechar 0
AnchorPoint: "Anchor-0" 615 900 basechar 0
LayerCount: 2
Fore
SplineSet
1105 19 m 0,0,1
 1116 -48 1116 -48 1116 -93 c 0,2,3
 1116 -164 1116 -164 1092 -233 c 0,4,5
 1042 -375 1042 -375 867 -455 c 0,6,7
 720 -521 720 -521 549 -521 c 0,8,9
 381 -521 381 -521 273 -437 c 0,10,11
 155 -345 155 -345 155 -182 c 0,12,13
 155 -95 155 -95 198 4 c 0,14,15
 229 75 229 75 262 115 c 0,16,17
 278 134 278 134 291 134 c 0,18,19
 303 134 303 134 303 120 c 0,20,21
 303 111 303 111 297 99 c 0,22,23
 240 -18 240 -18 240 -115 c 0,24,25
 240 -210 240 -210 303 -279 c 0,26,27
 386 -370 386 -370 554 -370 c 0,28,29
 744 -370 744 -370 890 -302 c 0,30,31
 1010 -246 1010 -246 1040 -180 c 0,32,33
 1050 -157 1050 -157 1050 -125 c 0,34,35
 1050 -74 1050 -74 1024 0 c 0,36,37
 1002 62 1002 62 904 201 c 1,38,-1
 956 305 l 2,39,40
 967 328 967 328 974 328 c 0,41,42
 980 328 980 328 992 309 c 0,43,44
 1080 172 1080 172 1105 19 c 0,0,1
728 573 m 1,45,-1
 624 469 l 1,46,-1
 519 574 l 1,47,-1
 623 678 l 1,48,-1
 728 573 l 1,45,-1
EndSplineSet
Substitution2: "'medi' Medial Forms in Arabic lookup 3 subtable" afii62824
Substitution2: "'fina' Terminal Forms in Arabic lookup 2 subtable" afii62825
Substitution2: "'init' Initial Forms in Arabic lookup 1 subtable" afii62823
EndChar

StartChar: afii62825
Encoding: 65254 65254 249
Width: 1266
GlyphClass: 2
Flags: W
AnchorPoint: "Anchor-1" 570 -1050 basechar 0
AnchorPoint: "Anchor-0" 645 855 basechar 0
LayerCount: 2
Fore
SplineSet
1266 1 m 1,0,-1
 1229 1 l 2,1,2
 1135 1 1135 1 1105 19 c 1,3,4
 1112 -33 1112 -33 1112 -88 c 0,5,6
 1112 -176 1112 -176 1092 -233 c 0,7,8
 1042 -375 1042 -375 867 -455 c 0,9,10
 720 -521 720 -521 549 -521 c 0,11,12
 381 -521 381 -521 273 -437 c 0,13,14
 155 -345 155 -345 155 -182 c 0,15,16
 155 -95 155 -95 198 4 c 0,17,18
 229 75 229 75 262 115 c 0,19,20
 278 134 278 134 291 134 c 0,21,22
 303 134 303 134 303 120 c 0,23,24
 303 111 303 111 297 99 c 0,25,26
 240 -18 240 -18 240 -115 c 0,27,28
 240 -210 240 -210 303 -279 c 0,29,30
 386 -370 386 -370 554 -370 c 0,31,32
 744 -370 744 -370 890 -302 c 0,33,34
 1010 -246 1010 -246 1040 -180 c 0,35,36
 1050 -159 1050 -159 1043 -95 c 0,37,38
 1037 -33 1037 -33 1024 0 c 0,39,40
 1000 63 1000 63 899 190 c 1,41,-1
 956 296 l 2,42,43
 968 319 968 319 974 319 c 256,44,45
 980 319 980 319 992 300 c 0,46,47
 1090 149 1090 149 1194 149 c 2,48,-1
 1266 149 l 1,49,-1
 1266 1 l 1,0,-1
728 573 m 1,50,-1
 624 469 l 1,51,-1
 519 574 l 1,52,-1
 623 678 l 1,53,-1
 728 573 l 1,50,-1
EndSplineSet
EndChar

StartChar: afii62828
Encoding: 65258 65258 253
Width: 850
GlyphClass: 2
Flags: W
AnchorPoint: "Anchor-1" 405 -495 basechar 0
AnchorPoint: "Anchor-0" 360 945 basechar 0
LayerCount: 2
Fore
SplineSet
850 0 m 1,0,-1
 781 0 l 2,1,2
 617 0 617 0 573 204 c 1,3,4
 483 115 483 115 469 115 c 2,5,-1
 356 115 l 2,6,7
 297 115 297 115 237 133 c 0,8,9
 155 158 155 158 155 203 c 0,10,11
 155 346 155 346 257 437 c 0,12,13
 327 498 327 498 492 563 c 1,14,-1
 467 686 l 1,15,-1
 553 783 l 1,16,17
 558 767 558 767 640 364 c 0,18,19
 665 241 665 241 686 204 c 0,20,21
 718 148 718 148 787 148 c 2,22,-1
 850 148 l 1,23,-1
 850 0 l 1,0,-1
557 261 m 1,24,-1
 514 464 l 1,25,26
 450 445 450 445 359 401 c 0,27,28
 236 341 236 341 236 306 c 0,29,30
 236 276 236 276 330 261 c 0,31,32
 393 250 393 250 447 250 c 0,33,34
 510 250 510 250 557 261 c 1,24,-1
EndSplineSet
EndChar

StartChar: afii57448
Encoding: 1608 1608 254
Width: 696
GlyphClass: 2
Flags: W
AnchorPoint: "Anchor-1" 300 -960 basechar 0
AnchorPoint: "Anchor-0" 465 690 basechar 0
LayerCount: 2
Fore
SplineSet
658 52 m 0,0,1
 658 -234 658 -234 461 -438 c 0,2,3
 399 -502 399 -502 382 -502 c 0,4,5
 275 -502 275 -502 133 -480 c 0,6,7
 84 -472 84 -472 84 -465 c 0,8,9
 84 -457 84 -457 136 -442 c 0,10,11
 292 -397 292 -397 425 -282 c 0,12,13
 481 -234 481 -234 527 -169 c 0,14,15
 585 -88 585 -88 585 -33 c 2,16,-1
 585 9 l 1,17,-1
 418 3 l 2,18,19
 241 -3 241 -3 241 150 c 0,20,21
 241 245 241 245 296 354 c 0,22,23
 359 478 359 478 440 478 c 0,24,25
 560 478 560 478 618 313 c 0,26,27
 658 198 658 198 658 52 c 0,0,1
566 158 m 1,28,29
 566 219 566 219 524 275 c 0,30,31
 478 335 478 335 419 335 c 0,32,33
 379 335 379 335 349.5 305 c 128,-1,34
 320 275 320 275 320 235 c 0,35,36
 320 147 320 147 446 147 c 0,37,38
 493 147 493 147 566 158 c 1,28,29
EndSplineSet
Substitution2: "'fina' Terminal Forms in Arabic lookup 2 subtable" afii62829
PairPos2: "'kern' Horizontal Kerning in Arabic lookup 1 subtable" afii62840 dx=0 dy=0 dh=0 dv=0 dx=0 dy=0 dh=-100 dv=0
PairPos2: "'kern' Horizontal Kerning in Arabic lookup 1 subtable" afii62838 dx=0 dy=0 dh=0 dv=0 dx=0 dy=0 dh=-100 dv=0
PairPos2: "'kern' Horizontal Kerning in Arabic lookup 1 subtable" afii62836 dx=0 dy=0 dh=0 dv=0 dx=0 dy=0 dh=-100 dv=0
PairPos2: "'kern' Horizontal Kerning in Arabic lookup 1 subtable" afii62834 dx=0 dy=0 dh=0 dv=0 dx=0 dy=0 dh=-100 dv=0
PairPos2: "'kern' Horizontal Kerning in Arabic lookup 0 subtable" afii57410 dx=0 dy=0 dh=0 dv=0 dx=0 dy=0 dh=-100 dv=0
PairPos2: "'kern' Horizontal Kerning in Arabic lookup 0 subtable" afii57434 dx=0 dy=0 dh=0 dv=0 dx=0 dy=0 dh=150 dv=0
PairPos2: "'kern' Horizontal Kerning in Arabic lookup 0 subtable" afii57433 dx=0 dy=0 dh=0 dv=0 dx=0 dy=0 dh=150 dv=0
PairPos2: "'kern' Horizontal Kerning in Arabic lookup 0 subtable" afii57422 dx=0 dy=0 dh=0 dv=0 dx=0 dy=0 dh=100 dv=0
PairPos2: "'kern' Horizontal Kerning in Arabic lookup 0 subtable" afii57421 dx=0 dy=0 dh=0 dv=0 dx=0 dy=0 dh=100 dv=0
PairPos2: "'kern' Horizontal Kerning in Arabic lookup 0 subtable" afii57420 dx=0 dy=0 dh=0 dv=0 dx=0 dy=0 dh=100 dv=0
PairPos2: "'kern' Horizontal Kerning in Arabic lookup 0 subtable" afii62965 dx=0 dy=0 dh=0 dv=0 dx=0 dy=0 dh=-100 dv=0
PairPos2: "'kern' Horizontal Kerning in Arabic lookup 0 subtable" afii57509 dx=0 dy=0 dh=0 dv=0 dx=0 dy=0 dh=-100 dv=0
PairPos2: "'kern' Horizontal Kerning in Arabic lookup 0 subtable" afii52305 dx=0 dy=0 dh=0 dv=0 dx=0 dy=0 dh=-100 dv=0
PairPos2: "'kern' Horizontal Kerning in Arabic lookup 0 subtable" afii57567 dx=0 dy=0 dh=0 dv=0 dx=0 dy=0 dh=-100 dv=0
PairPos2: "'kern' Horizontal Kerning in Arabic lookup 0 subtable" afii57507 dx=0 dy=0 dh=0 dv=0 dx=0 dy=0 dh=100 dv=0
EndChar

StartChar: afii62829
Encoding: 65262 65262 255
Width: 768
GlyphClass: 2
Flags: W
AnchorPoint: "Anchor-1" 255 -930 basechar 0
AnchorPoint: "Anchor-0" 375 735 basechar 0
LayerCount: 2
Fore
SplineSet
768 0 m 1,0,-1
 656 0 l 1,1,2
 638 -261 638 -261 455 -445 c 0,3,4
 397 -503 397 -503 382 -503 c 0,5,6
 276 -503 276 -503 133 -481 c 0,7,8
 86 -474 86 -474 86 -466 c 256,9,10
 86 -458 86 -458 136 -443 c 0,11,12
 294 -397 294 -397 425 -283 c 0,13,14
 481 -235 481 -235 527 -170 c 0,15,16
 585 -89 585 -89 585 -34 c 2,17,-1
 585 0 l 1,18,-1
 425 0 l 2,19,20
 241 0 241 0 241 149 c 0,21,22
 241 244 241 244 296 353 c 0,23,24
 359 477 359 477 440 477 c 0,25,26
 539 477 539 477 599 355 c 0,27,28
 643 266 643 266 654 148 c 1,29,-1
 768 148 l 1,30,-1
 768 0 l 1,0,-1
566 150 m 1,31,32
 566 208 566 208 525 267 c 0,33,34
 479 334 479 334 419 334 c 0,35,36
 380 334 380 334 349 302.5 c 128,-1,37
 318 271 318 271 318 232 c 0,38,39
 318 145 318 145 467 145 c 0,40,41
 506 145 506 145 566 150 c 1,31,32
EndSplineSet
PairPos2: "'kern' Horizontal Kerning in Arabic lookup 1 subtable" afii62840 dx=0 dy=0 dh=0 dv=0 dx=0 dy=0 dh=-100 dv=0
PairPos2: "'kern' Horizontal Kerning in Arabic lookup 1 subtable" afii62838 dx=0 dy=0 dh=0 dv=0 dx=0 dy=0 dh=-100 dv=0
PairPos2: "'kern' Horizontal Kerning in Arabic lookup 1 subtable" afii62836 dx=0 dy=0 dh=0 dv=0 dx=0 dy=0 dh=-100 dv=0
PairPos2: "'kern' Horizontal Kerning in Arabic lookup 1 subtable" afii62834 dx=0 dy=0 dh=0 dv=0 dx=0 dy=0 dh=-100 dv=0
PairPos2: "'kern' Horizontal Kerning in Arabic lookup 0 subtable" afii57410 dx=0 dy=0 dh=0 dv=0 dx=0 dy=0 dh=-150 dv=0
PairPos2: "'kern' Horizontal Kerning in Arabic lookup 0 subtable" afii57434 dx=0 dy=0 dh=0 dv=0 dx=0 dy=0 dh=150 dv=0
PairPos2: "'kern' Horizontal Kerning in Arabic lookup 0 subtable" afii57433 dx=0 dy=0 dh=0 dv=0 dx=0 dy=0 dh=150 dv=0
PairPos2: "'kern' Horizontal Kerning in Arabic lookup 0 subtable" afii57422 dx=0 dy=0 dh=0 dv=0 dx=0 dy=0 dh=100 dv=0
PairPos2: "'kern' Horizontal Kerning in Arabic lookup 0 subtable" afii57421 dx=0 dy=0 dh=0 dv=0 dx=0 dy=0 dh=100 dv=0
PairPos2: "'kern' Horizontal Kerning in Arabic lookup 0 subtable" afii57420 dx=0 dy=0 dh=0 dv=0 dx=0 dy=0 dh=100 dv=0
PairPos2: "'kern' Horizontal Kerning in Arabic lookup 0 subtable" afii62965 dx=0 dy=0 dh=0 dv=0 dx=0 dy=0 dh=-150 dv=0
PairPos2: "'kern' Horizontal Kerning in Arabic lookup 0 subtable" afii57509 dx=0 dy=0 dh=0 dv=0 dx=0 dy=0 dh=-150 dv=0
PairPos2: "'kern' Horizontal Kerning in Arabic lookup 0 subtable" afii52305 dx=0 dy=0 dh=0 dv=0 dx=0 dy=0 dh=-150 dv=0
PairPos2: "'kern' Horizontal Kerning in Arabic lookup 0 subtable" afii57567 dx=0 dy=0 dh=0 dv=0 dx=0 dy=0 dh=-150 dv=0
PairPos2: "'kern' Horizontal Kerning in Arabic lookup 0 subtable" afii57507 dx=0 dy=0 dh=0 dv=0 dx=0 dy=0 dh=100 dv=0
EndChar

StartChar: afii62840
Encoding: 65275 65275 268
Width: 988
GlyphClass: 3
Flags: W
AnchorPoint: "Anchor-3" 630 -480 baselig 0
AnchorPoint: "Anchor-2" 855 1350 baselig 0
AnchorPoint: "Anchor-3" 405 -495 baselig 1
AnchorPoint: "Anchor-2" 135 1245 baselig 1
LayerCount: 2
Fore
SplineSet
976 1011 m 0,0,1
 979 1003 979 1003 982 995 c 128,-1,2
 985 987 985 987 987 979 c 1,3,4
 981 977 981 977 965 977 c 2,5,-1
 928 977 l 1,6,7
 928 897 928 897 919 816.5 c 128,-1,8
 910 736 910 736 893 652 c 0,9,10
 848 439 848 439 761 321 c 1,11,12
 805 235 805 235 805 160 c 0,13,14
 805 134 805 134 798 106 c 128,-1,15
 791 78 791 78 780 53.5 c 128,-1,16
 769 29 769 29 754.5 11.5 c 128,-1,17
 740 -6 740 -6 724 -9 c 0,18,19
 661 -23 661 -23 595 -31 c 128,-1,20
 529 -39 529 -39 458 -39 c 0,21,22
 433 -39 433 -39 408.5 -38 c 128,-1,23
 384 -37 384 -37 358 -35 c 1,24,-1
 400 106 l 1,25,26
 587 193 587 193 670 307 c 1,27,28
 481 565 481 565 241 805 c 1,29,-1
 216 763 l 1,30,31
 83 906 83 906 83 941 c 0,32,33
 86 965 86 965 88.5 982.5 c 128,-1,34
 91 1000 91 1000 94 1020 c 128,-1,35
 97 1040 97 1040 101.5 1057.5 c 128,-1,36
 106 1075 106 1075 110.5 1086.5 c 128,-1,37
 115 1098 115 1098 120 1098 c 0,38,39
 127 1098 127 1098 160 1068 c 0,40,41
 530 727 530 727 722 382 c 1,42,43
 793 502 793 502 810 713 c 0,44,45
 816 798 816 798 816 890 c 0,46,47
 816 941 816 941 814.5 992 c 128,-1,48
 813 1043 813 1043 808 1097 c 1,49,-1
 916 1197 l 1,50,51
 947 1090 947 1090 976 1011 c 0,0,1
736 129 m 1,52,53
 737 134 737 134 737 138 c 128,-1,54
 737 142 737 142 737 147 c 0,55,56
 737 201 737 201 701 252 c 1,57,58
 669 214 669 214 630 176.5 c 128,-1,59
 591 139 591 139 544 104 c 1,60,61
 556 103 556 103 567.5 102.5 c 128,-1,62
 579 102 579 102 590 102 c 0,63,64
 680 102 680 102 736 129 c 1,52,53
EndSplineSet
Ligature2: "'rlig' Required Ligatures in Arabic lookup 6 subtable" afii62817 afii62760
Substitution2: "'fina' Terminal Forms in Arabic lookup 2 subtable" afii62841
PairPos2: "'kern' Horizontal Kerning in Arabic lookup 0 subtable" afii57415 dx=0 dy=0 dh=0 dv=0 dx=0 dy=0 dh=50 dv=0
PairPos2: "'kern' Horizontal Kerning in Arabic lookup 0 subtable" afii62817 dx=0 dy=0 dh=0 dv=0 dx=0 dy=0 dh=100 dv=0
PairPos2: "'kern' Horizontal Kerning in Arabic lookup 0 subtable" afii57444 dx=0 dy=0 dh=0 dv=0 dx=0 dy=0 dh=50 dv=0
PairPos2: "'kern' Horizontal Kerning in Arabic lookup 0 subtable" afii57410 dx=0 dy=0 dh=0 dv=0 dx=0 dy=0 dh=100 dv=0
PairPos2: "'kern' Horizontal Kerning in Arabic lookup 0 subtable" afii57443 dx=0 dy=0 dh=0 dv=0 dx=0 dy=0 dh=100 dv=0
PairPos2: "'kern' Horizontal Kerning in Arabic lookup 0 subtable" afii62965 dx=0 dy=0 dh=0 dv=0 dx=0 dy=0 dh=100 dv=0
PairPos2: "'kern' Horizontal Kerning in Arabic lookup 0 subtable" afii57509 dx=0 dy=0 dh=0 dv=0 dx=0 dy=0 dh=100 dv=0
PairPos2: "'kern' Horizontal Kerning in Arabic lookup 0 subtable" afii52305 dx=0 dy=0 dh=0 dv=0 dx=0 dy=0 dh=100 dv=0
PairPos2: "'kern' Horizontal Kerning in Arabic lookup 0 subtable" afii57567 dx=0 dy=0 dh=0 dv=0 dx=0 dy=0 dh=100 dv=0
EndChar

StartChar: afii62841
Encoding: 65276 65276 269
Width: 1170
GlyphClass: 3
Flags: W
AnchorPoint: "Anchor-3" 900 -540 baselig 0
AnchorPoint: "Anchor-2" 945 1290 baselig 0
AnchorPoint: "Anchor-3" 270 -555 baselig 1
AnchorPoint: "Anchor-2" 165 1245 baselig 1
LayerCount: 2
Fore
SplineSet
1170 0 m 1,0,-1
 1120 0 l 2,1,2
 881 0 881 0 881 339 c 0,3,4
 881 376 881 376 884 454 c 1,5,6
 737 90 737 90 513 -68 c 1,7,8
 440 -85 440 -85 352.5 -95 c 128,-1,9
 265 -105 265 -105 163 -105 c 0,10,11
 134 -105 134 -105 134 -99 c 0,12,13
 134 -95 134 -95 153.5 -84 c 128,-1,14
 173 -73 173 -73 208 -56 c 128,-1,15
 243 -39 243 -39 293 -15.5 c 128,-1,16
 343 8 343 8 405 38 c 0,17,18
 543 109 543 109 658 229 c 1,19,20
 609 421 609 421 486 571 c 0,21,22
 408 667 408 667 244 800 c 1,23,-1
 229 749 l 1,24,25
 184 787 184 787 154.5 815 c 128,-1,26
 125 843 125 843 108 863.5 c 128,-1,27
 91 884 91 884 84.5 898 c 128,-1,28
 78 912 78 912 78 923 c 0,29,30
 78 924 78 924 78.5 935 c 128,-1,31
 79 946 79 946 80.5 962 c 128,-1,32
 82 978 82 978 83.5 996.5 c 128,-1,33
 85 1015 85 1015 87.5 1030.5 c 128,-1,34
 90 1046 90 1046 92.5 1056.5 c 128,-1,35
 95 1067 95 1067 99 1067 c 0,36,37
 104 1067 104 1067 129 1050 c 0,38,39
 382 868 382 868 504 717 c 0,40,41
 655 529 655 529 708 279 c 1,42,43
 777 368 777 368 825 487 c 0,44,45
 872 605 872 605 872 706 c 0,46,47
 872 798 872 798 864.5 897 c 128,-1,48
 857 996 857 996 847 1104 c 1,49,-1
 955 1197 l 1,50,51
 963 1151 963 1151 968.5 932 c 128,-1,52
 974 713 974 713 978 321 c 0,53,54
 980 148 980 148 1131 148 c 2,55,-1
 1170 148 l 1,56,-1
 1170 0 l 1,0,-1
EndSplineSet
Ligature2: "'rlig' Required Ligatures in Arabic lookup 6 subtable" afii62818 afii62760
PairPos2: "'kern' Horizontal Kerning in Arabic lookup 0 subtable" afii57410 dx=0 dy=0 dh=0 dv=0 dx=0 dy=0 dh=70 dv=0
PairPos2: "'kern' Horizontal Kerning in Arabic lookup 0 subtable" afii57434 dx=0 dy=0 dh=0 dv=0 dx=0 dy=0 dh=100 dv=0
PairPos2: "'kern' Horizontal Kerning in Arabic lookup 0 subtable" afii57433 dx=0 dy=0 dh=0 dv=0 dx=0 dy=0 dh=100 dv=0
PairPos2: "'kern' Horizontal Kerning in Arabic lookup 0 subtable" afii57422 dx=0 dy=0 dh=0 dv=0 dx=0 dy=0 dh=70 dv=0
PairPos2: "'kern' Horizontal Kerning in Arabic lookup 0 subtable" afii57421 dx=0 dy=0 dh=0 dv=0 dx=0 dy=0 dh=70 dv=0
PairPos2: "'kern' Horizontal Kerning in Arabic lookup 0 subtable" afii57420 dx=0 dy=0 dh=0 dv=0 dx=0 dy=0 dh=70 dv=0
PairPos2: "'kern' Horizontal Kerning in Arabic lookup 0 subtable" afii62965 dx=0 dy=0 dh=0 dv=0 dx=0 dy=0 dh=70 dv=0
PairPos2: "'kern' Horizontal Kerning in Arabic lookup 0 subtable" afii57509 dx=0 dy=0 dh=0 dv=0 dx=0 dy=0 dh=70 dv=0
PairPos2: "'kern' Horizontal Kerning in Arabic lookup 0 subtable" afii52305 dx=0 dy=0 dh=0 dv=0 dx=0 dy=0 dh=70 dv=0
PairPos2: "'kern' Horizontal Kerning in Arabic lookup 0 subtable" afii57567 dx=0 dy=0 dh=0 dv=0 dx=0 dy=0 dh=70 dv=0
PairPos2: "'kern' Horizontal Kerning in Arabic lookup 0 subtable" afii57507 dx=0 dy=0 dh=0 dv=0 dx=0 dy=0 dh=70 dv=0
EndChar

StartChar: afii59759
Encoding: 3663 3663 276
Width: 1233
GlyphClass: 2
Flags: W
LayerCount: 2
Fore
SplineSet
616 983 m 0,0,1
 823 983 823 983 969.5 836.5 c 128,-1,2
 1116 690 1116 690 1116 483 c 0,3,4
 1116 277 1116 277 969.5 130.5 c 128,-1,5
 823 -16 823 -16 616 -16 c 0,6,7
 410 -16 410 -16 263.5 130.5 c 128,-1,8
 117 277 117 277 117 483 c 0,9,10
 117 690 117 690 263.5 836.5 c 128,-1,11
 410 983 410 983 616 983 c 0,0,1
616 147 m 0,12,13
 758 147 758 147 849 242 c 128,-1,14
 940 337 940 337 940 483 c 256,15,16
 940 629 940 629 849 724 c 128,-1,17
 758 819 758 819 616 819 c 0,18,19
 475 819 475 819 384 724 c 128,-1,20
 293 629 293 629 293 483 c 256,21,22
 293 337 293 337 384 242 c 128,-1,23
 475 147 475 147 616 147 c 0,12,13
616 598 m 0,24,25
 664 598 664 598 697.5 565 c 128,-1,26
 731 532 731 532 731 485 c 256,27,28
 731 438 731 438 697.5 404.5 c 128,-1,29
 664 371 664 371 616 371 c 0,30,31
 569 371 569 371 535.5 404.5 c 128,-1,32
 502 438 502 438 502 485 c 256,33,34
 502 532 502 532 535.5 565 c 128,-1,35
 569 598 569 598 616 598 c 0,24,25
EndSplineSet
EndChar

StartChar: afii59760
Encoding: 3664 3664 277
Width: 1233
GlyphClass: 2
Flags: W
LayerCount: 2
Fore
SplineSet
616 924 m 0,0,1
 834 924 834 924 975 794.5 c 128,-1,2
 1116 665 1116 665 1116 453 c 0,3,4
 1116 242 1116 242 975 113 c 128,-1,5
 834 -16 834 -16 616 -16 c 0,6,7
 399 -16 399 -16 258 113 c 128,-1,8
 117 242 117 242 117 453 c 0,9,10
 117 665 117 665 258 794.5 c 128,-1,11
 399 924 399 924 616 924 c 0,0,1
616 150 m 0,12,13
 765 150 765 150 852.5 231 c 128,-1,14
 940 312 940 312 940 453 c 256,15,16
 940 594 940 594 852 677 c 128,-1,17
 764 760 764 760 616 760 c 0,18,19
 469 760 469 760 381 677 c 128,-1,20
 293 594 293 594 293 453 c 0,21,22
 293 310 293 310 381.5 230 c 128,-1,23
 470 150 470 150 616 150 c 0,12,13
EndSplineSet
EndChar

StartChar: glyph279
Encoding: 65559 -1 279
Width: 0
GlyphClass: 2
Flags: W
LayerCount: 2
Fore
SplineSet
36 1831 m 1,0,-1
 36 863 l 1,1,-1
 -36 863 l 1,2,-1
 -36 1831 l 1,3,-1
 36 1831 l 1,0,-1
36 543 m 1,4,-1
 36 -423 l 1,5,-1
 -36 -423 l 1,6,-1
 -36 543 l 1,7,-1
 36 543 l 1,4,-1
EndSplineSet
EndChar

StartChar: glyph280
Encoding: 65560 -1 280
Width: 0
GlyphClass: 2
Flags: W
LayerCount: 2
Fore
SplineSet
-234 -423 m 1,0,-1
 -234 -352 l 1,1,-1
 -36 -352 l 1,2,-1
 -36 1760 l 1,3,-1
 -234 1760 l 1,4,-1
 -234 1831 l 1,5,-1
 234 1831 l 1,6,-1
 234 1760 l 1,7,-1
 36 1760 l 1,8,-1
 36 -352 l 1,9,-1
 234 -352 l 1,10,-1
 234 -423 l 1,11,-1
 -234 -423 l 1,0,-1
EndSplineSet
EndChar

StartChar: glyph281
Encoding: 65561 -1 281
Width: 0
GlyphClass: 2
Flags: W
LayerCount: 2
Fore
SplineSet
224 1646 m 1,0,-1
 36 1504 l 1,1,-1
 36 -423 l 1,2,-1
 -36 -423 l 1,3,-1
 -36 1831 l 1,4,-1
 224 1646 l 1,0,-1
EndSplineSet
EndChar

StartChar: glyph282
Encoding: 65562 -1 282
Width: 0
GlyphClass: 2
Flags: W
LayerCount: 2
Fore
SplineSet
36 1831 m 1,0,-1
 36 -423 l 1,1,-1
 -36 -423 l 1,2,-1
 -36 1504 l 1,3,-1
 -224 1646 l 1,4,-1
 36 1831 l 1,0,-1
EndSplineSet
EndChar

StartChar: glyph283
Encoding: 65563 -1 283
Width: 0
GlyphClass: 2
Flags: W
LayerCount: 2
Fore
SplineSet
36 1831 m 1,0,-1
 36 -352 l 1,1,-1
 234 -352 l 1,2,-1
 234 -423 l 1,3,-1
 -36 -423 l 1,4,-1
 -36 1831 l 1,5,-1
 36 1831 l 1,0,-1
EndSplineSet
EndChar

StartChar: glyph284
Encoding: 65564 -1 284
Width: 0
GlyphClass: 2
Flags: W
LayerCount: 2
Fore
SplineSet
224 1646 m 1,0,-1
 36 1504 l 1,1,-1
 36 -423 l 1,2,-1
 -36 -423 l 1,3,-1
 -36 1504 l 1,4,-1
 -224 1641 l 1,5,-1
 0 1831 l 1,6,-1
 224 1646 l 1,0,-1
EndSplineSet
EndChar

StartChar: uni0670
Encoding: 1648 1648 297
Width: 0
GlyphClass: 4
Flags: W
AnchorPoint: "Anchor-2" 0 0 mark 0
AnchorPoint: "Anchor-0" 0 0 mark 0
LayerCount: 2
Fore
SplineSet
20 60 m 1,0,-1
 -11 -17 l 1,1,2
 -17 -17 -17 -17 -21 4 c 0,3,4
 -36 91 -36 91 -78 321 c 1,5,-1
 -1 381 l 2,6,7
 6 385 6 385 11 385 c 0,8,9
 17 385 17 385 18 378 c 0,10,11
 18 283 18 283 20 60 c 1,0,-1
EndSplineSet
EndChar

StartChar: glyph298
Encoding: 65565 -1 298
Width: 458
GlyphClass: 2
Flags: W
LayerCount: 2
Fore
SplineSet
235 1433 m 2,0,1
 266 1457 266 1457 294 1461.5 c 128,-1,2
 322 1466 322 1466 343 1455 c 128,-1,3
 364 1444 364 1444 377 1419 c 128,-1,4
 390 1394 390 1394 390 1357 c 2,5,-1
 389 1277 l 1,6,-1
 69 1277 l 1,7,-1
 69 1335 l 1,8,-1
 123 1335 l 1,9,-1
 235 1433 l 2,0,1
203 1335 m 1,10,-1
 331 1335 l 1,11,-1
 331 1365 l 2,12,13
 329 1394 329 1394 311 1402 c 128,-1,14
 293 1410 293 1410 263 1388 c 2,15,-1
 203 1335 l 1,10,-1
EndSplineSet
EndChar

StartChar: glyph299
Encoding: 65566 -1 299
Width: 1187
GlyphClass: 2
Flags: W
LayerCount: 2
Fore
SplineSet
1154 49 m 0,0,1
 1155 33 1155 33 1156 2 c 128,-1,2
 1157 -29 1157 -29 1157 -74 c 0,3,4
 1157 -193 1157 -193 1128 -254 c 0,5,6
 1065 -384 1065 -384 904 -453 c 0,7,8
 759 -514 759 -514 595 -514 c 0,9,10
 375 -514 375 -514 265 -431.5 c 128,-1,11
 155 -349 155 -349 155 -182 c 0,12,13
 155 -150 155 -150 162 -108 c 128,-1,14
 169 -66 169 -66 182.5 -23.5 c 128,-1,15
 196 19 196 19 214 59 c 128,-1,16
 232 99 232 99 255 128 c 0,17,18
 274 151 274 151 288 153 c 0,19,20
 300 153 300 153 300 132 c 0,21,22
 300 120 300 120 292 102 c 0,23,24
 238 -15 238 -15 238 -110 c 0,25,26
 238 -168 238 -168 264 -214 c 128,-1,27
 290 -260 290 -260 335.5 -292.5 c 128,-1,28
 381 -325 381 -325 443 -342.5 c 128,-1,29
 505 -360 505 -360 578 -360 c 0,30,31
 739 -360 739 -360 864 -324 c 0,32,33
 976 -291 976 -291 1033.5 -236 c 128,-1,34
 1091 -181 1091 -181 1091 -96 c 0,35,36
 1091 -76 1091 -76 1087.5 -47.5 c 128,-1,37
 1084 -19 1084 -19 1078 19 c 1,38,39
 1003 -1 1003 -1 901 -1 c 0,40,41
 721 -1 721 -1 721 148 c 0,42,43
 721 248 721 248 772 349 c 0,44,45
 833 471 833 471 926 471 c 0,46,47
 973 471 973 471 1014 440.5 c 128,-1,48
 1055 410 1055 410 1086 354.5 c 128,-1,49
 1117 299 1117 299 1135 221 c 128,-1,50
 1153 143 1153 143 1154 49 c 0,0,1
1050 164 m 1,51,52
 1050 194 1050 194 1037 222 c 128,-1,53
 1024 250 1024 250 1003 272 c 128,-1,54
 982 294 982 294 954.5 307.5 c 128,-1,55
 927 321 927 321 897 321 c 0,56,57
 878 321 878 321 861 313.5 c 128,-1,58
 844 306 844 306 831 293.5 c 128,-1,59
 818 281 818 281 810 264.5 c 128,-1,60
 802 248 802 248 802 229 c 0,61,62
 802 147 802 147 936 147 c 0,63,64
 964 147 964 147 992 151.5 c 128,-1,65
 1020 156 1020 156 1050 164 c 1,51,52
EndSplineSet
EndChar

StartChar: uni06DD
Encoding: 1757 1757 388
Width: 2300
GlyphClass: 2
Flags: W
LayerCount: 2
Fore
SplineSet
2250 715 m 256,0,1
 2250 469 2250 469 2146 249 c 0,2,3
 2046 35 2046 35 1867 -119 c 1,4,5
 1870 -133 1870 -133 1870 -148 c 0,6,7
 1870 -203 1870 -203 1831 -241.5 c 128,-1,8
 1792 -280 1792 -280 1737 -280 c 0,9,10
 1697 -280 1697 -280 1664 -258 c 1,11,12
 1424 -385 1424 -385 1149 -385 c 0,13,14
 876 -385 876 -385 636 -258 c 1,15,16
 603 -280 603 -280 563 -280 c 0,17,18
 508 -280 508 -280 469 -241.5 c 128,-1,19
 430 -203 430 -203 430 -148 c 0,20,21
 430 -133 430 -133 433 -119 c 1,22,23
 254 35 254 35 154 249 c 0,24,25
 50 469 50 469 50 715 c 256,26,27
 50 961 50 961 154 1181 c 0,28,29
 254 1394 254 1394 433 1548 c 1,30,31
 430 1562 430 1562 430 1577 c 0,32,33
 430 1632 430 1632 469 1670.5 c 128,-1,34
 508 1709 508 1709 563 1709 c 0,35,36
 603 1709 603 1709 636 1687 c 1,37,38
 876 1814 876 1814 1151 1814 c 0,39,40
 1424 1814 1424 1814 1664 1687 c 1,41,42
 1697 1709 1697 1709 1737 1709 c 0,43,44
 1792 1709 1792 1709 1831 1670.5 c 128,-1,45
 1870 1632 1870 1632 1870 1577 c 0,46,47
 1870 1562 1870 1562 1867 1548 c 1,48,49
 2046 1394 2046 1394 2146 1181 c 0,50,51
 2250 961 2250 961 2250 715 c 256,0,1
1816 1576 m 0,52,53
 1816 1609 1816 1609 1793 1632 c 128,-1,54
 1770 1655 1770 1655 1738 1655 c 256,55,56
 1706 1655 1706 1655 1682.5 1631.5 c 128,-1,57
 1659 1608 1659 1608 1659 1576 c 256,58,59
 1659 1544 1659 1544 1682 1521 c 128,-1,60
 1705 1498 1705 1498 1738 1498 c 0,61,62
 1770 1498 1770 1498 1793 1521 c 128,-1,63
 1816 1544 1816 1544 1816 1576 c 0,52,53
1602 1595 m 1,64,65
 1390 1704 1390 1704 1151 1704 c 0,66,67
 910 1704 910 1704 698 1595 c 1,68,-1
 1602 1595 l 1,64,65
641 1576 m 256,69,70
 641 1608 641 1608 617.5 1631.5 c 128,-1,71
 594 1655 594 1655 562 1655 c 256,72,73
 530 1655 530 1655 507 1632 c 128,-1,74
 484 1609 484 1609 484 1576 c 0,75,76
 484 1544 484 1544 507 1521 c 128,-1,77
 530 1498 530 1498 562 1498 c 0,78,79
 595 1498 595 1498 618 1521 c 128,-1,80
 641 1544 641 1544 641 1576 c 256,69,70
2140 714 m 0,81,82
 2140 933 2140 933 2048 1131 c 0,83,84
 1960 1321 1960 1321 1801 1460 c 1,85,86
 1772 1444 1772 1444 1737 1444 c 0,87,88
 1681 1444 1681 1444 1642 1485 c 1,89,-1
 658 1485 l 1,90,91
 619 1444 619 1444 563 1444 c 0,92,93
 528 1444 528 1444 499 1460 c 1,94,95
 340 1321 340 1321 252 1131 c 0,96,97
 160 933 160 933 160 714 c 0,98,99
 160 265 160 265 499 -31 c 1,100,101
 528 -15 528 -15 563 -15 c 0,102,103
 619 -15 619 -15 658 -56 c 1,104,-1
 1642 -56 l 1,105,106
 1681 -15 1681 -15 1737 -15 c 0,107,108
 1772 -15 1772 -15 1801 -31 c 1,109,110
 2140 265 2140 265 2140 714 c 0,81,82
1816 -147 m 0,111,112
 1816 -115 1816 -115 1793 -92 c 128,-1,113
 1770 -69 1770 -69 1738 -69 c 0,114,115
 1705 -69 1705 -69 1682 -92 c 128,-1,116
 1659 -115 1659 -115 1659 -147 c 256,117,118
 1659 -179 1659 -179 1682.5 -202.5 c 128,-1,119
 1706 -226 1706 -226 1738 -226 c 256,120,121
 1770 -226 1770 -226 1793 -203 c 128,-1,122
 1816 -180 1816 -180 1816 -147 c 0,111,112
1602 -166 m 1,123,-1
 698 -166 l 1,124,125
 910 -275 910 -275 1151 -275 c 0,126,127
 1390 -275 1390 -275 1602 -166 c 1,123,-1
641 -147 m 256,128,129
 641 -115 641 -115 618 -92 c 128,-1,130
 595 -69 595 -69 562 -69 c 0,131,132
 530 -69 530 -69 507 -92 c 128,-1,133
 484 -115 484 -115 484 -147 c 0,134,135
 484 -180 484 -180 507 -203 c 128,-1,136
 530 -226 530 -226 562 -226 c 256,137,138
 594 -226 594 -226 617.5 -202.5 c 128,-1,139
 641 -179 641 -179 641 -147 c 256,128,129
EndSplineSet
EndChar

StartChar: uni06DE
Encoding: 1758 1758 389
Width: 2221
GlyphClass: 2
Flags: W
LayerCount: 2
Fore
SplineSet
2171 750 m 1,0,-1
 1861 439 l 1,1,-1
 1861 0 l 1,2,-1
 1421 0 l 1,3,-1
 1111 -311 l 1,4,-1
 800 0 l 1,5,-1
 361 0 l 1,6,-1
 361 439 l 1,7,-1
 50 750 l 1,8,-1
 361 1061 l 1,9,-1
 361 1500 l 1,10,-1
 800 1500 l 1,11,-1
 1111 1811 l 1,12,-1
 1421 1500 l 1,13,-1
 1861 1500 l 1,14,-1
 1861 1061 l 1,15,-1
 2171 750 l 1,0,-1
436 364 m 1,16,-1
 436 75 l 1,17,-1
 725 75 l 1,18,-1
 436 364 l 1,16,-1
725 1425 m 1,19,-1
 436 1425 l 1,20,-1
 436 1136 l 1,21,-1
 725 1425 l 1,19,-1
1786 1136 m 1,22,-1
 1786 1425 l 1,23,-1
 1496 1425 l 1,24,-1
 1786 1136 l 1,22,-1
1786 75 m 1,25,-1
 1786 364 l 1,26,-1
 1496 75 l 1,27,-1
 1786 75 l 1,25,-1
906 0 m 1,28,-1
 1111 -205 l 1,29,-1
 1315 0 l 1,30,-1
 906 0 l 1,28,-1
361 955 m 1,31,-1
 156 750 l 1,32,-1
 361 545 l 1,33,-1
 361 955 l 1,31,-1
1315 1500 m 1,34,-1
 1111 1705 l 1,35,-1
 906 1500 l 1,36,-1
 1315 1500 l 1,34,-1
1786 1030 m 1,37,-1
 1390 1425 l 1,38,-1
 831 1425 l 1,39,-1
 436 1030 l 1,40,-1
 436 470 l 1,41,-1
 831 75 l 1,42,-1
 1390 75 l 1,43,-1
 1786 470 l 1,44,-1
 1786 1030 l 1,37,-1
2065 750 m 1,45,-1
 1861 955 l 1,46,-1
 1861 545 l 1,47,-1
 2065 750 l 1,45,-1
1328 750 m 256,48,49
 1328 660 1328 660 1264.5 596 c 128,-1,50
 1201 532 1201 532 1111 532 c 256,51,52
 1021 532 1021 532 957 596 c 128,-1,53
 893 660 893 660 893 750 c 256,54,55
 893 840 893 840 957 903.5 c 128,-1,56
 1021 967 1021 967 1111 967 c 256,57,58
 1201 967 1201 967 1264.5 903.5 c 128,-1,59
 1328 840 1328 840 1328 750 c 256,48,49
1253 750 m 256,60,61
 1253 809 1253 809 1211 850.5 c 128,-1,62
 1169 892 1169 892 1110 892 c 256,63,64
 1051 892 1051 892 1009 850.5 c 128,-1,65
 967 809 967 809 967 750 c 256,66,67
 967 691 967 691 1009 649 c 128,-1,68
 1051 607 1051 607 1110 607 c 256,69,70
 1169 607 1169 607 1211 649 c 128,-1,71
 1253 691 1253 691 1253 750 c 256,60,61
EndSplineSet
EndChar

StartChar: uni06DF
Encoding: 1759 1759 390
Width: 0
GlyphClass: 2
Flags: W
LayerCount: 2
Fore
SplineSet
75 1429 m 256,0,1
 75 1398 75 1398 53 1376 c 128,-1,2
 31 1354 31 1354 0 1354 c 256,3,4
 -31 1354 -31 1354 -53 1376 c 128,-1,5
 -75 1398 -75 1398 -75 1429 c 256,6,7
 -75 1460 -75 1460 -53 1482 c 128,-1,8
 -31 1504 -31 1504 0 1504 c 256,9,10
 31 1504 31 1504 53 1482 c 128,-1,11
 75 1460 75 1460 75 1429 c 256,0,1
EndSplineSet
EndChar

StartChar: uni06E9
Encoding: 1769 1769 391
Width: 1229
GlyphClass: 2
Flags: W
LayerCount: 2
Fore
SplineSet
1179 0 m 1,0,-1
 50 0 l 1,1,-1
 278 261 l 1,2,-1
 278 849 l 1,3,-1
 50 1108 l 1,4,-1
 614 1676 l 1,5,-1
 1179 1108 l 1,6,-1
 951 849 l 1,7,-1
 951 261 l 1,8,-1
 1179 0 l 1,0,-1
1101 1108 m 1,9,-1
 614 1598 l 1,10,-1
 128 1108 l 1,11,-1
 338 871 l 1,12,-1
 338 239 l 1,13,-1
 178 56 l 1,14,-1
 1051 56 l 1,15,-1
 891 239 l 1,16,-1
 891 871 l 1,17,-1
 1101 1108 l 1,9,-1
995 1108 m 1,18,-1
 845 937 l 1,19,-1
 845 131 l 1,20,-1
 384 131 l 1,21,-1
 384 937 l 1,22,-1
 234 1108 l 1,23,-1
 614 1489 l 1,24,-1
 995 1108 l 1,18,-1
922 1108 m 1,25,-1
 614 1416 l 1,26,-1
 307 1108 l 1,27,-1
 433 968 l 1,28,-1
 433 186 l 1,29,-1
 796 186 l 1,30,-1
 796 968 l 1,31,-1
 922 1108 l 1,25,-1
833 1108 m 1,32,-1
 745 1011 l 1,33,-1
 745 267 l 1,34,-1
 484 267 l 1,35,-1
 484 1011 l 1,36,-1
 396 1108 l 1,37,-1
 614 1331 l 1,38,-1
 833 1108 l 1,32,-1
780 1108 m 1,39,-1
 614 1278 l 1,40,-1
 449 1108 l 1,41,-1
 523 1027 l 1,42,-1
 523 309 l 1,43,-1
 705 309 l 1,44,-1
 705 1027 l 1,45,-1
 780 1108 l 1,39,-1
EndSplineSet
EndChar

StartChar: uni06EB
Encoding: 1771 1771 393
Width: 0
GlyphClass: 2
Flags: W
LayerCount: 2
Fore
SplineSet
168 1522 m 1,0,-1
 -1 1354 l 1,1,-1
 -168 1521 l 1,2,-1
 1 1689 l 1,3,-1
 168 1522 l 1,0,-1
104 1522 m 1,4,-1
 0 1626 l 1,5,-1
 -104 1521 l 1,6,-1
 0 1417 l 1,7,-1
 104 1522 l 1,4,-1
EndSplineSet
EndChar

StartChar: comma
Encoding: 44 44 402
Width: 483
Flags: W
LayerCount: 2
Fore
SplineSet
138 105 m 0,0,1
 138 124 138 124 147.5 143 c 128,-1,2
 157 162 157 162 173.5 177 c 128,-1,3
 190 192 190 192 212.5 201.5 c 128,-1,4
 235 211 235 211 260 211 c 0,5,6
 291 211 291 211 316.5 199 c 128,-1,7
 342 187 342 187 360 165.5 c 128,-1,8
 378 144 378 144 387.5 114 c 128,-1,9
 397 84 397 84 397 49 c 0,10,11
 397 -119 397 -119 257 -194 c 0,12,13
 246 -200 246 -200 233 -202.5 c 128,-1,14
 220 -205 220 -205 205 -205 c 0,15,16
 183 -205 183 -205 183 -194 c 1,17,18
 189 -187 189 -187 213 -165 c 0,19,20
 297 -92 297 -92 297 12 c 1,21,22
 266 2 266 2 236 2 c 0,23,24
 138 2 138 2 138 105 c 0,0,1
EndSplineSet
EndChar

StartChar: afii57407
Encoding: 1567 1567 403
Width: 744
GlyphClass: 2
Flags: W
LayerCount: 2
Fore
SplineSet
699 930 m 0,0,1
 699 864 699 864 669 819 c 0,2,3
 634 766 634 766 571 766 c 0,4,5
 533 766 533 766 507 791.5 c 128,-1,6
 481 817 481 817 481 855 c 0,7,8
 481 897 481 897 510 926.5 c 128,-1,9
 539 956 539 956 581 956 c 0,10,11
 614 956 614 956 647 935 c 1,12,13
 648 994 648 994 603 1042 c 0,14,15
 551 1098 551 1098 464 1098 c 0,16,17
 400 1098 400 1098 353.5 1045 c 128,-1,18
 307 992 307 992 307 928 c 0,19,20
 307 852 307 852 405.5 689.5 c 128,-1,21
 504 527 504 527 504 433 c 0,22,23
 504 408 504 408 500 383 c 2,24,-1
 482 269 l 1,25,-1
 433 270 l 1,26,-1
 443 368 l 2,27,28
 449 426 449 426 375 497 c 0,29,30
 242 625 242 625 233 636 c 0,31,32
 155 732 155 732 155 848 c 0,33,34
 155 973 155 973 236 1067 c 0,35,36
 321 1164 321 1164 445 1164 c 0,37,38
 549 1164 549 1164 622 1100 c 0,39,40
 699 1032 699 1032 699 930 c 0,0,1
530 85 m 256,41,42
 530 50 530 50 505 25.5 c 128,-1,43
 480 1 480 1 445 1 c 256,44,45
 410 1 410 1 385 25.5 c 128,-1,46
 360 50 360 50 360 85 c 256,47,48
 360 120 360 120 385 145 c 128,-1,49
 410 170 410 170 445 170 c 256,50,51
 480 170 480 170 505 145 c 128,-1,52
 530 120 530 120 530 85 c 256,41,42
EndSplineSet
EndChar

StartChar: afii57392
Encoding: 1776 1776 404
Width: 960
Flags: W
LayerCount: 2
Fore
SplineSet
632 491 m 1,0,-1
 457 316 l 1,1,-1
 284 490 l 1,2,-1
 458 664 l 1,3,-1
 632 491 l 1,0,-1
EndSplineSet
EndChar

StartChar: afii57393
Encoding: 1777 1777 405
Width: 960
Flags: W
LayerCount: 2
Fore
SplineSet
636 248 m 0,0,1
 636 -33 636 -33 574 -33 c 0,2,3
 544 -33 544 -33 542.5 25 c 128,-1,4
 541 83 541 83 538 198 c 0,5,6
 532 333 532 333 490 488 c 0,7,8
 413 775 413 775 275 987 c 1,9,-1
 377 1147 l 1,10,11
 477 1000 477 1000 551 764 c 0,12,13
 636 493 636 493 636 248 c 0,0,1
EndSplineSet
EndChar

StartChar: afii57394
Encoding: 1778 1778 406
Width: 960
Flags: W
LayerCount: 2
Fore
SplineSet
805 1106 m 0,0,1
 805 963 805 963 721 871 c 0,2,3
 634 775 634 775 492 775 c 0,4,5
 445 775 445 775 394 786 c 1,6,7
 447 674 447 674 487 518 c 0,8,9
 534 333 534 333 534 179 c 0,10,11
 534 -33 534 -33 478 -33 c 0,12,13
 455 -33 455 -33 448 32 c 2,14,-1
 427 228 l 1,15,16
 401 392 401 392 344 551 c 0,17,18
 262 780 262 780 118 983 c 1,19,-1
 211 1142 l 1,20,21
 282 1042 282 1042 319 1009 c 0,22,23
 390 946 390 946 482 946 c 0,24,25
 668 946 668 946 739 1112 c 0,26,27
 758 1156 758 1156 780 1156 c 0,28,29
 805 1156 805 1156 805 1106 c 0,0,1
EndSplineSet
EndChar

StartChar: afii57395
Encoding: 1779 1779 407
Width: 960
Flags: W
LayerCount: 2
Fore
SplineSet
876 1101 m 0,0,1
 876 798 876 798 687 798 c 0,2,3
 649 798 649 798 608.5 821 c 128,-1,4
 568 844 568 844 551 877 c 1,5,6
 536 831 536 831 487.5 803.5 c 128,-1,7
 439 776 439 776 388 776 c 0,8,9
 360 776 360 776 336 784 c 1,10,11
 379 705 379 705 419 551 c 0,12,13
 467 366 467 366 467 213 c 0,14,15
 467 69 467 69 465 48 c 0,16,17
 457 -34 457 -34 419 -34 c 0,18,19
 398 -34 398 -34 390 32 c 0,20,21
 383 94 383 94 366 219 c 0,22,23
 346 357 346 357 292 513 c 0,24,25
 202 777 202 777 53 972 c 1,26,-1
 148 1140 l 1,27,28
 240 1008 240 1008 243 1006 c 0,29,30
 300 944 300 944 381 944 c 0,31,32
 448 944 448 944 482 1000 c 0,33,34
 498 1027 498 1027 521 1109 c 0,35,36
 532 1149 532 1149 554 1149 c 0,37,38
 579 1149 579 1149 585 1096 c 0,39,40
 592 1031 592 1031 609 1004 c 0,41,42
 636 961 636 961 699 961 c 0,43,44
 761 961 761 961 788 1013 c 0,45,46
 799 1033 799 1033 815 1105 c 0,47,48
 826 1153 826 1153 852 1153 c 0,49,50
 876 1153 876 1153 876 1101 c 0,0,1
EndSplineSet
EndChar

StartChar: afii62843
Encoding: 1780 1780 408
Width: 960
Flags: W
LayerCount: 2
Fore
SplineSet
853 840 m 0,0,1
 853 789 853 789 779 736 c 0,2,3
 697 677 697 677 595 677 c 0,4,5
 477 677 477 677 405 726 c 1,6,7
 447 655 447 655 481 519 c 0,8,9
 520 362 520 362 520 213 c 0,10,11
 520 69 520 69 518 48 c 0,12,13
 510 -34 510 -34 472 -34 c 0,14,15
 450 -34 450 -34 442 32 c 0,16,17
 435 94 435 94 419 219 c 0,18,19
 398 357 398 357 345 513 c 0,20,21
 257 773 257 773 106 972 c 1,22,-1
 201 1140 l 1,23,24
 253 1063 253 1063 358 932 c 1,25,26
 364 1042 364 1042 435 1114.5 c 128,-1,27
 506 1187 506 1187 616 1187 c 0,28,29
 681 1187 681 1187 737 1148 c 0,30,31
 781 1118 781 1118 795 1087 c 0,32,33
 801 1073 801 1073 792.5 1065 c 128,-1,34
 784 1057 784 1057 769 1062 c 0,35,36
 711 1080 711 1080 629 1080 c 0,37,38
 562 1080 562 1080 518 1042 c 128,-1,39
 474 1004 474 1004 474 939 c 0,40,41
 474 928 474 928 476 920 c 0,42,43
 487 875 487 875 540 847 c 0,44,45
 586 823 586 823 638 821 c 0,46,47
 732 818 732 818 795 855 c 0,48,49
 819 869 819 869 833 869 c 0,50,51
 853 869 853 869 853 840 c 0,0,1
EndSplineSet
EndChar

StartChar: afii62844
Encoding: 1781 1781 409
Width: 960
Flags: W
LayerCount: 2
Fore
SplineSet
852 250 m 2,0,1
 852 156 852 156 799 73 c 0,2,3
 737 -24 737 -24 644 -24 c 0,4,5
 536 -24 536 -24 479 80 c 1,6,7
 416 -39 416 -39 292 -39 c 0,8,9
 202 -39 202 -39 148 37 c 0,10,11
 100 105 100 105 100 199 c 0,12,13
 100 454 100 454 379 944 c 1,14,-1
 341 990 l 1,15,-1
 420 1154 l 1,16,17
 575 977 575 977 696 773 c 0,18,19
 852 510 852 510 852 351 c 2,20,-1
 852 250 l 2,0,1
775 260 m 0,21,22
 775 386 775 386 617 632 c 0,23,24
 517 787 517 787 423 898 c 1,25,26
 354 771 354 771 285 599 c 0,27,28
 198 382 198 382 198 289 c 0,29,30
 198 229 198 229 224 186 c 0,31,32
 255 136 255 136 311 136 c 0,33,34
 442 136 442 136 456 260 c 0,35,36
 460 298 460 298 485 298 c 0,37,38
 509 298 509 298 516 261 c 0,39,40
 540 141 540 141 657 141 c 0,41,42
 709 141 709 141 742 174.5 c 128,-1,43
 775 208 775 208 775 260 c 0,21,22
EndSplineSet
EndChar

StartChar: afii62845
Encoding: 1782 1782 410
Width: 960
Flags: W
LayerCount: 2
Fore
SplineSet
864 811 m 2,0,-1
 796 616 l 1,1,2
 388 479 388 479 174 -2 c 0,3,4
 161 -33 161 -33 143 -33 c 0,5,6
 123 -33 123 -33 123 -6 c 0,7,8
 123 1 123 1 124 5 c 0,9,10
 131 71 131 71 155 146.5 c 128,-1,11
 179 222 179 222 221 307 c 0,12,13
 295 458 295 458 397 551 c 1,14,15
 287 565 287 565 225 624 c 128,-1,16
 163 683 163 683 163 775 c 0,17,18
 163 871 163 871 278 1004 c 0,19,20
 405 1152 405 1152 523 1152 c 0,21,22
 553 1152 553 1152 589 1138.5 c 128,-1,23
 625 1125 625 1125 656.5 1103.5 c 128,-1,24
 688 1082 688 1082 709.5 1054.5 c 128,-1,25
 731 1027 731 1027 731 1000 c 0,26,27
 731 989 731 989 724.5 983 c 128,-1,28
 718 977 718 977 707 977 c 0,29,30
 702 977 702 977 699 978 c 0,31,32
 600 1004 600 1004 520 1004 c 0,33,34
 478 1004 478 1004 437 990.5 c 128,-1,35
 396 977 396 977 363.5 953.5 c 128,-1,36
 331 930 331 930 311 899 c 128,-1,37
 291 868 291 868 291 832 c 0,38,39
 291 705 291 705 511 705 c 0,40,41
 536 705 536 705 562 711 c 128,-1,42
 588 717 588 717 622.5 731.5 c 128,-1,43
 657 746 657 746 705.5 769.5 c 128,-1,44
 754 793 754 793 826 828 c 0,45,46
 844 836 844 836 852 836 c 0,47,48
 866 836 866 836 866 822 c 0,49,50
 866 819 866 819 864 811 c 2,0,-1
EndSplineSet
EndChar

StartChar: afii57399
Encoding: 1783 1783 411
Width: 960
Flags: W
LayerCount: 2
Fore
SplineSet
876 983 m 1,0,1
 831 928 831 928 786 853 c 0,2,3
 682 680 682 680 620 488 c 0,4,5
 575 348 575 348 538 114 c 0,6,7
 514 -35 514 -35 485 -35 c 0,8,9
 460 -35 460 -35 436 107 c 0,10,11
 399 330 399 330 345 492 c 0,12,13
 239 810 239 810 76 969 c 1,14,-1
 131 1130 l 2,15,16
 139 1155 139 1155 144 1156 c 0,17,18
 149 1156 149 1156 167 1135 c 0,19,20
 289 997 289 997 390 713 c 0,21,22
 477 469 477 469 486 327 c 1,23,24
 507 507 507 507 573 711 c 0,25,26
 665 995 665 995 799 1147 c 0,27,28
 814 1164 814 1164 819 1165 c 0,29,30
 824 1162 824 1162 830 1142 c 2,31,-1
 876 983 l 1,0,1
EndSplineSet
EndChar

StartChar: afii57400
Encoding: 1784 1784 412
Width: 960
Flags: W
LayerCount: 2
Fore
SplineSet
75 146 m 1,0,1
 122 204 122 204 166 276 c 0,2,3
 269 445 269 445 331 641 c 0,4,5
 376 783 376 783 413 1016 c 0,6,7
 436 1164 436 1164 466 1164 c 0,8,9
 491 1164 491 1164 515 1022 c 0,10,11
 552 799 552 799 606 637 c 0,12,13
 712 319 712 319 876 160 c 1,14,-1
 820 -1 l 2,15,16
 811 -26 811 -26 806 -26 c 0,17,18
 799 -23 799 -23 784 -6 c 0,19,20
 662 130 662 130 561 416 c 0,21,22
 475 658 475 658 465 802 c 1,23,24
 445 624 445 624 379 418 c 0,25,26
 288 134 288 134 152 -18 c 0,27,28
 137 -34 137 -34 133 -35 c 0,29,30
 128 -32 128 -32 122 -12 c 2,31,-1
 75 146 l 1,0,1
EndSplineSet
EndChar

StartChar: afii57401
Encoding: 1785 1785 413
Width: 960
Flags: W
LayerCount: 2
Fore
SplineSet
807 161 m 1,0,-1
 769 -14 l 2,1,2
 764 -35 764 -35 760 -36 c 0,3,4
 755 -36 755 -36 733 -12 c 0,5,6
 625 105 625 105 591 284 c 0,7,8
 571 392 571 392 571 617 c 1,9,10
 500 590 500 590 386 590 c 0,11,12
 164 590 164 590 164 777 c 0,13,14
 164 908 164 908 232 1025 c 0,15,16
 307 1154 307 1154 411 1154 c 0,17,18
 552 1154 552 1154 616 1006 c 0,19,20
 661 899 661 899 661 736 c 0,21,22
 661 486 661 486 704 343 c 0,23,24
 737 234 737 234 807 161 c 1,0,-1
552 778 m 1,25,26
 548 851 548 851 505 911 c 0,27,28
 457 980 457 980 388 980 c 0,29,30
 337 980 337 980 297 940.5 c 128,-1,31
 257 901 257 901 257 851 c 0,32,33
 257 755 257 755 416 755 c 0,34,35
 497 755 497 755 552 778 c 1,25,26
EndSplineSet
EndChar

StartChar: afii57392.001
Encoding: 1632 1632 414
Width: 960
Flags: W
LayerCount: 2
Fore
SplineSet
632 491 m 1,0,-1
 457 316 l 1,1,-1
 284 490 l 1,2,-1
 458 664 l 1,3,-1
 632 491 l 1,0,-1
EndSplineSet
EndChar

StartChar: afii57393.001
Encoding: 1633 1633 415
Width: 960
Flags: W
LayerCount: 2
Fore
SplineSet
636 248 m 0,0,1
 636 -33 636 -33 574 -33 c 0,2,3
 544 -33 544 -33 542.5 25 c 128,-1,4
 541 83 541 83 538 198 c 0,5,6
 532 333 532 333 490 488 c 0,7,8
 413 775 413 775 275 987 c 1,9,-1
 377 1147 l 1,10,11
 477 1000 477 1000 551 764 c 0,12,13
 636 493 636 493 636 248 c 0,0,1
EndSplineSet
EndChar

StartChar: afii57394.001
Encoding: 1634 1634 416
Width: 960
Flags: W
LayerCount: 2
Fore
SplineSet
805 1106 m 0,0,1
 805 963 805 963 721 871 c 0,2,3
 634 775 634 775 492 775 c 0,4,5
 445 775 445 775 394 786 c 1,6,7
 447 674 447 674 487 518 c 0,8,9
 534 333 534 333 534 179 c 0,10,11
 534 -33 534 -33 478 -33 c 0,12,13
 455 -33 455 -33 448 32 c 2,14,-1
 427 228 l 1,15,16
 401 392 401 392 344 551 c 0,17,18
 262 780 262 780 118 983 c 1,19,-1
 211 1142 l 1,20,21
 282 1042 282 1042 319 1009 c 0,22,23
 390 946 390 946 482 946 c 0,24,25
 668 946 668 946 739 1112 c 0,26,27
 758 1156 758 1156 780 1156 c 0,28,29
 805 1156 805 1156 805 1106 c 0,0,1
EndSplineSet
EndChar

StartChar: afii57395.001
Encoding: 1635 1635 417
Width: 960
Flags: W
LayerCount: 2
Fore
SplineSet
876 1101 m 0,0,1
 876 798 876 798 687 798 c 0,2,3
 649 798 649 798 608.5 821 c 128,-1,4
 568 844 568 844 551 877 c 1,5,6
 536 831 536 831 487.5 803.5 c 128,-1,7
 439 776 439 776 388 776 c 0,8,9
 360 776 360 776 336 784 c 1,10,11
 379 705 379 705 419 551 c 0,12,13
 467 366 467 366 467 213 c 0,14,15
 467 69 467 69 465 48 c 0,16,17
 457 -34 457 -34 419 -34 c 0,18,19
 398 -34 398 -34 390 32 c 0,20,21
 383 94 383 94 366 219 c 0,22,23
 346 357 346 357 292 513 c 0,24,25
 202 777 202 777 53 972 c 1,26,-1
 148 1140 l 1,27,28
 240 1008 240 1008 243 1006 c 0,29,30
 300 944 300 944 381 944 c 0,31,32
 448 944 448 944 482 1000 c 0,33,34
 498 1027 498 1027 521 1109 c 0,35,36
 532 1149 532 1149 554 1149 c 0,37,38
 579 1149 579 1149 585 1096 c 0,39,40
 592 1031 592 1031 609 1004 c 0,41,42
 636 961 636 961 699 961 c 0,43,44
 761 961 761 961 788 1013 c 0,45,46
 799 1033 799 1033 815 1105 c 0,47,48
 826 1153 826 1153 852 1153 c 0,49,50
 876 1153 876 1153 876 1101 c 0,0,1
EndSplineSet
EndChar

StartChar: afii57396
Encoding: 1636 1636 418
Width: 960
Flags: W
LayerCount: 2
Fore
SplineSet
853 840 m 0,0,1
 853 789 853 789 779 736 c 0,2,3
 697 677 697 677 595 677 c 0,4,5
 477 677 477 677 405 726 c 1,6,7
 447 655 447 655 481 519 c 0,8,9
 520 362 520 362 520 213 c 0,10,11
 520 69 520 69 518 48 c 0,12,13
 510 -34 510 -34 472 -34 c 0,14,15
 450 -34 450 -34 442 32 c 0,16,17
 435 94 435 94 419 219 c 0,18,19
 398 357 398 357 345 513 c 0,20,21
 257 773 257 773 106 972 c 1,22,-1
 201 1140 l 1,23,24
 253 1063 253 1063 358 932 c 1,25,26
 364 1042 364 1042 435 1114.5 c 128,-1,27
 506 1187 506 1187 616 1187 c 0,28,29
 681 1187 681 1187 737 1148 c 0,30,31
 781 1118 781 1118 795 1087 c 0,32,33
 801 1073 801 1073 792.5 1065 c 128,-1,34
 784 1057 784 1057 769 1062 c 0,35,36
 711 1080 711 1080 629 1080 c 0,37,38
 562 1080 562 1080 518 1042 c 128,-1,39
 474 1004 474 1004 474 939 c 0,40,41
 474 928 474 928 476 920 c 0,42,43
 487 875 487 875 540 847 c 0,44,45
 586 823 586 823 638 821 c 0,46,47
 732 818 732 818 795 855 c 0,48,49
 819 869 819 869 833 869 c 0,50,51
 853 869 853 869 853 840 c 0,0,1
EndSplineSet
EndChar

StartChar: afii57397
Encoding: 1637 1637 419
Width: 960
Flags: W
LayerCount: 2
Fore
SplineSet
852 250 m 2,0,1
 852 156 852 156 799 73 c 0,2,3
 737 -24 737 -24 644 -24 c 0,4,5
 536 -24 536 -24 479 80 c 1,6,7
 416 -39 416 -39 292 -39 c 0,8,9
 202 -39 202 -39 148 37 c 0,10,11
 100 105 100 105 100 199 c 0,12,13
 100 454 100 454 379 944 c 1,14,-1
 341 990 l 1,15,-1
 420 1154 l 1,16,17
 575 977 575 977 696 773 c 0,18,19
 852 510 852 510 852 351 c 2,20,-1
 852 250 l 2,0,1
775 260 m 0,21,22
 775 386 775 386 617 632 c 0,23,24
 517 787 517 787 423 898 c 1,25,26
 354 771 354 771 285 599 c 0,27,28
 198 382 198 382 198 289 c 0,29,30
 198 229 198 229 224 186 c 0,31,32
 255 136 255 136 311 136 c 0,33,34
 442 136 442 136 456 260 c 0,35,36
 460 298 460 298 485 298 c 0,37,38
 509 298 509 298 516 261 c 0,39,40
 540 141 540 141 657 141 c 0,41,42
 709 141 709 141 742 174.5 c 128,-1,43
 775 208 775 208 775 260 c 0,21,22
EndSplineSet
EndChar

StartChar: afii57398
Encoding: 1638 1638 420
Width: 960
Flags: W
LayerCount: 2
Fore
SplineSet
864 811 m 2,0,-1
 796 616 l 1,1,2
 388 479 388 479 174 -2 c 0,3,4
 161 -33 161 -33 143 -33 c 0,5,6
 123 -33 123 -33 123 -6 c 0,7,8
 123 1 123 1 124 5 c 0,9,10
 131 71 131 71 155 146.5 c 128,-1,11
 179 222 179 222 221 307 c 0,12,13
 295 458 295 458 397 551 c 1,14,15
 287 565 287 565 225 624 c 128,-1,16
 163 683 163 683 163 775 c 0,17,18
 163 871 163 871 278 1004 c 0,19,20
 405 1152 405 1152 523 1152 c 0,21,22
 553 1152 553 1152 589 1138.5 c 128,-1,23
 625 1125 625 1125 656.5 1103.5 c 128,-1,24
 688 1082 688 1082 709.5 1054.5 c 128,-1,25
 731 1027 731 1027 731 1000 c 0,26,27
 731 989 731 989 724.5 983 c 128,-1,28
 718 977 718 977 707 977 c 0,29,30
 702 977 702 977 699 978 c 0,31,32
 600 1004 600 1004 520 1004 c 0,33,34
 478 1004 478 1004 437 990.5 c 128,-1,35
 396 977 396 977 363.5 953.5 c 128,-1,36
 331 930 331 930 311 899 c 128,-1,37
 291 868 291 868 291 832 c 0,38,39
 291 705 291 705 511 705 c 0,40,41
 536 705 536 705 562 711 c 128,-1,42
 588 717 588 717 622.5 731.5 c 128,-1,43
 657 746 657 746 705.5 769.5 c 128,-1,44
 754 793 754 793 826 828 c 0,45,46
 844 836 844 836 852 836 c 0,47,48
 866 836 866 836 866 822 c 0,49,50
 866 819 866 819 864 811 c 2,0,-1
EndSplineSet
EndChar

StartChar: afii57399.001
Encoding: 1639 1639 421
Width: 960
Flags: W
LayerCount: 2
Fore
SplineSet
876 983 m 1,0,1
 831 928 831 928 786 853 c 0,2,3
 682 680 682 680 620 488 c 0,4,5
 575 348 575 348 538 114 c 0,6,7
 514 -35 514 -35 485 -35 c 0,8,9
 460 -35 460 -35 436 107 c 0,10,11
 399 330 399 330 345 492 c 0,12,13
 239 810 239 810 76 969 c 1,14,-1
 131 1130 l 2,15,16
 139 1155 139 1155 144 1156 c 0,17,18
 149 1156 149 1156 167 1135 c 0,19,20
 289 997 289 997 390 713 c 0,21,22
 477 469 477 469 486 327 c 1,23,24
 507 507 507 507 573 711 c 0,25,26
 665 995 665 995 799 1147 c 0,27,28
 814 1164 814 1164 819 1165 c 0,29,30
 824 1162 824 1162 830 1142 c 2,31,-1
 876 983 l 1,0,1
EndSplineSet
EndChar

StartChar: afii57400.001
Encoding: 1640 1640 422
Width: 960
Flags: W
LayerCount: 2
Fore
SplineSet
75 146 m 1,0,1
 122 204 122 204 166 276 c 0,2,3
 269 445 269 445 331 641 c 0,4,5
 376 783 376 783 413 1016 c 0,6,7
 436 1164 436 1164 466 1164 c 0,8,9
 491 1164 491 1164 515 1022 c 0,10,11
 552 799 552 799 606 637 c 0,12,13
 712 319 712 319 876 160 c 1,14,-1
 820 -1 l 2,15,16
 811 -26 811 -26 806 -26 c 0,17,18
 799 -23 799 -23 784 -6 c 0,19,20
 662 130 662 130 561 416 c 0,21,22
 475 658 475 658 465 802 c 1,23,24
 445 624 445 624 379 418 c 0,25,26
 288 134 288 134 152 -18 c 0,27,28
 137 -34 137 -34 133 -35 c 0,29,30
 128 -32 128 -32 122 -12 c 2,31,-1
 75 146 l 1,0,1
EndSplineSet
EndChar

StartChar: afii57401.001
Encoding: 1641 1641 423
Width: 960
Flags: W
LayerCount: 2
Fore
SplineSet
807 161 m 1,0,-1
 769 -14 l 2,1,2
 764 -35 764 -35 760 -36 c 0,3,4
 755 -36 755 -36 733 -12 c 0,5,6
 625 105 625 105 591 284 c 0,7,8
 571 392 571 392 571 617 c 1,9,10
 500 590 500 590 386 590 c 0,11,12
 164 590 164 590 164 777 c 0,13,14
 164 908 164 908 232 1025 c 0,15,16
 307 1154 307 1154 411 1154 c 0,17,18
 552 1154 552 1154 616 1006 c 0,19,20
 661 899 661 899 661 736 c 0,21,22
 661 486 661 486 704 343 c 0,23,24
 737 234 737 234 807 161 c 1,0,-1
552 778 m 1,25,26
 548 851 548 851 505 911 c 0,27,28
 457 980 457 980 388 980 c 0,29,30
 337 980 337 980 297 940.5 c 128,-1,31
 257 901 257 901 257 851 c 0,32,33
 257 755 257 755 416 755 c 0,34,35
 497 755 497 755 552 778 c 1,25,26
EndSplineSet
EndChar

StartChar: guillemotleft
Encoding: 171 171 424
Width: 836
Flags: W
LayerCount: 2
Fore
SplineSet
660 634 m 1,0,1
 618 524 618 524 618 410 c 0,2,3
 618 271 618 271 718 97 c 1,4,-1
 718 98 l 1,5,6
 734 74 734 74 741 58.5 c 128,-1,7
 748 43 748 43 751 34 c 0,8,9
 751 9 751 9 731 9 c 0,10,11
 726 9 726 9 715 15 c 0,12,13
 610 84 610 84 547 183 c 1,14,-1
 547 182 l 1,15,16
 476 292 476 292 476 413 c 0,17,18
 477 465 477 465 492 517 c 128,-1,19
 507 569 507 569 536 621 c 0,20,21
 557 658 557 658 585.5 695 c 128,-1,22
 614 732 614 732 648 764 c 0,23,24
 705 818 705 818 726 818 c 0,25,26
 753 818 753 818 753 794 c 0,27,28
 753 783 753 783 747 775 c 0,29,30
 705 720 705 720 686.5 686 c 128,-1,31
 668 652 668 652 659 633 c 1,32,-1
 660 634 l 1,0,1
360 634 m 1,33,34
 318 524 318 524 318 410 c 0,35,36
 318 271 318 271 418 97 c 1,37,-1
 418 98 l 1,38,39
 434 74 434 74 441 58.5 c 128,-1,40
 448 43 448 43 451 34 c 0,41,42
 451 9 451 9 431 9 c 0,43,44
 426 9 426 9 415 15 c 0,45,46
 310 84 310 84 247 183 c 1,47,-1
 247 182 l 1,48,49
 176 292 176 292 176 413 c 0,50,51
 177 465 177 465 192 517 c 128,-1,52
 207 569 207 569 236 621 c 0,53,54
 257 658 257 658 285.5 695 c 128,-1,55
 314 732 314 732 348 764 c 0,56,57
 405 818 405 818 426 818 c 0,58,59
 453 818 453 818 453 794 c 0,60,61
 453 783 453 783 447 775 c 0,62,63
 405 720 405 720 386.5 686 c 128,-1,64
 368 652 368 652 359 633 c 1,65,-1
 360 634 l 1,33,34
EndSplineSet
EndChar

StartChar: guillemotright
Encoding: 187 187 425
Width: 836
Flags: W
LayerCount: 2
Fore
SplineSet
270 633 m 1,0,1
 261 652 261 652 242.5 686 c 128,-1,2
 224 720 224 720 182 775 c 0,3,4
 176 783 176 783 176 794 c 0,5,6
 176 818 176 818 203 818 c 0,7,8
 224 818 224 818 281 764 c 0,9,10
 315 732 315 732 343.5 695 c 128,-1,11
 372 658 372 658 393 621 c 0,12,13
 422 569 422 569 437 517 c 128,-1,14
 452 465 452 465 453 413 c 0,15,16
 453 292 453 292 382 182 c 1,17,-1
 382 183 l 1,18,19
 319 84 319 84 214 15 c 0,20,21
 203 9 203 9 198 9 c 0,22,23
 178 9 178 9 178 34 c 0,24,25
 181 43 181 43 188 58.5 c 128,-1,26
 195 74 195 74 211 98 c 1,27,-1
 211 97 l 1,28,29
 311 271 311 271 311 410 c 0,30,31
 311 524 311 524 269 634 c 1,32,-1
 270 633 l 1,0,1
570 633 m 1,33,34
 561 652 561 652 542.5 686 c 128,-1,35
 524 720 524 720 482 775 c 0,36,37
 476 783 476 783 476 794 c 0,38,39
 476 818 476 818 503 818 c 0,40,41
 524 818 524 818 581 764 c 0,42,43
 615 732 615 732 643.5 695 c 128,-1,44
 672 658 672 658 693 621 c 0,45,46
 722 569 722 569 737 517 c 128,-1,47
 752 465 752 465 753 413 c 0,48,49
 753 292 753 292 682 182 c 1,50,-1
 682 183 l 1,51,52
 619 84 619 84 514 15 c 0,53,54
 503 9 503 9 498 9 c 0,55,56
 478 9 478 9 478 34 c 0,57,58
 481 43 481 43 488 58.5 c 128,-1,59
 495 74 495 74 511 98 c 1,60,-1
 511 97 l 1,61,62
 611 271 611 271 611 410 c 0,63,64
 611 524 611 524 569 634 c 1,65,-1
 570 633 l 1,33,34
EndSplineSet
EndChar

StartChar: quoteleft
Encoding: 8216 8216 426
Width: 425
Flags: W
LayerCount: 2
Fore
SplineSet
121 993 m 0,0,1
 122 1058 122 1058 166 1121.5 c 128,-1,2
 210 1185 210 1185 265 1211 c 1,3,-1
 296 1153 l 1,4,5
 280 1144 280 1144 258 1120 c 128,-1,6
 236 1096 236 1096 226 1058 c 1,7,8
 292 1030 292 1030 289 975 c 0,9,10
 289 959 289 959 282.5 944.5 c 128,-1,11
 276 930 276 930 265 919 c 128,-1,12
 254 908 254 908 239 901.5 c 128,-1,13
 224 895 224 895 208 895 c 0,14,15
 188 895 188 895 171.5 903.5 c 128,-1,16
 155 912 155 912 144 925.5 c 128,-1,17
 133 939 133 939 127 957 c 128,-1,18
 121 975 121 975 121 993 c 0,0,1
EndSplineSet
EndChar

StartChar: quoteright
Encoding: 8217 8217 427
Width: 372
Flags: W
LayerCount: 2
Fore
SplineSet
311 1113 m 0,0,1
 310 1048 310 1048 266 984.5 c 128,-1,2
 222 921 222 921 167 895 c 1,3,-1
 136 953 l 1,4,5
 152 962 152 962 174 986 c 128,-1,6
 196 1010 196 1010 206 1048 c 1,7,8
 140 1076 140 1076 143 1131 c 0,9,10
 143 1147 143 1147 149.5 1161.5 c 128,-1,11
 156 1176 156 1176 167 1187 c 128,-1,12
 178 1198 178 1198 192.5 1204.5 c 128,-1,13
 207 1211 207 1211 224 1211 c 0,14,15
 244 1211 244 1211 260 1202.5 c 128,-1,16
 276 1194 276 1194 287.5 1180.5 c 128,-1,17
 299 1167 299 1167 305 1149 c 128,-1,18
 311 1131 311 1131 311 1113 c 0,0,1
EndSplineSet
EndChar

StartChar: afii57451
Encoding: 1611 1611 428
Width: 0
GlyphClass: 4
Flags: W
AnchorPoint: "Anchor-2" 0 0 mark 0
AnchorPoint: "Anchor-0" 0 0 mark 0
LayerCount: 2
Fore
SplineSet
148 171 m 1,0,-1
 -180 0 l 1,1,-1
 -157 89 l 1,2,-1
 171 259 l 1,3,-1
 148 171 l 1,0,-1
158 322 m 1,4,-1
 -170 151 l 1,5,-1
 -147 240 l 1,6,-1
 181 410 l 1,7,-1
 158 322 l 1,4,-1
EndSplineSet
EndChar

StartChar: afii57454
Encoding: 1614 1614 429
Width: 0
GlyphClass: 4
Flags: W
AnchorPoint: "Anchor-2" 0 0 mark 0
AnchorPoint: "Anchor-0" 0 0 mark 0
LayerCount: 2
Fore
SplineSet
151 167 m 1,0,-1
 -177 -4 l 1,1,-1
 -154 85 l 1,2,-1
 174 255 l 1,3,-1
 151 167 l 1,0,-1
EndSplineSet
EndChar

StartChar: afii57455
Encoding: 1615 1615 430
Width: 0
GlyphClass: 4
Flags: W
AnchorPoint: "Anchor-2" 0 0 mark 0
AnchorPoint: "Anchor-0" 0 0 mark 0
LayerCount: 2
Fore
SplineSet
166 174 m 1,0,1
 136 119 136 119 109 101 c 1,2,-1
 41 125 l 1,3,4
 -54 2 -54 2 -233 2 c 0,5,6
 -286 2 -286 2 -301 35 c 1,7,8
 -276 37 -276 37 -239.5 46.5 c 128,-1,9
 -203 56 -203 56 -153 76 c 0,10,11
 -102 96 -102 96 -67 114.5 c 128,-1,12
 -32 133 -32 133 -12 150 c 1,13,14
 -131 205 -131 205 -131 275 c 0,15,16
 -131 329 -131 329 -65 389 c 0,17,18
 4 449 4 449 60 449 c 0,19,20
 138 449 138 449 138 340 c 0,21,22
 138 295 138 295 127.5 260 c 128,-1,23
 117 225 117 225 97 199 c 1,24,25
 138 174 138 174 166 174 c 1,0,1
72 295 m 0,26,27
 72 365 72 365 27 365 c 0,28,29
 15 365 15 365 2.5 361.5 c 128,-1,30
 -10 358 -10 358 -22 350 c 0,31,32
 -53 335 -53 335 -53 312 c 0,33,34
 -53 266 -53 266 56 219 c 1,35,36
 72 243 72 243 72 295 c 0,26,27
EndSplineSet
EndChar

StartChar: afii57452
Encoding: 1612 1612 431
Width: 0
GlyphClass: 4
Flags: W
AnchorPoint: "Anchor-2" 0 0 mark 0
AnchorPoint: "Anchor-0" 0 0 mark 0
LayerCount: 2
Fore
SplineSet
215 148 m 1,0,-1
 149 160 l 1,1,2
 107 91 107 91 28 52.5 c 128,-1,3
 -51 14 -51 14 -166 4 c 1,4,5
 -152 36 -152 36 -145 70 c 128,-1,6
 -138 104 -138 104 -138 141 c 0,7,8
 -138 201 -138 201 -199 201 c 0,9,10
 -219 201 -219 201 -243 193 c 128,-1,11
 -267 185 -267 185 -293 168 c 1,12,13
 -284 297 -284 297 -160 297 c 0,14,15
 -84 297 -84 297 -84 205 c 0,16,17
 -84 167 -84 167 -89 139 c 128,-1,18
 -94 111 -94 111 -105 94 c 1,19,20
 -76 88 -76 88 -11 111 c 0,21,22
 66 138 66 138 100 178 c 1,23,24
 -19 218 -19 218 -19 293 c 0,25,26
 -19 351 -19 351 37 410 c 0,27,28
 94 471 94 471 151 471 c 0,29,30
 167 471 167 471 180.5 461.5 c 128,-1,31
 194 452 194 452 204 436.5 c 128,-1,32
 214 421 214 421 219.5 401.5 c 128,-1,33
 225 382 225 382 225 361 c 0,34,35
 225 301 225 301 200 238 c 1,36,37
 211 233 211 233 226.5 230.5 c 128,-1,38
 242 228 242 228 262 228 c 1,39,-1
 215 148 l 1,0,-1
174 309 m 0,40,41
 174 387 174 387 123 387 c 0,42,43
 108 387 108 387 95 382 c 128,-1,44
 82 377 82 377 71.5 369.5 c 128,-1,45
 61 362 61 362 55 352.5 c 128,-1,46
 49 343 49 343 49 334 c 0,47,48
 49 293 49 293 157 252 c 1,49,50
 174 281 174 281 174 309 c 0,40,41
EndSplineSet
EndChar

StartChar: afii57456
Encoding: 1616 1616 432
Width: 0
GlyphClass: 4
Flags: W
AnchorPoint: "Anchor-3" 0 0 mark 0
AnchorPoint: "Anchor-1" 0 0 mark 0
LayerCount: 2
Fore
SplineSet
151 167 m 1,0,-1
 -177 -4 l 1,1,-1
 -154 85 l 1,2,-1
 174 255 l 1,3,-1
 151 167 l 1,0,-1
EndSplineSet
EndChar

StartChar: afii57457
Encoding: 1617 1617 433
Width: 0
GlyphClass: 4
Flags: W
AnchorPoint: "Anchor-2" 0 0 mark 0
AnchorPoint: "Anchor-0" 0 0 mark 0
LayerCount: 2
Fore
SplineSet
169 290 m 2,0,1
 167 268 167 268 164 236 c 128,-1,2
 161 204 161 204 153 161 c 1,3,4
 124 77 124 77 48 77 c 0,5,6
 19 77 19 77 -9 91 c 1,7,8
 -59 1 -59 1 -118 1 c 0,9,10
 -191 1 -191 1 -191 101 c 0,11,12
 -191 140 -191 140 -183.5 166 c 128,-1,13
 -176 192 -176 192 -161 208 c 0,14,15
 -136 234 -136 234 -122 224 c 1,16,17
 -130 210 -130 210 -134 193 c 128,-1,18
 -138 176 -138 176 -138 153 c 0,19,20
 -138 110 -138 110 -105 110 c 0,21,22
 -65 110 -65 110 -44 171 c 2,23,-1
 -17 267 l 1,24,-1
 24 290 l 1,25,26
 24 185 24 185 77 185 c 0,27,28
 118 185 118 185 118 218 c 0,29,30
 118 262 118 262 119.5 286.5 c 128,-1,31
 121 311 121 311 124 319 c 0,32,33
 143 359 143 359 175 368 c 1,34,-1
 169 290 l 2,0,1
EndSplineSet
EndChar

StartChar: afii57458
Encoding: 1618 1618 434
Width: 0
GlyphClass: 4
Flags: W
AnchorPoint: "Anchor-2" 0 0 mark 0
AnchorPoint: "Anchor-0" 0 0 mark 0
LayerCount: 2
Fore
SplineSet
157 187 m 0,0,1
 157 149 157 149 142.5 116.5 c 128,-1,2
 128 84 128 84 103 59.5 c 128,-1,3
 78 35 78 35 45.5 21 c 128,-1,4
 13 7 13 7 -23 7 c 0,5,6
 -142 7 -142 7 -142 128 c 0,7,8
 -142 176 -142 176 -128.5 216 c 128,-1,9
 -115 256 -115 256 -89 288 c 1,10,11
 -46 357 -46 357 14 357 c 0,12,13
 42 357 42 357 68 344 c 128,-1,14
 94 331 94 331 114 308.5 c 128,-1,15
 134 286 134 286 145.5 254.5 c 128,-1,16
 157 223 157 223 157 187 c 0,0,1
106 151 m 1,17,18
 106 198 106 198 67 230 c 0,19,20
 33 261 33 261 -7 261 c 0,21,22
 -24 261 -24 261 -39 253 c 128,-1,23
 -54 245 -54 245 -66 228 c 0,24,25
 -87 201 -87 201 -87 171 c 0,26,27
 -87 104 -87 104 -1 104 c 0,28,29
 71 104 71 104 106 151 c 1,17,18
EndSplineSet
EndChar

StartChar: exclam
Encoding: 33 33 437
Width: 333
GlyphClass: 2
Flags: W
LayerCount: 2
Fore
SplineSet
268 940 m 0,0,1
 268 881 268 881 244 721 c 0,2,3
 218 550 218 550 213 470 c 0,4,5
 204 336 204 336 201 234 c 1,6,-1
 166 234 l 1,7,8
 164 288 164 288 154 441 c 2,9,-1
 152 469 l 2,10,11
 147 532 147 532 118 725 c 0,12,13
 94 882 94 882 94 943 c 0,14,15
 94 1155 94 1155 181 1155 c 256,16,17
 268 1155 268 1155 268 940 c 0,0,1
270 81 m 256,18,19
 270 46 270 46 245 22 c 128,-1,20
 220 -2 220 -2 185 -2 c 0,21,22
 151 -2 151 -2 126.5 22.5 c 128,-1,23
 102 47 102 47 102 81 c 0,24,25
 102 116 102 116 126 140.5 c 128,-1,26
 150 165 150 165 185 165 c 256,27,28
 220 165 220 165 245 140.5 c 128,-1,29
 270 116 270 116 270 81 c 256,18,19
EndSplineSet
EndChar

StartChar: afii64060
Encoding: 64830 64830 438
Width: 576
GlyphClass: 2
Flags: W
LayerCount: 2
Fore
SplineSet
502 932 m 0,0,1
 299 643 299 643 299 408 c 0,2,3
 299 214 299 214 402 26 c 0,4,5
 418 -4 418 -4 459 -64.5 c 128,-1,6
 500 -125 500 -125 568 -216 c 0,7,8
 574 -224 574 -224 574 -233 c 0,9,10
 574 -256 574 -256 543 -256 c 0,11,12
 515 -256 515 -256 426 -168 c 0,13,14
 316 -61 316 -61 248 65 c 0,15,16
 156 235 156 235 156 403 c 0,17,18
 156 595 156 595 266 774 c 0,19,20
 367 938 367 938 538 1055 c 0,21,22
 547 1061 547 1061 554 1061 c 0,23,24
 573 1061 573 1061 573 1036 c 1,25,26
 563 1019 563 1019 502 932 c 0,0,1
EndSplineSet
EndChar

StartChar: afii64061
Encoding: 64831 64831 439
Width: 576
GlyphClass: 2
Flags: W
LayerCount: 2
Fore
SplineSet
328 777 m 0,0,1
 311 808 311 808 269.5 868 c 128,-1,2
 228 928 228 928 161 1019 c 0,3,4
 155 1026 155 1026 155 1036 c 0,5,6
 155 1060 155 1060 187 1060 c 0,7,8
 215 1060 215 1060 303 972 c 0,9,10
 357 918 357 918 401.5 860 c 128,-1,11
 446 802 446 802 481 738 c 0,12,13
 571 570 571 570 573 400 c 0,14,15
 573 203 573 203 464 28 c 0,16,17
 362 -134 362 -134 191 -252 c 0,18,19
 183 -257 183 -257 176 -257 c 0,20,21
 156 -257 156 -257 156 -233 c 1,22,23
 161 -224 161 -224 178.5 -198 c 128,-1,24
 196 -172 196 -172 227 -129 c 0,25,26
 431 159 431 159 431 396 c 0,27,28
 431 590 431 590 328 777 c 0,0,1
EndSplineSet
EndChar

StartChar: afii62821
Encoding: 65252 65252 440
Width: 916
GlyphClass: 2
Flags: W
AnchorPoint: "Anchor-1" 390 -600 basechar 0
AnchorPoint: "Anchor-0" 495 720 basechar 0
LayerCount: 2
Fore
SplineSet
916 0 m 1,0,-1
 860 0 l 2,1,2
 770 0 770 0 675 106 c 1,3,4
 622 -52 622 -52 555 -52 c 0,5,6
 493 -52 493 -52 382 11 c 0,7,8
 283 67 283 67 243 112 c 1,9,10
 153 0 153 0 52 0 c 2,11,-1
 -70 0 l 1,12,-1
 -70 148 l 1,13,-1
 56 148 l 2,14,15
 144 148 144 148 226 222 c 1,16,17
 267 268 267 268 350 359 c 0,18,19
 418 433 418 433 477 433 c 0,20,21
 548 433 548 433 610 359 c 0,22,23
 645 313 645 313 719 222 c 0,24,25
 782 148 782 148 860 148 c 2,26,-1
 916 148 l 1,27,-1
 916 0 l 1,0,-1
598 106 m 0,28,29
 604 164 604 164 565 231 c 0,30,31
 521 307 521 307 456 307 c 0,32,33
 390 307 390 307 314 209 c 1,34,35
 335 182 335 182 423 136 c 0,36,37
 519 86 519 86 576 84 c 0,38,39
 596 83 596 83 598 106 c 0,28,29
EndSplineSet
EndChar

StartChar: uni25CC
Encoding: 9676 9676 441
Width: 911
Flags: W
AnchorPoint: "Anchor-1" 405 -450 basechar 0
AnchorPoint: "Anchor-0" 510 930 basechar 0
LayerCount: 2
Fore
SplineSet
771 629 m 256,0,1
 771 592 771 592 734 592 c 0,2,3
 695 592 695 592 695 629 c 256,4,5
 695 666 695 666 734 666 c 0,6,7
 771 666 771 666 771 629 c 256,0,1
658 703 m 0,8,9
 658 666 658 666 621 666 c 0,10,11
 582 666 582 666 582 703 c 0,12,13
 582 742 582 742 621 742 c 0,14,15
 658 742 658 742 658 703 c 0,8,9
847 516 m 0,16,17
 847 477 847 477 808 477 c 0,18,19
 771 477 771 477 771 516 c 0,20,21
 771 553 771 553 810 553 c 0,22,23
 847 553 847 553 847 516 c 0,16,17
873 384 m 256,24,25
 873 347 873 347 836 347 c 0,26,27
 797 347 797 347 797 384 c 256,28,29
 797 421 797 421 836 421 c 0,30,31
 873 421 873 421 873 384 c 256,24,25
525 731 m 0,32,33
 525 692 525 692 488 692 c 256,34,35
 451 692 451 692 451 731 c 0,36,37
 451 768 451 768 488 768 c 256,38,39
 525 768 525 768 525 731 c 0,32,33
847 251 m 0,40,41
 847 214 847 214 808 214 c 0,42,43
 771 214 771 214 771 251 c 0,44,45
 771 290 771 290 808 290 c 0,46,47
 847 290 847 290 847 251 c 0,40,41
394 703 m 0,48,49
 394 666 394 666 356 666 c 0,50,51
 319 666 319 666 319 703 c 0,52,53
 319 742 319 742 356 742 c 0,54,55
 394 742 394 742 394 703 c 0,48,49
282 629 m 256,56,57
 282 592 282 592 243 592 c 0,58,59
 206 592 206 592 206 627 c 0,60,61
 206 666 206 666 243 666 c 0,62,63
 282 666 282 666 282 629 c 256,56,57
771 138 m 0,64,65
 771 101 771 101 734 101 c 256,66,67
 697 101 697 101 697 138 c 0,68,69
 697 177 697 177 734 177 c 256,70,71
 771 177 771 177 771 138 c 0,64,65
658 64 m 0,72,73
 658 27 658 27 621 27 c 256,74,75
 584 27 584 27 584 64 c 0,76,77
 584 103 584 103 621 103 c 256,78,79
 658 103 658 103 658 64 c 0,72,73
206 516 m 0,80,81
 206 477 206 477 171 477 c 0,82,83
 132 477 132 477 132 516 c 0,84,85
 132 553 132 553 169 553 c 256,86,87
 206 553 206 553 206 516 c 0,80,81
180 384 m 256,88,89
 180 347 180 347 143 347 c 0,90,91
 104 347 104 347 104 384 c 256,92,93
 104 421 104 421 143 421 c 0,94,95
 180 421 180 421 180 384 c 256,88,89
525 38 m 0,96,97
 525 -1 525 -1 488 -1 c 256,98,99
 451 -1 451 -1 451 38 c 0,100,101
 451 75 451 75 488 75 c 256,102,103
 525 75 525 75 525 38 c 0,96,97
394 66 m 0,104,105
 394 27 394 27 356 27 c 0,106,107
 319 27 319 27 319 64 c 0,108,109
 319 103 319 103 356 103 c 0,110,111
 394 103 394 103 394 66 c 0,104,105
206 251 m 0,112,113
 206 214 206 214 169 214 c 256,114,115
 132 214 132 214 132 251 c 0,116,117
 132 290 132 290 169 290 c 256,118,119
 206 290 206 290 206 251 c 0,112,113
282 138 m 0,120,121
 282 101 282 101 245 101 c 0,122,123
 206 101 206 101 206 138 c 0,124,125
 206 177 206 177 243 177 c 0,126,127
 282 177 282 177 282 138 c 0,120,121
EndSplineSet
EndChar

StartChar: afii62819
Encoding: 65246 65246 442
Width: 1228
GlyphClass: 2
Flags: W
AnchorPoint: "Anchor-1" 570 -945 basechar 0
AnchorPoint: "Anchor-0" 960 1335 basechar 0
LayerCount: 2
Fore
SplineSet
1228 0 m 1,0,-1
 1193 0 l 2,1,2
 1094 0 1094 0 1054 57 c 1,3,4
 1049 -59 1049 -59 1023 -228 c 1,5,6
 969 -367 969 -367 821 -439 c 0,7,8
 693 -502 693 -502 529 -502 c 256,9,10
 365 -502 365 -502 267 -432 c 0,11,12
 155 -352 155 -352 155 -194 c 0,13,14
 155 -35 155 -35 243 90 c 0,15,16
 254 105 254 105 266 105 c 0,17,18
 282 105 282 105 282 86 c 0,19,20
 282 78 282 78 278 68 c 0,21,22
 236 -37 236 -37 236 -108 c 0,23,24
 236 -230 236 -230 325 -295 c 0,25,26
 404 -354 404 -354 529 -354 c 0,27,28
 653 -354 653 -354 790 -309 c 0,29,30
 973 -249 973 -249 970 -150 c 2,31,-1
 954 464 l 2,32,33
 942 907 942 907 925 1107 c 1,34,-1
 1027 1196 l 1,35,36
 1032 1147 1032 1147 1047 767 c 2,37,-1
 1066 272 l 2,38,39
 1071 148 1071 148 1221 148 c 2,40,-1
 1228 148 l 1,41,-1
 1228 0 l 1,0,-1
EndSplineSet
EndChar

StartChar: braceright
Encoding: 125 125 445
Width: 836
GlyphClass: 2
Flags: W
LayerCount: 2
Fore
SplineSet
226 1184 m 1,0,1
 270 1183 270 1183 301.5 1180.5 c 128,-1,2
 333 1178 333 1178 357 1173 c 128,-1,3
 381 1168 381 1168 400 1160 c 128,-1,4
 419 1152 419 1152 437 1140 c 0,5,6
 473 1117 473 1117 493 1066 c 128,-1,7
 513 1015 513 1015 513 940 c 2,8,-1
 513 632 l 2,9,10
 513 586 513 586 519.5 554.5 c 128,-1,11
 526 523 526 523 543 501 c 128,-1,12
 560 479 560 479 588.5 463.5 c 128,-1,13
 617 448 617 448 661 435 c 1,14,15
 617 421 617 421 588.5 405.5 c 128,-1,16
 560 390 560 390 543 368 c 128,-1,17
 526 346 526 346 519.5 314.5 c 128,-1,18
 513 283 513 283 513 237 c 2,19,-1
 513 -73 l 2,20,21
 513 -225 513 -225 437 -271 c 0,22,23
 418 -283 418 -283 399 -291 c 128,-1,24
 380 -299 380 -299 356 -304.5 c 128,-1,25
 332 -310 332 -310 300.5 -312.5 c 128,-1,26
 269 -315 269 -315 226 -315 c 1,27,-1
 226 -296 l 1,28,29
 271 -284 271 -284 301.5 -267.5 c 128,-1,30
 332 -251 332 -251 350.5 -226 c 128,-1,31
 369 -201 369 -201 377 -166 c 128,-1,32
 385 -131 385 -131 385 -82 c 2,33,-1
 385 211 l 2,34,35
 385 265 385 265 392 302 c 128,-1,36
 399 339 399 339 417.5 364 c 128,-1,37
 436 389 436 389 467.5 405.5 c 128,-1,38
 499 422 499 422 548 435 c 1,39,40
 499 447 499 447 467.5 463 c 128,-1,41
 436 479 436 479 417.5 504 c 128,-1,42
 399 529 399 529 392 566 c 128,-1,43
 385 603 385 603 385 658 c 2,44,-1
 385 950 l 2,45,46
 385 999 385 999 377 1034.5 c 128,-1,47
 369 1070 369 1070 350.5 1094.5 c 128,-1,48
 332 1119 332 1119 301.5 1135.5 c 128,-1,49
 271 1152 271 1152 226 1164 c 1,50,-1
 226 1184 l 1,0,1
EndSplineSet
EndChar

StartChar: uni0656
Encoding: 1622 1622 452
Width: 0
GlyphClass: 4
Flags: W
AnchorPoint: "Anchor-3" 0 0 mark 0
AnchorPoint: "Anchor-1" 0 0 mark 0
LayerCount: 2
Fore
SplineSet
20 60 m 1,0,-1
 -11 -17 l 1,1,2
 -17 -17 -17 -17 -21 4 c 0,3,4
 -36 91 -36 91 -78 321 c 1,5,-1
 -1 381 l 2,6,7
 6 385 6 385 11 385 c 0,8,9
 17 385 17 385 18 378 c 0,10,11
 18 283 18 283 20 60 c 1,0,-1
EndSplineSet
EndChar

StartChar: E005
Encoding: 65578 -1 470
Width: 476
GlyphClass: 3
Flags: W
LayerCount: 2
Fore
SplineSet
-43 0 m 1,0,-1
 -43 207 l 1,1,-1
 581 207 l 1,2,-1
 581 0 l 1,3,-1
 -43 0 l 1,0,-1
EndSplineSet
EndChar

StartChar: afii57470
Encoding: 1726 1726 480
Width: 808
Flags: W
AnchorPoint: "Anchor-1" 270 -570 basechar 0
AnchorPoint: "Anchor-0" 330 960 basechar 0
LayerCount: 2
Fore
SplineSet
807 261 m 0,0,1
 807 190 807 190 759 111 c 0,2,3
 702 18 702 18 625 18 c 0,4,5
 565 18 565 18 351 106 c 1,6,7
 184 0 184 0 44 0 c 2,8,-1
 -70 0 l 1,9,-1
 -70 148 l 1,10,-1
 49 148 l 2,11,12
 134 148 134 148 201 166 c 1,13,14
 122 222 122 222 122 318 c 0,15,16
 122 442 122 442 289 570 c 1,17,-1
 204 612 l 1,18,19
 241 649 241 649 314 725 c 1,20,21
 495 638 495 638 619 540 c 0,22,23
 807 392 807 392 807 261 c 0,0,1
739 211 m 0,24,25
 739 263 739 263 660 339 c 0,26,27
 595 401 595 401 543 428 c 1,28,29
 543 276 543 276 455 202 c 1,30,31
 613 150 613 150 661 150 c 0,32,33
 739 150 739 150 739 211 c 0,24,25
470 362 m 0,34,35
 470 411 470 411 448 452 c 0,36,37
 422 501 422 501 377 501 c 0,38,39
 327 501 327 501 270 458 c 0,40,41
 210 413 210 413 210 365 c 0,42,43
 210 281 210 281 349 240 c 1,44,45
 393 250 393 250 429 283 c 0,46,47
 470 321 470 321 470 362 c 0,34,35
EndSplineSet
Substitution2: "'medi' Medial Forms in Arabic lookup 3 subtable" afii62827
Substitution2: "'fina' Terminal Forms in Arabic lookup 2 subtable" afii62827
Substitution2: "'init' Initial Forms in Arabic lookup 1 subtable" afii57470
EndChar

StartChar: at
Encoding: 64 64 489
Width: 1603
Flags: W
LayerCount: 2
Fore
SplineSet
1219 75 m 1,0,1
 1156 46 1156 46 1106 27 c 128,-1,2
 1056 8 1056 8 1012.5 -3.5 c 128,-1,3
 969 -15 969 -15 928 -20 c 128,-1,4
 887 -25 887 -25 841 -25 c 0,5,6
 706 -25 706 -25 589 20.5 c 128,-1,7
 472 66 472 66 386 146 c 128,-1,8
 300 226 300 226 251 334 c 128,-1,9
 202 442 202 442 202 568 c 0,10,11
 202 695 202 695 251.5 806 c 128,-1,12
 301 917 301 917 387 999 c 128,-1,13
 473 1081 473 1081 589 1128.5 c 128,-1,14
 705 1176 705 1176 837 1176 c 0,15,16
 958 1176 958 1176 1062 1137 c 128,-1,17
 1166 1098 1166 1098 1243 1029 c 128,-1,18
 1320 960 1320 960 1364 867 c 128,-1,19
 1408 774 1408 774 1408 666 c 0,20,21
 1408 582 1408 582 1382.5 506.5 c 128,-1,22
 1357 431 1357 431 1313 373.5 c 128,-1,23
 1269 316 1269 316 1211 282.5 c 128,-1,24
 1153 249 1153 249 1088 249 c 0,25,26
 1025 249 1025 249 981.5 283.5 c 128,-1,27
 938 318 938 318 930 376 c 1,28,29
 885 316 885 316 827.5 283.5 c 128,-1,30
 770 251 770 251 712 251 c 0,31,32
 680 251 680 251 652 266 c 128,-1,33
 624 281 624 281 603 307 c 128,-1,34
 582 333 582 333 570 368.5 c 128,-1,35
 558 404 558 404 558 445 c 0,36,37
 558 520 558 520 584 598 c 128,-1,38
 610 676 610 676 656 739.5 c 128,-1,39
 702 803 702 803 764.5 843.5 c 128,-1,40
 827 884 827 884 900 884 c 0,41,42
 922 884 922 884 939 880 c 128,-1,43
 956 876 956 876 970.5 865.5 c 128,-1,44
 985 855 985 855 998 838 c 128,-1,45
 1011 821 1011 821 1025 794 c 1,46,-1
 1043 860 l 1,47,-1
 1163 860 l 1,48,-1
 1050 418 l 2,49,50
 1046 405 1046 405 1046 387 c 0,51,52
 1046 306 1046 306 1114 306 c 0,53,54
 1157 306 1157 306 1197.5 335 c 128,-1,55
 1238 364 1238 364 1269.5 412 c 128,-1,56
 1301 460 1301 460 1320 522 c 128,-1,57
 1339 584 1339 584 1339 649 c 0,58,59
 1339 746 1339 746 1299.5 832.5 c 128,-1,60
 1260 919 1260 919 1192 983.5 c 128,-1,61
 1124 1048 1124 1048 1033 1085.5 c 128,-1,62
 942 1123 942 1123 839 1123 c 0,63,64
 742 1123 742 1123 658 1089.5 c 128,-1,65
 574 1056 574 1056 510 990 c 0,66,67
 473 951 473 951 443 902 c 128,-1,68
 413 853 413 853 392 798 c 128,-1,69
 371 743 371 743 359.5 683 c 128,-1,70
 348 623 348 623 348 563 c 0,71,72
 348 449 348 449 386 353.5 c 128,-1,73
 424 258 424 258 491.5 189 c 128,-1,74
 559 120 559 120 652.5 81.5 c 128,-1,75
 746 43 746 43 857 43 c 0,76,77
 900 43 900 43 940 47.5 c 128,-1,78
 980 52 980 52 1020 62 c 128,-1,79
 1060 72 1060 72 1103.5 88 c 128,-1,80
 1147 104 1147 104 1198 127 c 1,81,-1
 1219 75 l 1,0,1
924 807 m 2,82,-1
 917 807 l 2,83,84
 885 807 885 807 846.5 784 c 128,-1,85
 808 761 808 761 773 721 c 0,86,87
 683 619 683 619 683 473 c 0,88,89
 683 404 683 404 710.5 365 c 128,-1,90
 738 326 738 326 787 326 c 0,91,92
 817 326 817 326 844.5 344.5 c 128,-1,93
 872 363 872 363 895 394 c 128,-1,94
 918 425 918 425 936.5 465 c 128,-1,95
 955 505 955 505 968 547.5 c 128,-1,96
 981 590 981 590 988 632.5 c 128,-1,97
 995 675 995 675 995 710 c 0,98,99
 995 755 995 755 976.5 780 c 128,-1,100
 958 805 958 805 924 807 c 2,82,-1
EndSplineSet
EndChar

StartChar: A
Encoding: 65 65 490
Width: 1257
Flags: W
LayerCount: 2
Fore
SplineSet
1229 0 m 1,0,-1
 785 0 l 1,1,-1
 785 33 l 1,2,3
 819 34 819 34 842.5 37 c 128,-1,4
 866 40 866 40 880.5 47 c 128,-1,5
 895 54 895 54 901 65 c 128,-1,6
 907 76 907 76 907 93 c 256,7,8
 907 110 907 110 898.5 141.5 c 128,-1,9
 890 173 890 173 874 209 c 2,10,-1
 802 376 l 1,11,-1
 347 376 l 1,12,-1
 266 173 l 2,13,14
 260 156 260 156 256 138 c 128,-1,15
 252 120 252 120 252 105 c 0,16,17
 252 68 252 68 280 50.5 c 128,-1,18
 308 33 308 33 371 33 c 1,19,-1
 371 0 l 1,20,-1
 26 0 l 1,21,-1
 26 33 l 1,22,23
 57 34 57 34 79 43.5 c 128,-1,24
 101 53 101 53 123 82.5 c 128,-1,25
 145 112 145 112 172.5 168 c 128,-1,26
 200 224 200 224 242 319 c 2,27,-1
 604 1173 l 1,28,-1
 639 1173 l 1,29,-1
 1073 184 l 2,30,31
 1095 136 1095 136 1111.5 107 c 128,-1,32
 1128 78 1128 78 1144.5 62.5 c 128,-1,33
 1161 47 1161 47 1180.5 41 c 128,-1,34
 1200 35 1200 35 1229 33 c 1,35,-1
 1229 0 l 1,0,-1
778 447 m 1,36,-1
 576 926 l 1,37,-1
 376 447 l 1,38,-1
 778 447 l 1,36,-1
EndSplineSet
EndChar

StartChar: B
Encoding: 66 66 491
Width: 1161
Flags: W
LayerCount: 2
Fore
SplineSet
517 1153 m 2,0,1
 973 1153 973 1153 973 857 c 0,2,3
 973 803 973 803 954.5 757.5 c 128,-1,4
 936 712 936 712 904 683 c 0,5,6
 888 669 888 669 872.5 658 c 128,-1,7
 857 647 857 647 837.5 638.5 c 128,-1,8
 818 630 818 630 793 622 c 128,-1,9
 768 614 768 614 734 606 c 1,10,11
 776 595 776 595 807.5 585 c 128,-1,12
 839 575 839 575 863 564.5 c 128,-1,13
 887 554 887 554 907 541 c 128,-1,14
 927 528 927 528 947 510 c 0,15,16
 989 472 989 472 1010.5 421.5 c 128,-1,17
 1032 371 1032 371 1032 314 c 0,18,19
 1032 247 1032 247 1005.5 189.5 c 128,-1,20
 979 132 979 132 926.5 90 c 128,-1,21
 874 48 874 48 795 24 c 128,-1,22
 716 0 716 0 611 0 c 2,23,-1
 30 0 l 1,24,-1
 30 33 l 1,25,26
 84 35 84 35 116.5 41.5 c 128,-1,27
 149 48 149 48 167 65 c 128,-1,28
 185 82 185 82 190.5 112 c 128,-1,29
 196 142 196 142 196 190 c 2,30,-1
 196 963 l 2,31,32
 196 1011 196 1011 190.5 1040 c 128,-1,33
 185 1069 185 1069 167.5 1085.5 c 128,-1,34
 150 1102 150 1102 117.5 1109 c 128,-1,35
 85 1116 85 1116 30 1119 c 1,36,-1
 30 1153 l 1,37,-1
 517 1153 l 2,0,1
374 136 m 2,38,39
 374 115 374 115 379 101.5 c 128,-1,40
 384 88 384 88 397 79.5 c 128,-1,41
 410 71 410 71 431 68 c 128,-1,42
 452 65 452 65 484 65 c 0,43,44
 578 65 578 65 644.5 80.5 c 128,-1,45
 711 96 711 96 752.5 127 c 128,-1,46
 794 158 794 158 813 204 c 128,-1,47
 832 250 832 250 832 312 c 0,48,49
 832 396 832 396 796.5 448.5 c 128,-1,50
 761 501 761 501 686 533 c 0,51,52
 662 542 662 542 634 548.5 c 128,-1,53
 606 555 606 555 569.5 559.5 c 128,-1,54
 533 564 533 564 485.5 566 c 128,-1,55
 438 568 438 568 374 568 c 1,56,-1
 374 136 l 2,38,39
540 637 m 2,57,58
 665 637 665 637 730.5 691.5 c 128,-1,59
 796 746 796 746 796 849 c 0,60,61
 796 967 796 967 719 1027.5 c 128,-1,62
 642 1088 642 1088 489 1088 c 2,63,-1
 412 1088 l 2,64,65
 393 1088 393 1088 383.5 1076 c 128,-1,66
 374 1064 374 1064 374 1036 c 2,67,-1
 374 637 l 1,68,-1
 540 637 l 2,57,58
EndSplineSet
EndChar

StartChar: C
Encoding: 67 67 492
Width: 1161
Flags: W
LayerCount: 2
Fore
SplineSet
1040 784 m 1,0,1
 1027 826 1027 826 1015 857.5 c 128,-1,2
 1003 889 1003 889 990 914 c 128,-1,3
 977 939 977 939 961 959.5 c 128,-1,4
 945 980 945 980 924 1001 c 0,5,6
 817 1108 817 1108 665 1108 c 0,7,8
 570 1108 570 1108 493.5 1071 c 128,-1,9
 417 1034 417 1034 363 966.5 c 128,-1,10
 309 899 309 899 280 802.5 c 128,-1,11
 251 706 251 706 251 588 c 0,12,13
 251 456 251 456 281.5 355.5 c 128,-1,14
 312 255 312 255 368.5 187.5 c 128,-1,15
 425 120 425 120 505 86 c 128,-1,16
 585 52 585 52 683 52 c 0,17,18
 737 52 737 52 786 62 c 128,-1,19
 835 72 835 72 882 93.5 c 128,-1,20
 929 115 929 115 976 148 c 128,-1,21
 1023 181 1023 181 1071 228 c 1,22,-1
 1102 196 l 1,23,24
 1021 90 1021 90 899 32.5 c 128,-1,25
 777 -25 777 -25 626 -25 c 0,26,27
 503 -25 503 -25 397 16 c 128,-1,28
 291 57 291 57 213.5 133.5 c 128,-1,29
 136 210 136 210 92 319.5 c 128,-1,30
 48 429 48 429 48 566 c 0,31,32
 48 712 48 712 95.5 829 c 128,-1,33
 143 946 143 946 237 1027 c 0,34,35
 318 1099 318 1099 420 1137.5 c 128,-1,36
 522 1176 522 1176 632 1176 c 0,37,38
 695 1176 695 1176 758.5 1166 c 128,-1,39
 822 1156 822 1156 886 1135 c 0,40,41
 906 1127 906 1127 924 1123 c 128,-1,42
 942 1119 942 1119 954 1119 c 0,43,44
 980 1119 980 1119 999.5 1134 c 128,-1,45
 1019 1149 1019 1149 1027 1176 c 1,46,-1
 1063 1176 l 1,47,-1
 1063 784 l 1,48,-1
 1040 784 l 1,0,1
EndSplineSet
EndChar

StartChar: D
Encoding: 68 68 493
Width: 1257
Flags: W
LayerCount: 2
Fore
SplineSet
181 963 m 2,0,1
 181 1011 181 1011 176.5 1040 c 128,-1,2
 172 1069 172 1069 156 1085 c 128,-1,3
 140 1101 140 1101 110 1108 c 128,-1,4
 80 1115 80 1115 28 1119 c 1,5,-1
 28 1153 l 1,6,-1
 498 1153 l 2,7,8
 660 1153 660 1153 789 1114.5 c 128,-1,9
 918 1076 918 1076 1008 1002.5 c 128,-1,10
 1098 929 1098 929 1145.5 823 c 128,-1,11
 1193 717 1193 717 1193 581 c 0,12,13
 1193 452 1193 452 1149 345 c 128,-1,14
 1105 238 1105 238 1019.5 161.5 c 128,-1,15
 934 85 934 85 809 42.5 c 128,-1,16
 684 0 684 0 522 0 c 2,17,-1
 28 0 l 1,18,-1
 28 33 l 1,19,20
 77 36 77 36 107.5 43.5 c 128,-1,21
 138 51 138 51 154 68 c 128,-1,22
 170 85 170 85 175.5 114 c 128,-1,23
 181 143 181 143 181 190 c 2,24,-1
 181 963 l 2,0,1
359 136 m 2,25,26
 359 115 359 115 363 101.5 c 128,-1,27
 367 88 367 88 377.5 79.5 c 128,-1,28
 388 71 388 71 405.5 68 c 128,-1,29
 423 65 423 65 449 65 c 0,30,31
 506 65 506 65 554 69 c 128,-1,32
 602 73 602 73 643 81.5 c 128,-1,33
 684 90 684 90 720.5 103.5 c 128,-1,34
 757 117 757 117 790 136 c 0,35,36
 1003 259 1003 259 1003 569 c 0,37,38
 1003 856 1003 856 796 1001 c 0,39,40
 671 1088 671 1088 449 1088 c 0,41,42
 422 1088 422 1088 404.5 1085 c 128,-1,43
 387 1082 387 1082 377 1074.5 c 128,-1,44
 367 1067 367 1067 363 1053.5 c 128,-1,45
 359 1040 359 1040 359 1020 c 2,46,-1
 359 136 l 2,25,26
EndSplineSet
EndChar

StartChar: E
Encoding: 69 69 494
Width: 1063
Flags: W
LayerCount: 2
Fore
SplineSet
960 0 m 1,0,-1
 21 0 l 1,1,-1
 21 33 l 1,2,3
 69 36 69 36 98.5 43.5 c 128,-1,4
 128 51 128 51 144.5 68.5 c 128,-1,5
 161 86 161 86 167 115 c 128,-1,6
 173 144 173 144 173 190 c 2,7,-1
 173 963 l 2,8,9
 173 1009 173 1009 167.5 1037.5 c 128,-1,10
 162 1066 162 1066 145.5 1083 c 128,-1,11
 129 1100 129 1100 99 1107.5 c 128,-1,12
 69 1115 69 1115 21 1119 c 1,13,-1
 21 1153 l 1,14,-1
 945 1153 l 1,15,-1
 945 904 l 1,16,-1
 907 904 l 1,17,18
 896 962 896 962 881 998 c 128,-1,19
 866 1034 866 1034 837.5 1053.5 c 128,-1,20
 809 1073 809 1073 762.5 1079.5 c 128,-1,21
 716 1086 716 1086 643 1086 c 2,22,-1
 407 1086 l 2,23,24
 372 1086 372 1086 361 1074.5 c 128,-1,25
 350 1063 350 1063 350 1027 c 2,26,-1
 350 641 l 1,27,-1
 618 641 l 2,28,29
 738 641 738 641 771 684 c 0,30,31
 778 693 778 693 783 703.5 c 128,-1,32
 788 714 788 714 792 727.5 c 128,-1,33
 796 741 796 741 800 760 c 128,-1,34
 804 779 804 779 809 806 c 1,35,-1
 849 806 l 1,36,-1
 849 402 l 1,37,-1
 809 402 l 1,38,39
 801 456 801 456 790.5 489 c 128,-1,40
 780 522 780 522 759.5 540 c 128,-1,41
 739 558 739 558 705.5 563.5 c 128,-1,42
 672 569 672 569 618 569 c 2,43,-1
 350 569 l 1,44,-1
 350 139 l 2,45,46
 350 117 350 117 353 103 c 128,-1,47
 356 89 356 89 362 85 c 0,48,49
 366 80 366 80 381 76.5 c 128,-1,50
 396 73 396 73 419.5 70.5 c 128,-1,51
 443 68 443 68 472 66.5 c 128,-1,52
 501 65 501 65 533 65 c 2,53,-1
 580 65 l 2,54,55
 673 65 673 65 737 74.5 c 128,-1,56
 801 84 801 84 846.5 109 c 128,-1,57
 892 134 892 134 925 178.5 c 128,-1,58
 958 223 958 223 990 294 c 1,59,-1
 1040 294 l 1,60,-1
 960 0 l 1,0,-1
EndSplineSet
EndChar

StartChar: F
Encoding: 70 70 495
Width: 968
Flags: W
LayerCount: 2
Fore
SplineSet
794 402 m 1,0,1
 786 454 786 454 775 487 c 128,-1,2
 764 520 764 520 743 538 c 128,-1,3
 722 556 722 556 688.5 562.5 c 128,-1,4
 655 569 655 569 603 569 c 2,5,-1
 350 569 l 1,6,-1
 350 190 l 2,7,8
 350 143 350 143 356 113.5 c 128,-1,9
 362 84 362 84 379 67 c 128,-1,10
 396 50 396 50 427 43 c 128,-1,11
 458 36 458 36 508 33 c 1,12,-1
 508 0 l 1,13,-1
 21 0 l 1,14,-1
 21 33 l 1,15,16
 70 36 70 36 100 44 c 128,-1,17
 130 52 130 52 146.5 70.5 c 128,-1,18
 163 89 163 89 168 122 c 128,-1,19
 173 155 173 155 173 209 c 2,20,-1
 173 963 l 2,21,22
 173 1009 173 1009 167.5 1037.5 c 128,-1,23
 162 1066 162 1066 145.5 1083 c 128,-1,24
 129 1100 129 1100 99 1107.5 c 128,-1,25
 69 1115 69 1115 21 1119 c 1,26,-1
 21 1153 l 1,27,-1
 945 1153 l 1,28,-1
 945 904 l 1,29,-1
 907 904 l 1,30,31
 896 962 896 962 881 998 c 128,-1,32
 866 1034 866 1034 837.5 1053.5 c 128,-1,33
 809 1073 809 1073 762.5 1079.5 c 128,-1,34
 716 1086 716 1086 643 1086 c 2,35,-1
 405 1086 l 2,36,37
 388 1086 388 1086 377 1083.5 c 128,-1,38
 366 1081 366 1081 360 1074.5 c 128,-1,39
 354 1068 354 1068 352 1056.5 c 128,-1,40
 350 1045 350 1045 350 1027 c 2,41,-1
 350 641 l 1,42,-1
 603 641 l 2,43,44
 654 641 654 641 687.5 647 c 128,-1,45
 721 653 721 653 742 671 c 128,-1,46
 763 689 763 689 774.5 721 c 128,-1,47
 786 753 786 753 794 806 c 1,48,-1
 834 806 l 1,49,-1
 834 402 l 1,50,-1
 794 402 l 1,0,1
EndSplineSet
EndChar

StartChar: G
Encoding: 71 71 496
Width: 1257
Flags: W
LayerCount: 2
Fore
SplineSet
1234 585 m 1,0,1
 1196 582 1196 582 1172.5 575 c 128,-1,2
 1149 568 1149 568 1135.5 553 c 128,-1,3
 1122 538 1122 538 1117.5 513.5 c 128,-1,4
 1113 489 1113 489 1113 450 c 2,5,-1
 1113 98 l 1,6,7
 1087 75 1087 75 1036.5 53 c 128,-1,8
 986 31 986 31 924.5 13.5 c 128,-1,9
 863 -4 863 -4 797.5 -14.5 c 128,-1,10
 732 -25 732 -25 676 -25 c 0,11,12
 529 -25 529 -25 409 22.5 c 128,-1,13
 289 70 289 70 201 161 c 0,14,15
 126 239 126 239 91 337.5 c 128,-1,16
 56 436 56 436 56 566 c 0,17,18
 56 699 56 699 100 811 c 128,-1,19
 144 923 144 923 223.5 1004 c 128,-1,20
 303 1085 303 1085 412.5 1130.5 c 128,-1,21
 522 1176 522 1176 653 1176 c 0,22,23
 773 1176 773 1176 890 1136 c 0,24,25
 941 1119 941 1119 966 1119 c 0,26,27
 994 1119 994 1119 1015.5 1135.5 c 128,-1,28
 1037 1152 1037 1152 1045 1176 c 1,29,-1
 1083 1176 l 1,30,-1
 1083 809 l 1,31,-1
 1057 809 l 1,32,33
 1040 849 1040 849 1025.5 878.5 c 128,-1,34
 1011 908 1011 908 997 931.5 c 128,-1,35
 983 955 983 955 967.5 974 c 128,-1,36
 952 993 952 993 933 1011 c 0,37,38
 830 1108 830 1108 683 1108 c 0,39,40
 588 1108 588 1108 509.5 1072 c 128,-1,41
 431 1036 431 1036 374 967 c 128,-1,42
 317 898 317 898 285.5 797.5 c 128,-1,43
 254 697 254 697 254 568 c 0,44,45
 254 446 254 446 285.5 349.5 c 128,-1,46
 317 253 317 253 376.5 185 c 128,-1,47
 436 117 436 117 520.5 81 c 128,-1,48
 605 45 605 45 712 45 c 0,49,50
 759 45 759 45 801 53.5 c 128,-1,51
 843 62 843 62 874.5 76 c 128,-1,52
 906 90 906 90 924.5 108.5 c 128,-1,53
 943 127 943 127 943 148 c 2,54,-1
 943 430 l 2,55,56
 943 487 943 487 935 518 c 128,-1,57
 927 549 927 549 907 560 c 0,58,59
 899 566 899 566 890.5 569.5 c 128,-1,60
 882 573 882 573 869 576 c 128,-1,61
 856 579 856 579 837 581 c 128,-1,62
 818 583 818 583 790 585 c 1,63,-1
 790 616 l 1,64,-1
 1234 616 l 1,65,-1
 1234 585 l 1,0,1
EndSplineSet
EndChar

StartChar: H
Encoding: 72 72 497
Width: 1257
Flags: W
LayerCount: 2
Fore
SplineSet
892 625 m 1,0,-1
 892 963 l 2,1,2
 892 1009 892 1009 887 1038 c 128,-1,3
 882 1067 882 1067 865.5 1083.5 c 128,-1,4
 849 1100 849 1100 818.5 1107.5 c 128,-1,5
 788 1115 788 1115 738 1119 c 1,6,-1
 738 1153 l 1,7,-1
 1222 1153 l 1,8,-1
 1222 1119 l 1,9,10
 1172 1115 1172 1115 1141.5 1107.5 c 128,-1,11
 1111 1100 1111 1100 1094.5 1083.5 c 128,-1,12
 1078 1067 1078 1067 1073 1038 c 128,-1,13
 1068 1009 1068 1009 1068 963 c 2,14,-1
 1068 190 l 2,15,16
 1068 143 1068 143 1073.5 114.5 c 128,-1,17
 1079 86 1079 86 1095.5 69 c 128,-1,18
 1112 52 1112 52 1142 44.5 c 128,-1,19
 1172 37 1172 37 1222 33 c 1,20,-1
 1222 0 l 1,21,-1
 738 0 l 1,22,-1
 738 33 l 1,23,24
 789 36 789 36 819.5 43.5 c 128,-1,25
 850 51 850 51 866 69.5 c 128,-1,26
 882 88 882 88 887 121 c 128,-1,27
 892 154 892 154 892 209 c 2,28,-1
 892 548 l 1,29,-1
 364 548 l 1,30,-1
 364 190 l 2,31,32
 364 143 364 143 369.5 114.5 c 128,-1,33
 375 86 375 86 391.5 69 c 128,-1,34
 408 52 408 52 438 44.5 c 128,-1,35
 468 37 468 37 517 33 c 1,36,-1
 517 0 l 1,37,-1
 33 0 l 1,38,-1
 33 33 l 1,39,40
 84 36 84 36 114.5 43.5 c 128,-1,41
 145 51 145 51 160.5 69.5 c 128,-1,42
 176 88 176 88 181 121 c 128,-1,43
 186 154 186 154 186 209 c 2,44,-1
 186 963 l 2,45,46
 186 1009 186 1009 181 1038 c 128,-1,47
 176 1067 176 1067 160 1083.5 c 128,-1,48
 144 1100 144 1100 113.5 1107.5 c 128,-1,49
 83 1115 83 1115 33 1119 c 1,50,-1
 33 1153 l 1,51,-1
 517 1153 l 1,52,-1
 517 1119 l 1,53,54
 467 1115 467 1115 436.5 1107.5 c 128,-1,55
 406 1100 406 1100 390 1083.5 c 128,-1,56
 374 1067 374 1067 369 1038 c 128,-1,57
 364 1009 364 1009 364 963 c 2,58,-1
 364 625 l 1,59,-1
 892 625 l 1,0,-1
EndSplineSet
EndChar

StartChar: I
Encoding: 73 73 498
Width: 580
Flags: W
LayerCount: 2
Fore
SplineSet
201 963 m 2,0,1
 201 1011 201 1011 195 1040 c 128,-1,2
 189 1069 189 1069 171 1085.5 c 128,-1,3
 153 1102 153 1102 119.5 1109 c 128,-1,4
 86 1116 86 1116 31 1119 c 1,5,-1
 31 1153 l 1,6,-1
 548 1153 l 1,7,-1
 548 1119 l 1,8,9
 493 1117 493 1117 459.5 1110.5 c 128,-1,10
 426 1104 426 1104 407.5 1087 c 128,-1,11
 389 1070 389 1070 383 1040.5 c 128,-1,12
 377 1011 377 1011 377 963 c 2,13,-1
 377 190 l 2,14,15
 377 142 377 142 383.5 112.5 c 128,-1,16
 390 83 390 83 409 66 c 128,-1,17
 428 49 428 49 461 42 c 128,-1,18
 494 35 494 35 548 33 c 1,19,-1
 548 0 l 1,20,-1
 31 0 l 1,21,-1
 31 33 l 1,22,23
 86 35 86 35 119.5 41.5 c 128,-1,24
 153 48 153 48 171 64.5 c 128,-1,25
 189 81 189 81 195 111 c 128,-1,26
 201 141 201 141 201 190 c 2,27,-1
 201 963 l 2,0,1
EndSplineSet
EndChar

StartChar: J
Encoding: 74 74 499
Width: 677
Flags: W
LayerCount: 2
Fore
SplineSet
484 319 m 2,0,1
 484 153 484 153 408.5 64 c 128,-1,2
 333 -25 333 -25 190 -25 c 0,3,4
 152 -25 152 -25 120 -15.5 c 128,-1,5
 88 -6 88 -6 65 10.5 c 128,-1,6
 42 27 42 27 29.5 50.5 c 128,-1,7
 17 74 17 74 17 101 c 0,8,9
 17 119 17 119 24 134.5 c 128,-1,10
 31 150 31 150 42.5 162 c 128,-1,11
 54 174 54 174 69.5 181 c 128,-1,12
 85 188 85 188 103 188 c 0,13,14
 167 188 167 188 193 99 c 0,15,16
 203 67 203 67 212.5 54.5 c 128,-1,17
 222 42 222 42 241 42 c 0,18,19
 275 42 275 42 290.5 69 c 128,-1,20
 306 96 306 96 306 156 c 2,21,-1
 306 963 l 2,22,23
 306 1011 306 1011 301 1039.5 c 128,-1,24
 296 1068 296 1068 279 1084.5 c 128,-1,25
 262 1101 262 1101 230 1108 c 128,-1,26
 198 1115 198 1115 144 1119 c 1,27,-1
 144 1153 l 1,28,-1
 644 1153 l 1,29,-1
 644 1119 l 1,30,31
 591 1115 591 1115 559.5 1108 c 128,-1,32
 528 1101 528 1101 511 1084.5 c 128,-1,33
 494 1068 494 1068 489 1039.5 c 128,-1,34
 484 1011 484 1011 484 963 c 2,35,-1
 484 319 l 2,0,1
EndSplineSet
EndChar

